<?xml version="1.0" encoding="utf-8"?>
<!-- Generator: Adobe Illustrator 16.0.0, SVG Export Plug-In . SVG Version: 6.00 Build 0)  -->
<!DOCTYPE svg PUBLIC "-//W3C//DTD SVG 1.1//EN" "http://www.w3.org/Graphics/SVG/1.1/DTD/svg11.dtd">
<svg version="1.1" id="Layer_1" xmlns="http://www.w3.org/2000/svg" xmlns:xlink="http://www.w3.org/1999/xlink" x="0px" y="0px"
	 width="60px" height="60px" viewBox="0 0 60 60" enable-background="new 0 0 60 60" xml:space="preserve">
<g>
	<g>
		<path fill="#48A1B9" d="M30,0C13.459,0,0,13.458,0,30s13.459,30,30,30c16.543,0,30-13.459,30-30S46.545,0,30,0z"/>
	</g>
</g>
<g>
	<path fill-rule="evenodd" clip-rule="evenodd" fill="#FFFFFF" d="M13.806,30.111c0.001-2.297-0.059-4.595,0.014-6.89
		c0.146-4.565,4.435-8.645,9.25-8.723c4.802-0.079,9.607-0.083,14.408-0.001c5.01,0.086,9.26,4.149,9.348,8.932
		c0.083,4.526,0.08,9.056-0.001,13.581c-0.085,4.633-4.383,8.737-9.251,8.821c-4.802,0.083-9.607,0.085-14.409,0.001
		c-4.974-0.086-9.187-4.104-9.346-8.831C13.741,34.707,13.805,32.407,13.806,30.111z M30.372,43.178
		c2.138,0,4.277,0.033,6.414-0.007c4.188-0.078,7.144-2.81,7.221-6.79c0.08-4.125,0.079-8.254,0.002-12.378
		c-0.075-4.014-2.981-6.775-7.167-6.834c-4.346-0.062-8.692-0.062-13.037,0c-4.147,0.059-7.081,2.79-7.165,6.729
		c-0.091,4.192-0.099,8.388,0.003,12.579c0.093,3.918,3.07,6.615,7.212,6.693C26.026,43.212,28.201,43.178,30.372,43.178z"/>
	<path fill-rule="evenodd" clip-rule="evenodd" fill="#FFFFFF" d="M30.372,21.628c5.007,0.042,9.005,3.891,8.942,8.608
		c-0.062,4.763-4.126,8.544-9.092,8.463c-5.031-0.085-8.978-3.926-8.89-8.655C21.422,25.328,25.438,21.587,30.372,21.628z
		 M30.371,25.258c-2.916-0.011-5.213,2.142-5.216,4.889c-0.004,2.727,2.237,4.905,5.068,4.928c2.935,0.023,5.25-2.103,5.269-4.838
		C35.512,27.46,33.257,25.269,30.371,25.258z"/>
	<path fill-rule="evenodd" clip-rule="evenodd" fill="#FFFFFF" d="M41.444,21.686c0.029,1.022-0.812,1.847-1.888,1.85
		c-1.009,0.002-1.887-0.795-1.923-1.744c-0.037-0.938,0.921-1.878,1.913-1.88C40.52,19.908,41.418,20.749,41.444,21.686z"/>
</g>
</svg>
