<?xml version="1.0" encoding="utf-8"?>
<!-- Generator: Adobe Illustrator 21.0.2, SVG Export Plug-In . SVG Version: 6.00 Build 0)  -->
<svg version="1.1" id="Layer_1" xmlns="http://www.w3.org/2000/svg" xmlns:xlink="http://www.w3.org/1999/xlink" x="0px" y="0px"
	 viewBox="0 0 240 101.8" style="enable-background:new 0 0 240 101.8;" xml:space="preserve">
<style type="text/css">
	.st0{clip-path:url(#SVGID_2_);}
	.st1{fill:#E67F7B;}
	.st2{fill:#C3002F;}
	.st3{fill:#414042;}
	.st4{clip-path:url(#SVGID_4_);}
	.st5{fill:#808285;}
	.st6{fill:#1A1A1A;}
	.st7{fill:#6D6E71;}
</style>
<g>
	<g>
		<defs>
			<path id="SVGID_1_" d="M33.7,74.7c-5.3,0-9.6-6.4-9.6-14.4c0-7.9,4.3-14.4,9.6-14.4c5.3,0,9.6,6.4,9.6,14.4
				C43.3,68.3,39,74.7,33.7,74.7z M76.3,53.6c5.3,0,9.6-6.4,9.6-14.4s-4.3-14.4-9.6-14.4c-5.3,0-9.6,6.4-9.6,14.4S71,53.6,76.3,53.6
				z M53,53.6c5.3,0,9.6-6.4,9.6-14.4S58.3,24.9,53,24.9c-5.3,0-9.6,6.4-9.6,14.4S47.7,53.6,53,53.6z M65,57.2
				c-12.6,0-17.5,9.5-23.6,21.4C25.3,110.2,50.6,98.5,63,96.9c-3.6-3.7-9.2-10.4-8.7-15.3c1.1-10.5,11.4-6.5,11.6-1.9
				c0.3-4.6,10.6-8.7,11.6,1.9c0.5,5-5.3,11.8-8.9,15.5c12,2.1,35.5,12,19.9-18.5C82.5,66.7,77.8,57.2,65,57.2z M96.3,46
				c-5.3,0-9.6,6.4-9.6,14.4c0,7.9,4.3,14.4,9.6,14.4c5.3,0,9.6-6.4,9.6-14.4C105.9,52.5,101.6,46,96.3,46z"/>
		</defs>
		<clipPath id="SVGID_2_">
			<use xlink:href="#SVGID_1_"  style="overflow:visible;"/>
		</clipPath>
		<g class="st0">
			<path class="st1" d="M143.9,79.3c0,43.1-34.9,78-78,78s-78-34.9-78-78c0-43.1,34.9-78,78-78S143.9,36.2,143.9,79.3z"/>
			<g>
				<path class="st2" d="M65.9,151c-1.3,0-2.6,0-3.8-0.1l3.8-71.4c0,0,0.1,0,0.1,0l3.8,71.4C68.5,151,67.2,151,65.9,151z
					 M54.4,150.1c-2.6-0.4-5.1-1-7.6-1.7l19.1-68.9L54.4,150.1z M77.5,150.1L66,79.5l19.1,68.9C82.6,149.1,80.1,149.6,77.5,150.1z
					 M39.4,145.9c-2.4-1-4.8-2.1-7.1-3.3l33.5-63.2L39.4,145.9z M92.5,145.9L66,79.5l33.6,63.1C97.3,143.8,94.9,144.9,92.5,145.9z
					 M25.6,138.6c-2.1-1.4-4.2-3-6.2-4.7l46.3-54.5c0,0,0,0,0,0L25.6,138.6z M106.2,138.6L66,79.5c0,0,0,0,0,0l46.3,54.5
					C110.4,135.6,108.4,137.2,106.2,138.6z M13.8,128.6c-1.8-1.9-3.5-3.9-5-5.9l56.9-43.4c0,0,0,0,0,0L13.8,128.6z M118,128.6
					L66.1,79.4c0,0,0,0,0,0l56.9,43.3C121.5,124.7,119.8,126.7,118,128.6z M4.4,116.3c-1.3-2.2-2.6-4.5-3.7-6.9l64.8-30.1
					c0,0,0,0,0,0L4.4,116.3z M127.4,116.2L66.2,79.3c0,0,0,0,0,0l0,0L136,94.6c-0.6,2.5-1.3,5.1-2.1,7.5L66.2,79.3l64.9,30.1
					C130,111.7,128.8,114,127.4,116.2z M-2.1,102.2c-0.8-2.5-1.5-5-2.1-7.5l69.8-15.4L-2.1,102.2z M-5.5,87
					c-0.3-2.5-0.4-5.1-0.4-7.7l71.5-0.1c0,0,0,0.1,0,0.1L-5.5,87z M137.3,86.9l-71.1-7.6c0,0,0,0,0-0.1v-0.1h71.5v0.1
					C137.7,81.8,137.6,84.4,137.3,86.9z M65.6,79.1l-71.1-7.6c0.3-2.6,0.7-5.2,1.2-7.7L65.6,79.1C65.6,79.1,65.6,79.1,65.6,79.1z
					 M66.2,79.1C66.2,79.1,66.2,79.1,66.2,79.1L136,63.7c0.6,2.5,1,5.1,1.3,7.7L66.2,79.1z M66.2,79.1L131,48.9
					c1.1,2.4,2.1,4.8,2.9,7.2L66.2,79.1z M65.6,79.1L-2.2,56.4c0.8-2.5,1.8-4.9,2.9-7.2L65.6,79.1z M65.6,79.1L4.4,42.2
					c1.3-2.2,2.8-4.4,4.4-6.4L65.6,79.1C65.7,79.1,65.6,79.1,65.6,79.1z M66.2,79.1C66.2,79.1,66.2,79.1,66.2,79.1L123,35.6
					c1.6,2.1,3,4.2,4.4,6.4L66.2,79.1z M65.7,79l-52-49.1c1.8-1.9,3.7-3.7,5.6-5.3L65.7,79C65.7,79,65.7,79,65.7,79z M66.1,79
					C66.1,79,66.1,79,66.1,79l46.2-54.6c2,1.7,3.9,3.5,5.6,5.3L66.1,79z M65.7,78.8L25.5,19.9c2.1-1.5,4.4-2.8,6.6-4l33.4,62.7
					C65.6,78.5,65.5,78.5,65.7,78.8z M66,78.9C66,78.9,66,78.9,66,78.9l33.4-63.2c2.3,1.2,4.5,2.6,6.7,4L66,78.9z M66,78.9L85,10
					c2.5,0.7,5,1.5,7.4,2.5L66,78.9z M65.8,78.9L39.2,12.6c2.4-1,4.9-1.8,7.4-2.5L65.8,78.9z M65.8,79.1L54.2,8.4
					c2.5-0.4,5.1-0.7,7.7-0.8l3.9,72C65.9,79.6,65.8,79.1,65.8,79.1z M66,78.9c0,0-0.1,0.4-0.1,0.4l3.7-71.8
					c2.6,0.1,5.2,0.4,7.7,0.8L66,78.9z"/>
			</g>
		</g>
	</g>
	<g>
		<path class="st3" d="M158,57.9c3.8,0,6.7,0.6,8.8,2c2.2,1.5,3.5,3.6,3.5,6.9c0,6.2-5.1,9.4-10.1,10c-0.8,0.1-1.7,0.1-2.3,0.1
			l-3.4-0.9v6.4c0,5.3,0.4,5.7,5.1,6v1.4h-15v-1.4c3.9-0.3,4.3-0.7,4.3-6V65.2c0-5.3-0.4-5.7-4.1-6v-1.4H158z M154.4,74.1
			c0.8,0.3,1.8,0.6,3.1,0.6c2.1,0,6.5-1.4,6.5-7.8c0-5-2.9-7.1-7.1-7.1c-2.4,0-2.5,0.3-2.5,1.8V74.1z"/>
		<path class="st3" d="M183.6,57.9l3.3,8.5c2.3,6,4.5,12,6.5,16.9c1.7,4.4,2.4,4.7,5.4,5v1.4h-13.4v-1.4l1.4-0.2
			c1.9-0.3,2-0.8,1.4-2.6c-0.5-1.5-1.7-4.5-2.8-7.1H176c-0.7,1.5-1.6,4.2-2.3,6.3c-0.9,2.6-0.5,3.2,1.7,3.5l1.4,0.1v1.4h-11.3v-1.4
			c3.2-0.4,3.7-0.6,5.5-5l10.3-25.5H183.6z M176.5,76.2h8.1l-4-10.8h-0.2L176.5,76.2z"/>
		<path class="st3" d="M217.7,57.9l8.9,23.3h0.1c1.9-6.1,4.3-15.2,5.1-18.3c0.8-3,0.5-3.6-1.7-3.8l-1.8-0.2v-1.4H240v1.4
			c-3.3,0.3-3.7,0.6-5.4,5c-0.8,2.1-4.4,12.2-8.6,25.9h-2.2l-8.7-22.9H215l-8,22.9h-2.2l-8.4-26.1c-1.4-4.2-2.3-4.5-5-4.8v-1.4h13.8
			v1.4l-1.7,0.2c-2.1,0.3-2.3,0.7-1.6,3l5.9,19.1h0.1l7.7-23.3H217.7z"/>
	</g>
	<g>
		<defs>
			<path id="SVGID_3_" d="M19.5,2.2c5.5,0,9.7,0.9,12.7,2.9c3.2,2.2,5,5.3,5,10.1c0,9.1-7.4,13.8-14.6,14.7C21.5,30,20.1,30,19.2,30
				l-4.9-1.3v9.4c0,7.8,0.6,8.3,7.4,8.8v2H0v-2c5.6-0.4,6.2-1,6.2-8.8V12.9c0-7.8-0.6-8.3-5.9-8.8v-2H19.5z M14.3,25.9
				c1.2,0.4,2.6,0.9,4.5,0.9c3.1,0,9.4-2,9.4-11.5c0-7.4-4.1-10.3-10.3-10.3c-3.5,0-3.6,0.4-3.6,2.6V25.9z M190.9,36.6
				c-1.3,3.4-2.5,5.9-3.8,7.3c-1.5,1.8-4.9,2.1-8.6,2.1c-3.1,0-5.8-0.1-7.1-0.9c-1.3-0.9-1.6-2.9-1.6-7.1V26.2h6.3
				c6.3,0,6.5,0.3,7.2,6h2.4V16.9h-2.4c-0.7,5.5-0.9,6-7.2,6h-6.3V7.6c0-2.6,0.1-2.6,2.9-2.6h3.7c4.6,0,6.9,0.4,8.2,1.7
				c1.1,1.1,2,3.1,2.7,6.5l2.2-0.1c-0.4-4.5-0.7-9.8-0.9-10.9h-31.9h-1.4h-15.5v2l2.7,0.3c3.2,0.3,3.6,1.1,2.4,5.6
				c-1.2,4.6-4.7,18-7.4,26.9h-0.1L124.5,2.7h-2.9l-11.2,34.2h-0.1l-8.6-28c-1-3.4-0.7-4,2.3-4.5l2.4-0.3v-2H86.5v2
				c3.9,0.4,5.2,0.9,7.2,7l12.2,38.2h3.2l11.5-33.6h0.1l12.5,33.6h3.2c6.1-20,11.4-34.9,12.5-37.9c2.2-6.1,2.9-6.8,7.1-7.3
				c4.9,0.4,5.4,1.3,5.4,8.7v25.1c0,7.8-0.6,8.3-6.9,8.8v2h36c0.6-2,2.2-9.3,2.5-11.8L190.9,36.6z M215.5,2.2
				c5.4,0,9.2,0.6,12.2,2.4c2.9,1.9,4.9,4.9,4.9,9.1c0,6-3.8,10.3-9.8,12.4c1.2,2,4.2,7,6.4,10.3C232,40.8,235.5,47,240,48v1.6
				l-3.1-0.1c-8-0.6-10.5-2.6-13.4-6.6c-2.4-3.3-4.8-7.9-6.9-11.6c-1.2-2-2.1-2.7-4.3-2.7h-2.4v9.6c0,7.8,0.6,8.3,6.2,8.8v2h-20.8
				v-2c5.9-0.4,6.5-1,6.5-8.8V12.9c0-7.8-0.6-8.3-6.2-8.8v-2H215.5z M209.9,26h2.8c2.9,0,5-0.4,6.9-1.9c2.9-2.3,4-5.7,4-9.2
				c0-7.5-5.3-10.1-10-10.1c-3.5,0-3.7,0.3-3.7,2.6V26z M50.1,22.1C50.7,10.5,56.6,4,64,4c8.7,0,14.5,6.5,15.7,18.3
				c4,1.5,7.2,5.5,8.6,10.8c0.8-2.6,1.2-5.4,1.2-8.4c0-14-10.5-23.6-23.3-23.6C49,1.1,40.5,14.5,40.5,26.3c0,2.1,0.2,4,0.7,5.9
				C42.7,27.1,46,23.3,50.1,22.1z"/>
		</defs>
		<clipPath id="SVGID_4_">
			<use xlink:href="#SVGID_3_"  style="overflow:visible;"/>
		</clipPath>
		<g class="st4">
			<rect x="-8.4" y="-4.9" class="st5" width="253.8" height="63.5"/>
			<g>
				<polygon class="st6" points="74,58.6 99.2,-4.9 89.1,-4.9 71.6,58.6 				"/>
				<polygon class="st6" points="69.3,58.6 79.6,-4.9 70.3,-4.9 67,58.6 				"/>
				<polygon class="st6" points="55.1,58.6 21.2,-4.9 8.7,-4.9 52,58.6 				"/>
				<polygon class="st6" points="100,58.6 204.9,-4.9 176,-4.9 92.9,58.6 				"/>
				<polygon class="st6" points="38.8,58.6 -8.4,22.8 -8.4,34.6 31.6,58.6 				"/>
				<polygon class="st6" points="48.5,58.6 -5.7,-4.9 -8.4,-4.9 -8.4,8.9 44.2,58.6 				"/>
				<polygon class="st6" points="87.5,58.6 154.3,-4.9 137.1,-4.9 83.2,58.6 				"/>
				<path class="st6" d="M230.6,2.5L110.1,58.6h16.3l111.5-37.8C235.8,14.6,233.3,8.5,230.6,2.5z"/>
				<polygon class="st6" points="64.7,58.6 61.2,-4.9 52,-4.9 62.4,58.6 				"/>
				<path class="st6" d="M158.3,58.6h87.1v-7c-0.6-4-1.3-7.9-2.2-11.8L158.3,58.6z"/>
				<polygon class="st6" points="60.1,58.6 42.4,-4.9 32.3,-4.9 57.7,58.6 				"/>
				<polygon class="st6" points="79.7,58.6 122.7,-4.9 110.3,-4.9 76.7,58.6 				"/>
				<polygon class="st6" points="4.8,58.6 21.3,58.6 -8.4,44.9 -8.4,54.2 				"/>
			</g>
		</g>
	</g>
	<g>
		<path class="st3" d="M129,68.7c0,3.6-2.7,5.9-6,5.9c-3.5,0-5.8-2.5-5.8-5.5c0-2.7,2-5.9,6.2-5.9C126.4,63.2,129,65.5,129,68.7z
			 M119.4,68.6c0,3,1.4,5.4,3.9,5.4c1.9,0,3.3-1.5,3.3-4.6c0-3.5-1.5-5.4-3.9-5.4C120.9,63.9,119.4,65.6,119.4,68.6z"/>
		<path class="st3" d="M138.4,63.5c0,0.3,0.1,1.5,0.2,2.5l-0.5,0.1c-0.2-0.8-0.4-1.2-0.7-1.5c-0.3-0.3-0.9-0.4-2-0.4h-0.9
			c-0.7,0-0.7,0-0.7,0.6v3.7h1.8c1.5,0,1.6-0.1,1.7-1.3h0.6v3.4h-0.6c-0.2-1.3-0.2-1.3-1.7-1.3h-1.8v2.6c0,1.8,0.1,1.9,1.8,2v0.5
			h-5.2v-0.5c1.3-0.1,1.5-0.2,1.5-2V66c0-1.8-0.1-1.9-1.5-2v-0.5H138.4z"/>
		<path class="st3" d="M105.1,81.5c0.1-1.1,0.2-2.2,0.2-3.1h0.3c0.2,0.4,0.4,0.4,0.9,0.4h7.3c0.5,0,0.6-0.1,0.9-0.4h0.3
			c0,0.7,0.1,2,0.2,3l-0.5,0c-0.2-0.9-0.4-1.3-0.7-1.6c-0.3-0.3-0.9-0.4-2-0.4h-0.9v7.7c0,1.8,0.1,1.9,1.8,2v0.5h-5.5v-0.5
			c1.6-0.1,1.7-0.2,1.7-2v-7.7h-0.6c-1.5,0-2,0.2-2.3,0.5c-0.2,0.2-0.4,0.7-0.6,1.5H105.1z"/>
		<path class="st3" d="M121.2,78.9v0.5c-1.3,0.1-1.5,0.2-1.5,2v2.2h5.4v-2.2c0-1.8-0.1-1.9-1.5-2v-0.5h5.1v0.5
			c-1.4,0.1-1.6,0.2-1.6,2v5.8c0,1.8,0.1,1.9,1.5,2v0.5h-5.2v-0.5c1.5-0.1,1.6-0.2,1.6-2v-2.8h-5.4v2.8c0,1.8,0.1,1.9,1.5,2v0.5
			h-5.1v-0.5c1.4-0.1,1.6-0.2,1.6-2v-5.8c0-1.8-0.1-1.9-1.6-2v-0.5H121.2z"/>
		<path class="st3" d="M138,78.9c0,0.3,0.1,1.5,0.2,2.5l-0.5,0c-0.2-0.8-0.4-1.3-0.7-1.5c-0.3-0.3-0.9-0.4-2-0.4h-0.9
			c-0.7,0-0.7,0-0.7,0.6v3.5h1.5c1.5,0,1.6-0.1,1.7-1.4h0.6v3.5h-0.6c-0.2-1.3-0.2-1.4-1.7-1.4h-1.5v2.7c0,1,0.1,1.4,0.4,1.7
			c0.3,0.2,1,0.2,1.7,0.2c0.9,0,1.7-0.1,2.1-0.5c0.3-0.3,0.6-0.9,0.9-1.7L139,87c-0.1,0.6-0.5,2.3-0.6,2.7h-8.7v-0.5
			c1.5-0.1,1.7-0.2,1.7-2v-5.8c0-1.8-0.1-1.9-1.5-2v-0.5H138z"/>
	</g>
</g>
<g>
	<path class="st3" d="M6.2,138.3c0.7,0.4,1.6,0.7,2.7,0.7c1.5,0,2.4-0.8,2.4-2c0-1.1-0.6-1.7-2.2-2.3c-1.9-0.7-3-1.6-3-3.2
		c0-1.8,1.5-3.1,3.7-3.1c1.2,0,2,0.3,2.5,0.6l-0.4,1.2c-0.4-0.2-1.1-0.5-2.2-0.5c-1.6,0-2.2,0.9-2.2,1.7c0,1.1,0.7,1.6,2.3,2.2
		c1.9,0.7,2.9,1.7,2.9,3.4c0,1.8-1.3,3.3-4,3.3c-1.1,0-2.3-0.3-2.9-0.7L6.2,138.3z"/>
	<path class="st3" d="M19.3,140.1l-0.1-1h-0.1c-0.5,0.6-1.3,1.2-2.5,1.2c-1.7,0-2.5-1.2-2.5-2.4c0-2,1.8-3.1,4.9-3.1v-0.2
		c0-0.7-0.2-1.9-1.9-1.9c-0.8,0-1.6,0.2-2.1,0.6l-0.3-1c0.7-0.4,1.7-0.7,2.7-0.7c2.5,0,3.1,1.7,3.1,3.4v3.1c0,0.7,0,1.4,0.1,2H19.3z
		 M19.1,135.9c-1.6,0-3.5,0.3-3.5,1.9c0,1,0.6,1.4,1.4,1.4c1.1,0,1.8-0.7,2-1.4c0.1-0.2,0.1-0.3,0.1-0.5V135.9z"/>
	<path class="st3" d="M24.7,129.5v2.4h2.1v1.1h-2.1v4.4c0,1,0.3,1.6,1.1,1.6c0.4,0,0.7-0.1,0.9-0.1l0.1,1.1
		c-0.3,0.1-0.7,0.2-1.3,0.2c-0.7,0-1.3-0.2-1.6-0.6c-0.4-0.4-0.6-1.2-0.6-2.1V133H22v-1.1h1.3v-2L24.7,129.5z"/>
	<path class="st3" d="M35.4,137.8c0,0.9,0,1.6,0.1,2.2h-1.3l-0.1-1.3h0c-0.4,0.7-1.3,1.5-2.7,1.5c-1.3,0-2.8-0.7-2.8-3.6v-4.8H30
		v4.6c0,1.6,0.5,2.6,1.8,2.6c1,0,1.7-0.7,2-1.4c0.1-0.2,0.1-0.5,0.1-0.8v-5h1.5V137.8z"/>
	<path class="st3" d="M37.9,134.4c0-1,0-1.8-0.1-2.6h1.3l0.1,1.6h0.1c0.4-1.1,1.3-1.8,2.3-1.8c0.2,0,0.3,0,0.4,0.1v1.4
		c-0.2,0-0.3-0.1-0.5-0.1c-1.1,0-1.8,0.8-2,1.9c0,0.2-0.1,0.4-0.1,0.7v4.4h-1.5V134.4z"/>
	<path class="st3" d="M50.4,128v9.9c0,0.7,0,1.6,0.1,2.1h-1.3l-0.1-1.4h0c-0.5,0.9-1.5,1.6-2.8,1.6c-2,0-3.5-1.7-3.5-4.2
		c0-2.7,1.7-4.4,3.7-4.4c1.3,0,2.1,0.6,2.5,1.3h0V128H50.4z M48.9,135.2c0-0.2,0-0.4-0.1-0.6c-0.2-1-1-1.7-2.2-1.7
		c-1.5,0-2.5,1.4-2.5,3.2c0,1.7,0.8,3,2.4,3c1,0,1.9-0.7,2.2-1.8c0.1-0.2,0.1-0.4,0.1-0.6V135.2z"/>
	<path class="st3" d="M57.4,140.1l-0.1-1h-0.1c-0.5,0.6-1.3,1.2-2.5,1.2c-1.7,0-2.5-1.2-2.5-2.4c0-2,1.8-3.1,4.9-3.1v-0.2
		c0-0.7-0.2-1.9-1.9-1.9c-0.8,0-1.6,0.2-2.1,0.6l-0.3-1c0.7-0.4,1.7-0.7,2.7-0.7c2.5,0,3.1,1.7,3.1,3.4v3.1c0,0.7,0,1.4,0.1,2H57.4z
		 M57.2,135.9c-1.6,0-3.5,0.3-3.5,1.9c0,1,0.6,1.4,1.4,1.4c1.1,0,1.8-0.7,2-1.4c0.1-0.2,0.1-0.3,0.1-0.5V135.9z"/>
	<path class="st3" d="M61.5,131.9l1.8,4.9c0.2,0.5,0.4,1.2,0.5,1.7h0c0.2-0.5,0.3-1.1,0.5-1.7l1.6-4.8h1.6l-2.2,5.9
		c-1.1,2.8-1.8,4.3-2.8,5.2c-0.7,0.6-1.5,0.9-1.8,1l-0.4-1.3c0.4-0.1,0.9-0.4,1.3-0.7c0.4-0.3,0.9-0.9,1.3-1.7
		c0.1-0.2,0.1-0.3,0.1-0.4s0-0.2-0.1-0.4l-3-7.6H61.5z"/>
	<path class="st3" d="M71.8,136.2c0-0.9,0.7-1.6,1.6-1.6c0.9,0,1.6,0.7,1.6,1.6c0,0.9-0.7,1.6-1.6,1.6
		C72.5,137.7,71.8,137.1,71.8,136.2z"/>
	<path class="st3" d="M100.3,131c-0.1-2.9-0.3-6.3-0.3-9.3h-0.1c-0.7,2.7-1.6,5.7-2.6,8.5l-3.2,9.6h-3.1l-3-9.5
		c-0.9-2.8-1.7-5.9-2.2-8.6h-0.1c-0.1,2.9-0.2,6.4-0.4,9.5l-0.5,8.9h-3.8l1.5-22.2h5.3l2.9,8.9c0.8,2.6,1.5,5.2,2,7.7h0.1
		c0.6-2.4,1.4-5.1,2.2-7.8l3.1-8.9h5.3l1.3,22.2h-4L100.3,131z"/>
	<path class="st3" d="M117.8,140.1l-0.3-1.8h-0.1c-1,1.3-2.7,2.1-4.8,2.1c-3.2,0-5-2.3-5-4.8c0-4.1,3.6-6.1,9.5-6.1v-0.3
		c0-1.1-0.4-2.8-3.3-2.8c-1.6,0-3.2,0.5-4.3,1.2l-0.8-2.6c1.2-0.7,3.3-1.4,5.8-1.4c5.1,0,6.6,3.3,6.6,6.8v5.8c0,1.5,0.1,2.9,0.2,3.9
		H117.8z M117.2,132.2c-2.9-0.1-5.6,0.6-5.6,3c0,1.6,1,2.3,2.3,2.3c1.6,0,2.8-1.1,3.2-2.2c0.1-0.3,0.1-0.6,0.1-0.9V132.2z"/>
	<path class="st3" d="M127.7,124l2.9,8.6c0.3,1,0.7,2.2,0.9,3.1h0.1c0.3-0.9,0.6-2.1,0.9-3.2l2.5-8.6h4.4l-4,11
		c-2.2,6-3.7,8.7-5.6,10.3c-1.6,1.4-3.2,1.9-4.3,2.1l-0.9-3.4c0.7-0.2,1.6-0.5,2.4-1.1c0.8-0.5,1.7-1.5,2.2-2.5
		c0.2-0.3,0.3-0.5,0.3-0.7c0-0.2,0-0.4-0.2-0.8l-5.9-14.8H127.7z"/>
	<path class="st3" d="M157.8,121.5c-0.6,0-1.3,0-2.1,0.1c-4.5,0.5-6.7,3.3-7.2,6.3h0.1c1.1-1.2,2.7-2.1,4.8-2.1c3.7,0,6.6,2.6,6.6,7
		c0,4.1-3,7.7-7.6,7.7c-5.2,0-8.1-4-8.1-9.2c0-4.1,1.5-7.5,3.7-9.6c2-1.8,4.6-2.9,7.6-3.2c0.9-0.1,1.6-0.1,2-0.1L157.8,121.5z
		 M155.9,133c0-2.5-1.4-4.3-3.7-4.3c-1.5,0-2.9,0.9-3.5,2.2c-0.2,0.3-0.3,0.7-0.3,1.3c0.1,2.8,1.4,5.1,4,5.1
		C154.5,137.4,155.9,135.6,155.9,133z"/>
	<path class="st3" d="M164.7,136.2c0-0.9,0.7-1.6,1.6-1.6c0.9,0,1.6,0.7,1.6,1.6c0,0.9-0.7,1.6-1.6,1.6
		C165.4,137.7,164.7,137.1,164.7,136.2z"/>
	<path class="st3" d="M176.9,140.1v-3h-5.1v-1l4.9-7.1h1.6v6.9h1.5v1.2h-1.5v3H176.9z M176.9,135.9v-3.7c0-0.6,0-1.2,0.1-1.7h-0.1
		c-0.3,0.6-0.6,1.1-0.9,1.6l-2.7,3.8v0H176.9z"/>
	<path class="st3" d="M186.9,129.5v2.4h2.1v1.1h-2.1v4.4c0,1,0.3,1.6,1.1,1.6c0.4,0,0.7-0.1,0.9-0.1l0.1,1.1
		c-0.3,0.1-0.7,0.2-1.3,0.2c-0.7,0-1.3-0.2-1.6-0.6c-0.4-0.4-0.6-1.2-0.6-2.1V133h-1.3v-1.1h1.3v-2L186.9,129.5z"/>
	<path class="st3" d="M198.1,135.9c0,3-2.1,4.4-4.1,4.4c-2.2,0-3.9-1.6-3.9-4.2c0-2.8,1.8-4.4,4.1-4.4
		C196.5,131.7,198.1,133.4,198.1,135.9z M191.6,136c0,1.8,1,3.2,2.5,3.2c1.4,0,2.5-1.3,2.5-3.2c0-1.4-0.7-3.2-2.5-3.2
		C192.3,132.8,191.6,134.4,191.6,136z"/>
	<path class="st3" d="M210.3,129v1l-4.8,10.1h-1.5l4.8-9.8v0h-5.4V129H210.3z"/>
	<path class="st3" d="M212.3,134.5c0-1.1,0-1.9-0.1-2.7h1.3l0.1,1.4h0c0.6-1,1.6-1.6,2.9-1.6c2,0,3.5,1.7,3.5,4.2
		c0,3-1.8,4.4-3.7,4.4c-1.1,0-2-0.5-2.5-1.3h0v4.5h-1.5V134.5z M213.8,136.7c0,0.2,0,0.4,0.1,0.6c0.3,1,1.2,1.8,2.2,1.8
		c1.6,0,2.5-1.3,2.5-3.2c0-1.6-0.9-3.1-2.4-3.1c-1,0-2,0.7-2.3,1.9c-0.1,0.2-0.1,0.4-0.1,0.6V136.7z"/>
	<path class="st3" d="M222,134.1c0-0.9,0-1.5-0.1-2.2h1.3l0.1,1.3h0.1c0.5-0.8,1.2-1.5,2.6-1.5c1.1,0,2,0.7,2.3,1.6h0
		c0.3-0.5,0.6-0.8,0.9-1.1c0.5-0.4,1-0.6,1.8-0.6c1.1,0,2.7,0.7,2.7,3.6v4.8h-1.5v-4.7c0-1.6-0.6-2.5-1.8-2.5
		c-0.8,0-1.5,0.6-1.8,1.4c-0.1,0.2-0.1,0.5-0.1,0.7v5.1h-1.5v-4.9c0-1.3-0.6-2.3-1.7-2.3c-0.9,0-1.6,0.7-1.9,1.5
		c-0.1,0.2-0.1,0.5-0.1,0.7v5H222V134.1z"/>
	<path class="st3" d="M50.2,159.8h-3.5v-1.9h9.2v1.9h-3.5v10.3h-2.2V159.8z"/>
	<path class="st3" d="M61,170.1l-0.1-1h-0.1c-0.5,0.7-1.5,1.2-2.6,1.2c-1.8,0-2.8-1.3-2.8-2.6c0-2.2,2-3.3,5.2-3.3v-0.1
		c0-0.6-0.2-1.5-1.8-1.5c-0.9,0-1.8,0.3-2.4,0.6l-0.4-1.4c0.6-0.4,1.8-0.8,3.2-0.8c2.8,0,3.6,1.8,3.6,3.7v3.2c0,0.8,0,1.6,0.1,2.1
		H61z M60.7,165.8c-1.6,0-3.1,0.3-3.1,1.6c0,0.9,0.6,1.3,1.3,1.3c0.9,0,1.5-0.6,1.7-1.2c0.1-0.2,0.1-0.3,0.1-0.5V165.8z"/>
	<path class="st3" d="M71.7,169.8c-0.5,0.2-1.4,0.5-2.5,0.5c-2.7,0-4.5-1.7-4.5-4.5c0-2.6,1.8-4.7,4.9-4.7c0.8,0,1.6,0.2,2.1,0.4
		l-0.4,1.7c-0.4-0.2-0.9-0.3-1.7-0.3c-1.7,0-2.7,1.2-2.7,2.8c0,1.8,1.2,2.8,2.7,2.8c0.8,0,1.3-0.2,1.7-0.3L71.7,169.8z"/>
	<path class="st3" d="M81.5,165.6c0,3.2-2.3,4.7-4.5,4.7c-2.5,0-4.4-1.7-4.4-4.5c0-2.9,1.9-4.6,4.5-4.6
		C79.7,161.1,81.5,163,81.5,165.6z M74.9,165.7c0,1.7,0.8,3,2.2,3c1.3,0,2.1-1.2,2.1-3c0-1.4-0.6-2.9-2.1-2.9
		C75.5,162.7,74.9,164.2,74.9,165.7z"/>
	<path class="st3" d="M83.3,163.9c0-1,0-1.9-0.1-2.6h1.9l0.1,1.3h0.1c0.4-0.7,1.2-1.5,2.7-1.5c1.2,0,2.1,0.6,2.4,1.6h0
		c0.3-0.5,0.7-0.8,1.1-1.1c0.5-0.3,1-0.5,1.8-0.5c1.5,0,2.9,1,2.9,3.8v5.2h-2.2v-4.8c0-1.5-0.5-2.3-1.6-2.3c-0.8,0-1.3,0.5-1.5,1.2
		c-0.1,0.2-0.1,0.5-0.1,0.7v5.3h-2.2V165c0-1.2-0.5-2.1-1.5-2.1c-0.8,0-1.4,0.6-1.6,1.3c-0.1,0.2-0.1,0.5-0.1,0.7v5.2h-2.2V163.9z"
		/>
	<path class="st3" d="M103.5,170.1l-0.1-1h-0.1c-0.5,0.7-1.5,1.2-2.6,1.2c-1.8,0-2.8-1.3-2.8-2.6c0-2.2,2-3.3,5.2-3.3v-0.1
		c0-0.6-0.2-1.5-1.8-1.5c-0.9,0-1.8,0.3-2.4,0.6l-0.4-1.4c0.6-0.4,1.8-0.8,3.2-0.8c2.8,0,3.6,1.8,3.6,3.7v3.2c0,0.8,0,1.6,0.1,2.1
		H103.5z M103.2,165.8c-1.6,0-3.1,0.3-3.1,1.6c0,0.9,0.6,1.3,1.3,1.3c0.9,0,1.5-0.6,1.7-1.2c0.1-0.2,0.1-0.3,0.1-0.5V165.8z"/>
	<path class="st3" d="M118.3,164.7h-4.6v3.6h5.1v1.8h-7.3v-12.1h7.1v1.8h-4.8v3.1h4.6V164.7z"/>
	<path class="st3" d="M120.7,157.3h2.2v12.8h-2.2V157.3z"/>
	<path class="st3" d="M127.5,165.2L127.5,165.2c0.3-0.3,0.5-0.7,0.7-1l2.1-2.8h2.7l-3.2,3.6l3.7,5.2h-2.7l-2.5-3.9l-0.8,0.9v3h-2.2
		v-12.8h2.2V165.2z"/>
	<path class="st3" d="M134.4,168c0.5,0.3,1.5,0.6,2.3,0.6c1,0,1.4-0.4,1.4-1c0-0.6-0.4-0.9-1.4-1.3c-1.7-0.6-2.4-1.5-2.4-2.6
		c0-1.5,1.3-2.8,3.3-2.8c1,0,1.8,0.3,2.3,0.5l-0.4,1.6c-0.4-0.2-1.1-0.5-1.9-0.5c-0.8,0-1.2,0.4-1.2,0.9c0,0.6,0.4,0.8,1.5,1.2
		c1.6,0.6,2.3,1.4,2.3,2.7c0,1.6-1.2,2.7-3.6,2.7c-1.1,0-2-0.3-2.7-0.6L134.4,168z"/>
	<path class="st3" d="M145.8,157.9h2.2v10.3h5v1.9h-7.2V157.9z"/>
	<path class="st3" d="M162.7,165.6c0,3.2-2.3,4.7-4.5,4.7c-2.5,0-4.4-1.7-4.4-4.5c0-2.9,1.9-4.6,4.5-4.6
		C161,161.1,162.7,163,162.7,165.6z M156.1,165.7c0,1.7,0.8,3,2.2,3c1.3,0,2.1-1.2,2.1-3c0-1.4-0.6-2.9-2.1-2.9
		C156.7,162.7,156.1,164.2,156.1,165.7z"/>
	<path class="st3" d="M172.6,157.3v10.3c0,0.9,0,1.9,0.1,2.5h-2l-0.1-1.4h0c-0.5,1-1.6,1.6-2.9,1.6c-2.1,0-3.7-1.8-3.7-4.5
		c0-2.9,1.8-4.7,3.9-4.7c1.2,0,2.1,0.5,2.5,1.2h0v-5H172.6z M170.4,165c0-0.2,0-0.4-0.1-0.6c-0.2-0.9-0.9-1.6-1.9-1.6
		c-1.4,0-2.2,1.3-2.2,2.9c0,1.6,0.8,2.8,2.2,2.8c0.9,0,1.7-0.6,1.9-1.6c0.1-0.2,0.1-0.4,0.1-0.6V165z"/>
	<path class="st3" d="M183,161.3c0,0.6-0.1,1.3-0.1,2.5v5c0,1.8-0.4,3.2-1.3,4c-0.9,0.8-2.2,1.1-3.4,1.1c-1.1,0-2.3-0.2-3.1-0.7
		l0.5-1.7c0.6,0.3,1.5,0.7,2.6,0.7c1.4,0,2.5-0.8,2.5-2.6v-0.8h0c-0.5,0.8-1.4,1.3-2.6,1.3c-2.2,0-3.7-1.8-3.7-4.3
		c0-2.9,1.9-4.6,4-4.6c1.3,0,2.1,0.6,2.5,1.4h0l0.1-1.2H183z M180.7,164.8c0-0.2,0-0.4-0.1-0.6c-0.2-0.8-0.9-1.4-1.8-1.4
		c-1.2,0-2.2,1.1-2.2,2.9c0,1.5,0.8,2.7,2.1,2.7c0.8,0,1.5-0.5,1.8-1.3c0.1-0.2,0.1-0.5,0.1-0.8V164.8z"/>
	<path class="st3" d="M186.9,166.3c0.1,1.6,1.3,2.3,2.7,2.3c1,0,1.8-0.1,2.4-0.4l0.3,1.5c-0.8,0.3-1.8,0.5-3.1,0.5
		c-2.8,0-4.5-1.7-4.5-4.4c0-2.4,1.5-4.7,4.3-4.7c2.8,0,3.8,2.3,3.8,4.3c0,0.4,0,0.7-0.1,0.9H186.9z M190.7,164.8
		c0-0.8-0.3-2.1-1.8-2.1c-1.4,0-1.9,1.2-2,2.1H190.7z"/>
	<path class="st7" d="M16.4,188.1v-0.7l0.9-0.9c2.2-2.1,3.1-3.1,3.1-4.4c0-0.9-0.4-1.7-1.7-1.7c-0.8,0-1.4,0.4-1.8,0.7l-0.4-0.8
		c0.6-0.5,1.4-0.9,2.4-0.9c1.8,0,2.6,1.2,2.6,2.5c0,1.6-1.1,2.8-2.9,4.5l-0.7,0.6v0h3.8v0.9H16.4z"/>
	<path class="st7" d="M28.7,183.8c0,2.9-1.1,4.5-2.9,4.5c-1.7,0-2.8-1.5-2.8-4.3c0-2.8,1.2-4.4,2.9-4.4
		C27.7,179.5,28.7,181.1,28.7,183.8z M24.1,183.9c0,2.2,0.7,3.4,1.7,3.4c1.2,0,1.7-1.4,1.7-3.5c0-2.1-0.5-3.4-1.7-3.4
		C24.8,180.4,24.1,181.6,24.1,183.9z"/>
	<path class="st7" d="M32.2,180.7L32.2,180.7l-1.5,0.8l-0.2-0.9l1.8-1h1v8.5h-1.1V180.7z"/>
	<path class="st7" d="M39.4,186.7c0.5,0.3,1.2,0.6,2,0.6c1.2,0,1.8-0.6,1.8-1.5c0-0.8-0.5-1.3-1.7-1.7c-1.4-0.5-2.3-1.2-2.3-2.5
		c0-1.4,1.1-2.4,2.8-2.4c0.9,0,1.5,0.2,1.9,0.4l-0.3,0.9c-0.3-0.2-0.9-0.4-1.7-0.4c-1.2,0-1.7,0.7-1.7,1.3c0,0.8,0.5,1.2,1.7,1.7
		c1.5,0.6,2.2,1.3,2.2,2.6c0,1.4-1,2.5-3.1,2.5c-0.8,0-1.8-0.2-2.2-0.6L39.4,186.7z"/>
	<path class="st7" d="M45.7,187.4c0-0.5,0.3-0.8,0.8-0.8s0.8,0.3,0.8,0.8c0,0.5-0.3,0.8-0.8,0.8C46,188.2,45.7,187.9,45.7,187.4z"/>
	<path class="st7" d="M57.5,187.8c-0.4,0.2-1.2,0.4-2.3,0.4c-2.5,0-4.3-1.6-4.3-4.4c0-2.7,1.9-4.6,4.6-4.6c1.1,0,1.8,0.2,2.1,0.4
		l-0.3,0.9c-0.4-0.2-1-0.4-1.8-0.4c-2.1,0-3.4,1.3-3.4,3.6c0,2.1,1.2,3.5,3.4,3.5c0.7,0,1.4-0.1,1.8-0.4L57.5,187.8z"/>
	<path class="st7" d="M59.4,185.1c0,1.5,1,2.2,2.2,2.2c0.8,0,1.3-0.1,1.7-0.3l0.2,0.8c-0.4,0.2-1.1,0.4-2.1,0.4
		c-1.9,0-3.1-1.3-3.1-3.2c0-1.9,1.1-3.4,3-3.4c2.1,0,2.6,1.8,2.6,3c0,0.2,0,0.4,0,0.5H59.4z M62.8,184.3c0-0.7-0.3-1.9-1.6-1.9
		c-1.2,0-1.7,1.1-1.8,1.9H62.8z"/>
	<path class="st7" d="M70.7,178.9v7.6c0,0.6,0,1.2,0.1,1.6h-1l-0.1-1.1h0c-0.4,0.7-1.1,1.2-2.1,1.2c-1.5,0-2.7-1.3-2.7-3.2
		c0-2.1,1.3-3.4,2.8-3.4c1,0,1.6,0.5,1.9,1h0v-3.8H70.7z M69.6,184.4c0-0.1,0-0.3-0.1-0.5c-0.2-0.7-0.8-1.3-1.7-1.3
		c-1.2,0-1.9,1-1.9,2.4c0,1.3,0.6,2.3,1.9,2.3c0.8,0,1.5-0.5,1.7-1.4c0-0.2,0.1-0.3,0.1-0.5V184.4z"/>
	<path class="st7" d="M76.1,188.1l-0.1-0.8h0c-0.4,0.5-1,0.9-1.9,0.9c-1.3,0-1.9-0.9-1.9-1.8c0-1.5,1.4-2.4,3.8-2.3v-0.1
		c0-0.5-0.1-1.5-1.4-1.5c-0.6,0-1.2,0.2-1.6,0.5l-0.3-0.8c0.5-0.3,1.3-0.6,2.1-0.6c1.9,0,2.4,1.3,2.4,2.6v2.4c0,0.5,0,1.1,0.1,1.5
		H76.1z M75.9,184.9c-1.2,0-2.7,0.2-2.7,1.4c0,0.7,0.5,1.1,1.1,1.1c0.8,0,1.3-0.5,1.5-1.1c0-0.1,0.1-0.2,0.1-0.4V184.9z"/>
	<path class="st7" d="M78.9,183.8c0-0.7,0-1.4-0.1-2h1l0,1.2h0.1c0.3-0.8,1-1.4,1.7-1.4c0.1,0,0.2,0,0.3,0v1.1c-0.1,0-0.2,0-0.4,0
		c-0.8,0-1.4,0.6-1.5,1.5c0,0.2-0.1,0.3-0.1,0.5v3.4h-1.1V183.8z"/>
	<path class="st7" d="M85.8,186.7c0.5,0.3,1.2,0.6,2,0.6c1.2,0,1.8-0.6,1.8-1.5c0-0.8-0.5-1.3-1.7-1.7c-1.4-0.5-2.3-1.2-2.3-2.5
		c0-1.4,1.1-2.4,2.8-2.4c0.9,0,1.5,0.2,1.9,0.4l-0.3,0.9c-0.3-0.2-0.9-0.4-1.7-0.4c-1.2,0-1.7,0.7-1.7,1.3c0,0.8,0.5,1.2,1.7,1.7
		c1.5,0.6,2.2,1.3,2.2,2.6c0,1.4-1,2.5-3.1,2.5c-0.8,0-1.8-0.2-2.2-0.6L85.8,186.7z"/>
	<path class="st7" d="M93.6,180v1.8h1.6v0.9h-1.6v3.4c0,0.8,0.2,1.2,0.9,1.2c0.3,0,0.5,0,0.7-0.1l0.1,0.9c-0.2,0.1-0.6,0.2-1,0.2
		c-0.5,0-1-0.2-1.2-0.5c-0.3-0.3-0.4-0.9-0.4-1.6v-3.4h-1v-0.9h1v-1.5L93.6,180z"/>
	<path class="st7" d="M96.6,183.8c0-0.7,0-1.4-0.1-2h1l0,1.2h0.1c0.3-0.8,1-1.4,1.7-1.4c0.1,0,0.2,0,0.3,0v1.1c-0.1,0-0.2,0-0.4,0
		c-0.8,0-1.4,0.6-1.5,1.5c0,0.2-0.1,0.3-0.1,0.5v3.4h-1.1V183.8z"/>
	<path class="st7" d="M101.3,185.1c0,1.5,1,2.2,2.2,2.2c0.8,0,1.3-0.1,1.7-0.3l0.2,0.8c-0.4,0.2-1.1,0.4-2.1,0.4
		c-1.9,0-3.1-1.3-3.1-3.2c0-1.9,1.1-3.4,3-3.4c2.1,0,2.6,1.8,2.6,3c0,0.2,0,0.4,0,0.5H101.3z M104.7,184.3c0-0.7-0.3-1.9-1.6-1.9
		c-1.2,0-1.7,1.1-1.8,1.9H104.7z"/>
	<path class="st7" d="M107.8,185.1c0,1.5,1,2.2,2.2,2.2c0.8,0,1.3-0.1,1.7-0.3l0.2,0.8c-0.4,0.2-1.1,0.4-2.1,0.4
		c-1.9,0-3.1-1.3-3.1-3.2c0-1.9,1.1-3.4,3-3.4c2.1,0,2.6,1.8,2.6,3c0,0.2,0,0.4,0,0.5H107.8z M111.2,184.3c0-0.7-0.3-1.9-1.6-1.9
		c-1.2,0-1.7,1.1-1.8,1.9H111.2z"/>
	<path class="st7" d="M115.1,180v1.8h1.6v0.9h-1.6v3.4c0,0.8,0.2,1.2,0.9,1.2c0.3,0,0.5,0,0.7-0.1l0.1,0.9c-0.2,0.1-0.6,0.2-1,0.2
		c-0.5,0-1-0.2-1.2-0.5c-0.3-0.3-0.4-0.9-0.4-1.6v-3.4h-1v-0.9h1v-1.5L115.1,180z"/>
	<path class="st7" d="M120.3,184.7c0-0.8,0.6-1.4,1.4-1.4c0.8,0,1.4,0.6,1.4,1.4c0,0.8-0.6,1.4-1.4,1.4
		C120.9,186,120.3,185.5,120.3,184.7z"/>
	<path class="st7" d="M128.4,180.3h-2.7v-1h6.5v1h-2.7v7.8h-1.1V180.3z"/>
	<path class="st7" d="M135.8,188.1l-0.1-0.8h0c-0.4,0.5-1,0.9-1.9,0.9c-1.3,0-1.9-0.9-1.9-1.8c0-1.5,1.4-2.4,3.8-2.3v-0.1
		c0-0.5-0.1-1.5-1.4-1.5c-0.6,0-1.2,0.2-1.6,0.5l-0.3-0.8c0.5-0.3,1.3-0.6,2.1-0.6c1.9,0,2.4,1.3,2.4,2.6v2.4c0,0.5,0,1.1,0.1,1.5
		H135.8z M135.6,184.9c-1.2,0-2.7,0.2-2.7,1.4c0,0.7,0.5,1.1,1.1,1.1c0.8,0,1.3-0.5,1.5-1.1c0-0.1,0.1-0.2,0.1-0.4V184.9z"/>
	<path class="st7" d="M143,187.8c-0.3,0.2-1,0.4-1.8,0.4c-1.9,0-3.1-1.3-3.1-3.2c0-1.9,1.3-3.3,3.4-3.3c0.7,0,1.3,0.2,1.6,0.3
		l-0.3,0.9c-0.3-0.2-0.7-0.3-1.3-0.3c-1.4,0-2.2,1.1-2.2,2.4c0,1.5,0.9,2.4,2.2,2.4c0.7,0,1.1-0.2,1.4-0.3L143,187.8z"/>
	<path class="st7" d="M150,184.9c0,2.3-1.6,3.3-3.1,3.3c-1.7,0-3-1.2-3-3.2c0-2.1,1.4-3.3,3.1-3.3C148.8,181.6,150,183,150,184.9z
		 M145,185c0,1.4,0.8,2.4,1.9,2.4c1.1,0,1.9-1,1.9-2.4c0-1.1-0.5-2.4-1.9-2.4C145.6,182.5,145,183.8,145,185z"/>
	<path class="st7" d="M151.4,183.5c0-0.7,0-1.2-0.1-1.7h1l0.1,1h0c0.4-0.6,0.9-1.2,2-1.2c0.9,0,1.5,0.5,1.8,1.3h0
		c0.2-0.4,0.4-0.6,0.7-0.8c0.4-0.3,0.8-0.4,1.4-0.4c0.8,0,2.1,0.5,2.1,2.7v3.7h-1.1v-3.6c0-1.2-0.4-1.9-1.4-1.9
		c-0.6,0-1.2,0.5-1.4,1c-0.1,0.2-0.1,0.4-0.1,0.6v3.9h-1.1v-3.8c0-1-0.4-1.7-1.3-1.7c-0.7,0-1.2,0.6-1.4,1.1
		c-0.1,0.2-0.1,0.4-0.1,0.6v3.8h-1.1V183.5z"/>
	<path class="st7" d="M165.8,188.1l-0.1-0.8h0c-0.4,0.5-1,0.9-1.9,0.9c-1.3,0-1.9-0.9-1.9-1.8c0-1.5,1.4-2.4,3.8-2.3v-0.1
		c0-0.5-0.1-1.5-1.4-1.5c-0.6,0-1.2,0.2-1.6,0.5l-0.3-0.8c0.5-0.3,1.3-0.6,2.1-0.6c1.9,0,2.4,1.3,2.4,2.6v2.4c0,0.5,0,1.1,0.1,1.5
		H165.8z M165.6,184.9c-1.2,0-2.7,0.2-2.7,1.4c0,0.7,0.5,1.1,1.1,1.1c0.8,0,1.3-0.5,1.5-1.1c0-0.1,0.1-0.2,0.1-0.4V184.9z"/>
	<path class="st7" d="M172.3,188.1l-2.2-8.8h1.2l1,4.4c0.3,1.1,0.5,2.2,0.6,3h0c0.1-0.9,0.4-1.9,0.7-3l1.2-4.4h1.2l1.1,4.4
		c0.2,1,0.5,2.1,0.6,3h0c0.2-1,0.4-1.9,0.7-3l1.2-4.4h1.2l-2.5,8.8h-1.2l-1.1-4.6c-0.3-1.1-0.5-2-0.6-2.9h0
		c-0.2,0.9-0.4,1.7-0.7,2.9l-1.2,4.6H172.3z"/>
	<path class="st7" d="M182.5,185.3l-0.9,2.8h-1.2l3-8.8h1.4l3,8.8h-1.2l-0.9-2.8H182.5z M185.4,184.4l-0.9-2.5
		c-0.2-0.6-0.3-1.1-0.5-1.6h0c-0.1,0.5-0.3,1.1-0.4,1.6l-0.9,2.5H185.4z"/>
	<path class="st7" d="M192.1,187.3c0.2,0,0.5,0,0.9,0c0.7-0.1,1.3-0.4,1.8-0.8c0.6-0.5,1-1.2,1.1-2.2h0c-0.5,0.6-1.1,0.9-2,0.9
		c-1.5,0-2.5-1.1-2.5-2.6c0-1.6,1.2-3,2.9-3s2.8,1.4,2.8,3.6c0,1.9-0.6,3.2-1.5,4c-0.6,0.6-1.5,1-2.5,1.1c-0.4,0.1-0.8,0.1-1.1,0.1
		V187.3z M192.5,182.4c0,1.1,0.6,1.8,1.6,1.8c0.8,0,1.4-0.4,1.7-0.9c0.1-0.1,0.1-0.2,0.1-0.4c0-1.4-0.5-2.5-1.7-2.5
		C193.2,180.4,192.5,181.2,192.5,182.4z"/>
	<path class="st7" d="M198,185.9c0-1.1,0.6-1.8,1.7-2.3l0,0c-0.9-0.4-1.3-1.2-1.3-1.9c0-1.3,1.1-2.2,2.6-2.2c1.6,0,2.5,1,2.5,2.1
		c0,0.7-0.4,1.5-1.4,2v0c1.1,0.4,1.7,1.2,1.7,2.2c0,1.5-1.3,2.5-2.9,2.5C199.1,188.2,198,187.2,198,185.9z M202.6,185.9
		c0-1-0.7-1.5-1.9-1.8c-1,0.3-1.5,0.9-1.5,1.7c0,0.9,0.6,1.6,1.7,1.6C201.9,187.4,202.6,186.8,202.6,185.9z M199.4,181.7
		c0,0.8,0.6,1.3,1.6,1.6c0.7-0.2,1.3-0.8,1.3-1.5c0-0.7-0.4-1.4-1.4-1.4C199.9,180.3,199.4,180.9,199.4,181.7z"/>
	<path class="st7" d="M208.3,188.1v-2.3h-3.9V185l3.8-5.4h1.2v5.3h1.2v0.9h-1.2v2.3H208.3z M208.3,184.9v-2.8c0-0.4,0-0.9,0-1.3h0
		c-0.3,0.5-0.5,0.9-0.7,1.2l-2.1,2.9v0H208.3z"/>
	<path class="st7" d="M217.1,183.8c0,2.9-1.1,4.5-2.9,4.5c-1.7,0-2.8-1.5-2.8-4.3c0-2.8,1.2-4.4,2.9-4.4
		C216,179.5,217.1,181.1,217.1,183.8z M212.5,183.9c0,2.2,0.7,3.4,1.7,3.4c1.2,0,1.7-1.4,1.7-3.5c0-2.1-0.5-3.4-1.7-3.4
		C213.2,180.4,212.5,181.6,212.5,183.9z"/>
	<path class="st7" d="M223.2,180.6h-3.2l-0.3,2.2c0.2,0,0.4-0.1,0.7-0.1c0.7,0,1.3,0.1,1.8,0.5c0.7,0.4,1.2,1.1,1.2,2.2
		c0,1.7-1.3,2.9-3.1,2.9c-0.9,0-1.7-0.3-2.1-0.5l0.3-0.9c0.4,0.2,1,0.5,1.8,0.5c1.1,0,2-0.7,2-1.8c0-1.1-0.7-1.9-2.4-1.9
		c-0.5,0-0.9,0.1-1.2,0.1l0.5-4.1h4V180.6z"/>
	<path class="st2" d="M-3.2,216.1c0.6,0.3,1.5,0.6,2.4,0.6c1.2,0,1.8-0.6,1.8-1.4c0-0.8-0.5-1.2-1.8-1.7c-1.7-0.6-2.7-1.5-2.7-2.9
		c0-1.7,1.4-2.9,3.6-2.9c1.1,0,1.9,0.2,2.4,0.5l-0.5,1.5c-0.4-0.2-1.1-0.5-2-0.5c-1.2,0-1.7,0.6-1.7,1.2c0,0.8,0.6,1.1,1.9,1.7
		c1.8,0.7,2.6,1.5,2.6,3c0,1.6-1.2,3-3.8,3c-1.1,0-2.2-0.3-2.7-0.6L-3.2,216.1z"/>
	<path class="st2" d="M13.6,212.9c0,3.4-2.1,5.3-4.8,5.3c-2.9,0-4.6-2.2-4.6-5.1c0-3.1,1.9-5.3,4.8-5.3
		C11.8,207.8,13.6,210,13.6,212.9z M6,213.1c0,2.1,1,3.7,2.8,3.7c1.8,0,2.8-1.6,2.8-3.8c0-1.9-0.9-3.7-2.8-3.7
		C7,209.3,6,211,6,213.1z"/>
	<path class="st2" d="M22.4,217.8c-0.4,0.2-1.4,0.5-2.6,0.5c-3.2,0-5.2-2-5.2-5.1c0-3.3,2.3-5.3,5.4-5.3c1.2,0,2.1,0.3,2.5,0.5
		l-0.4,1.5c-0.5-0.2-1.1-0.4-2-0.4c-2.1,0-3.5,1.3-3.5,3.7c0,2.2,1.3,3.6,3.5,3.6c0.8,0,1.5-0.2,2-0.4L22.4,217.8z"/>
	<path class="st2" d="M25.8,208v10.1H24V208H25.8z"/>
	<path class="st2" d="M30,215.2l-0.9,2.9h-1.9l3.2-10.1h2.4l3.3,10.1h-2l-0.9-2.9H30z M32.8,213.8l-0.8-2.5
		c-0.2-0.6-0.4-1.3-0.5-1.9h0c-0.1,0.6-0.3,1.3-0.5,1.9l-0.8,2.5H32.8z"/>
	<path class="st2" d="M37.5,208h1.8v8.6h4.2v1.5h-6V208z"/>
	<path class="st2" d="M49.8,208v4h4.3v-4h1.8v10.1h-1.8v-4.5h-4.3v4.5H48V208H49.8z"/>
	<path class="st2" d="M67,212.9c0,3.4-2.1,5.3-4.8,5.3c-2.9,0-4.6-2.2-4.6-5.1c0-3.1,1.9-5.3,4.8-5.3C65.3,207.8,67,210,67,212.9z
		 M59.5,213.1c0,2.1,1,3.7,2.8,3.7c1.8,0,2.8-1.6,2.8-3.8c0-1.9-0.9-3.7-2.8-3.7C60.4,209.3,59.5,211,59.5,213.1z"/>
	<path class="st2" d="M70.4,208v5.9c0,2,0.8,2.9,2.1,2.9c1.3,0,2.1-0.9,2.1-2.9V208h1.8v5.8c0,3.1-1.6,4.5-4,4.5
		c-2.3,0-3.9-1.3-3.9-4.5V208H70.4z"/>
	<path class="st2" d="M78.6,208.1c0.7-0.1,1.7-0.2,2.8-0.2c1.5,0,2.4,0.2,3.1,0.8c0.6,0.5,0.9,1.2,0.9,2c0,1.3-0.9,2.2-1.8,2.5v0
		c0.7,0.3,1.2,1,1.4,1.9c0.3,1.3,0.6,2.4,0.8,2.8h-1.9c-0.2-0.3-0.4-1.1-0.7-2.4c-0.3-1.3-0.8-1.7-1.8-1.8h-0.9v4.2h-1.8V208.1z
		 M80.4,212.6h1.1c1.2,0,2-0.7,2-1.7c0-1.1-0.8-1.6-2-1.6c-0.6,0-1,0-1.1,0.1V212.6z"/>
	<path class="st2" d="M86.8,212c0-0.7,0.5-1.2,1.1-1.2c0.7,0,1.1,0.5,1.1,1.2c0,0.7-0.5,1.2-1.1,1.2C87.3,213.2,86.8,212.7,86.8,212
		z M86.8,217.1c0-0.7,0.5-1.2,1.1-1.2c0.7,0,1.1,0.5,1.1,1.2c0,0.7-0.5,1.2-1.1,1.2C87.3,218.2,86.8,217.7,86.8,217.1z"/>
	<path class="st3" d="M97.9,218.1l-0.1-0.9h0c-0.4,0.6-1.2,1.1-2.2,1.1c-1.5,0-2.2-1-2.2-2.1c0-1.8,1.6-2.7,4.4-2.7v-0.1
		c0-0.6-0.2-1.7-1.6-1.7c-0.7,0-1.4,0.2-1.9,0.5l-0.3-0.9c0.6-0.4,1.5-0.6,2.4-0.6c2.2,0,2.8,1.5,2.8,3v2.7c0,0.6,0,1.2,0.1,1.7
		H97.9z M97.7,214.4c-1.4,0-3.1,0.2-3.1,1.6c0,0.9,0.6,1.3,1.2,1.3c0.9,0,1.5-0.6,1.8-1.2c0-0.1,0.1-0.3,0.1-0.4V214.4z"/>
	<path class="st3" d="M101.1,213.2c0-0.9,0-1.7-0.1-2.4h1.2l0.1,1.2h0c0.5-0.9,1.4-1.4,2.6-1.4c1.8,0,3.1,1.5,3.1,3.7
		c0,2.6-1.6,3.9-3.3,3.9c-1,0-1.8-0.4-2.2-1.1h0v3.9h-1.3V213.2z M102.4,215.1c0,0.2,0,0.4,0.1,0.5c0.2,0.9,1,1.5,2,1.5
		c1.4,0,2.2-1.1,2.2-2.8c0-1.5-0.8-2.7-2.2-2.7c-0.9,0-1.7,0.6-2,1.6c0,0.2-0.1,0.4-0.1,0.5V215.1z"/>
	<path class="st3" d="M109.6,213.2c0-0.9,0-1.7-0.1-2.4h1.2l0.1,1.2h0c0.5-0.9,1.4-1.4,2.6-1.4c1.8,0,3.1,1.5,3.1,3.7
		c0,2.6-1.6,3.9-3.3,3.9c-1,0-1.8-0.4-2.2-1.1h0v3.9h-1.3V213.2z M111,215.1c0,0.2,0,0.4,0.1,0.5c0.2,0.9,1,1.5,2,1.5
		c1.4,0,2.2-1.1,2.2-2.8c0-1.5-0.8-2.7-2.2-2.7c-0.9,0-1.7,0.6-2,1.6c0,0.2-0.1,0.4-0.1,0.5V215.1z"/>
	<path class="st3" d="M118.9,214.7c0,1.8,1.2,2.5,2.5,2.5c0.9,0,1.5-0.2,2-0.4l0.2,0.9c-0.5,0.2-1.3,0.5-2.4,0.5
		c-2.2,0-3.6-1.5-3.6-3.7c0-2.2,1.3-3.9,3.4-3.9c2.4,0,3,2.1,3,3.4c0,0.3,0,0.5,0,0.6H118.9z M122.8,213.7c0-0.8-0.3-2.1-1.8-2.1
		c-1.3,0-1.9,1.2-2,2.1H122.8z"/>
	<path class="st3" d="M127.3,208.7v2.1h1.9v1h-1.9v3.9c0,0.9,0.3,1.4,1,1.4c0.3,0,0.6,0,0.8-0.1l0.1,1c-0.3,0.1-0.7,0.2-1.2,0.2
		c-0.6,0-1.1-0.2-1.4-0.6c-0.4-0.4-0.5-1-0.5-1.9v-4h-1.1v-1h1.1v-1.7L127.3,208.7z"/>
	<path class="st3" d="M132.1,208.8c0,0.5-0.3,0.8-0.8,0.8c-0.5,0-0.8-0.4-0.8-0.8c0-0.5,0.3-0.8,0.8-0.8
		C131.8,208,132.1,208.3,132.1,208.8z M130.7,218.1v-7.3h1.3v7.3H130.7z"/>
	<path class="st3" d="M133.3,217.3l3.3-4.3c0.3-0.4,0.6-0.7,0.9-1.1v0h-3.9v-1.1h5.5l0,0.8l-3.2,4.2c-0.3,0.4-0.6,0.8-0.9,1.1v0h4.2
		v1h-5.9V217.3z"/>
	<path class="st3" d="M141.2,214.7c0,1.8,1.2,2.5,2.5,2.5c0.9,0,1.5-0.2,2-0.4l0.2,0.9c-0.5,0.2-1.3,0.5-2.4,0.5
		c-2.2,0-3.6-1.5-3.6-3.7c0-2.2,1.3-3.9,3.4-3.9c2.4,0,3,2.1,3,3.4c0,0.3,0,0.5,0,0.6H141.2z M145.1,213.7c0-0.8-0.3-2.1-1.8-2.1
		c-1.3,0-1.9,1.2-2,2.1H145.1z"/>
	<path class="st3" d="M148,213.1c0-0.9,0-1.6-0.1-2.3h1.2l0,1.4h0.1c0.3-1,1.1-1.6,2-1.6c0.2,0,0.3,0,0.4,0v1.2c-0.1,0-0.3,0-0.4,0
		c-0.9,0-1.6,0.7-1.8,1.7c0,0.2-0.1,0.4-0.1,0.6v3.9H148V213.1z"/>
	<path class="st3" d="M152.7,216.7c0.4,0.3,1.1,0.5,1.7,0.5c1,0,1.4-0.5,1.4-1.1c0-0.6-0.4-1-1.4-1.3c-1.3-0.5-1.9-1.2-1.9-2.1
		c0-1.2,0.9-2.1,2.5-2.1c0.7,0,1.4,0.2,1.8,0.5l-0.3,1c-0.3-0.2-0.8-0.4-1.5-0.4c-0.8,0-1.2,0.5-1.2,1c0,0.6,0.4,0.9,1.4,1.2
		c1.3,0.5,1.9,1.1,1.9,2.2c0,1.3-1,2.2-2.7,2.2c-0.8,0-1.5-0.2-2-0.5L152.7,216.7z"/>
	<path class="st3" d="M157.8,219.9c0.3-0.9,0.7-2.5,0.9-3.6l1.5-0.1c-0.3,1.3-1,2.9-1.4,3.6L157.8,219.9z"/>
	<path class="st3" d="M164.9,218.1c0-0.5,0.1-1.2,0.1-1.9v-8.8h1.3v4.6h0c0.5-0.8,1.3-1.3,2.5-1.3c1.8,0,3.1,1.5,3.1,3.7
		c0,2.6-1.6,3.9-3.3,3.9c-1,0-1.9-0.4-2.4-1.4h0l-0.1,1.2H164.9z M166.3,215.2c0,0.2,0,0.3,0.1,0.5c0.3,0.9,1,1.5,2,1.5
		c1.4,0,2.2-1.1,2.2-2.8c0-1.5-0.8-2.7-2.2-2.7c-0.9,0-1.7,0.6-2,1.6c0,0.2-0.1,0.3-0.1,0.5V215.2z"/>
	<path class="st3" d="M174.2,214.7c0,1.8,1.2,2.5,2.5,2.5c0.9,0,1.5-0.2,2-0.4l0.2,0.9c-0.5,0.2-1.3,0.5-2.4,0.5
		c-2.2,0-3.6-1.5-3.6-3.7c0-2.2,1.3-3.9,3.4-3.9c2.4,0,3,2.1,3,3.4c0,0.3,0,0.5,0,0.6H174.2z M178.1,213.7c0-0.8-0.3-2.1-1.8-2.1
		c-1.3,0-1.9,1.2-2,2.1H178.1z"/>
	<path class="st3" d="M181.8,214.7c0,1.8,1.2,2.5,2.5,2.5c0.9,0,1.5-0.2,2-0.4l0.2,0.9c-0.5,0.2-1.3,0.5-2.4,0.5
		c-2.2,0-3.6-1.5-3.6-3.7c0-2.2,1.3-3.9,3.4-3.9c2.4,0,3,2.1,3,3.4c0,0.3,0,0.5,0,0.6H181.8z M185.6,213.7c0-0.8-0.3-2.1-1.8-2.1
		c-1.3,0-1.9,1.2-2,2.1H185.6z"/>
	<path class="st3" d="M188.5,213.1c0-0.9,0-1.6-0.1-2.3h1.2l0,1.4h0.1c0.3-1,1.1-1.6,2-1.6c0.2,0,0.3,0,0.4,0v1.2
		c-0.1,0-0.3,0-0.4,0c-0.9,0-1.6,0.7-1.8,1.7c0,0.2-0.1,0.4-0.1,0.6v3.9h-1.3V213.1z"/>
	<path class="st3" d="M203,218.1c-0.3-0.3-0.6-0.6-0.9-1c-0.9,0.8-1.8,1.2-3,1.2c-2,0-3.1-1.3-3.1-2.8c0-1.4,0.8-2.3,2-3v0
		c-0.5-0.7-0.8-1.4-0.8-2.1c0-1.2,0.9-2.5,2.6-2.5c1.3,0,2.2,0.8,2.2,2.1c0,1.1-0.6,1.9-2.2,2.7v0c0.9,1,1.8,2.1,2.5,2.8
		c0.5-0.7,0.8-1.7,1-3h1.2c-0.3,1.6-0.7,2.8-1.5,3.7c0.5,0.6,1.1,1.1,1.7,1.8H203z M201.4,216.3c-0.6-0.7-1.7-1.9-2.8-3.2
		c-0.5,0.3-1.3,1-1.3,2.1c0,1.2,0.9,2,2.1,2C200.2,217.3,200.9,216.9,201.4,216.3z M198.3,210.2c0,0.7,0.3,1.3,0.8,1.8
		c1-0.6,1.7-1.1,1.7-2c0-0.6-0.3-1.3-1.2-1.3C198.8,208.7,198.3,209.4,198.3,210.2z"/>
	<path class="st3" d="M209.4,210.8l1,3.7c0.2,0.8,0.4,1.6,0.5,2.3h0c0.2-0.7,0.4-1.5,0.6-2.3l1.2-3.7h1.1l1.1,3.6
		c0.3,0.9,0.5,1.6,0.6,2.4h0c0.1-0.7,0.3-1.5,0.6-2.4l1-3.6h1.3l-2.3,7.3h-1.2l-1.1-3.5c-0.3-0.8-0.5-1.5-0.6-2.4h0
		c-0.2,0.9-0.4,1.6-0.7,2.4l-1.2,3.5h-1.2l-2.2-7.3H209.4z"/>
	<path class="st3" d="M221.4,208.8c0,0.5-0.3,0.8-0.8,0.8c-0.5,0-0.8-0.4-0.8-0.8c0-0.5,0.3-0.8,0.8-0.8
		C221.1,208,221.4,208.3,221.4,208.8z M219.9,218.1v-7.3h1.3v7.3H219.9z"/>
	<path class="st3" d="M223.4,212.8c0-0.8,0-1.4-0.1-2h1.2l0.1,1.2h0c0.4-0.7,1.2-1.4,2.4-1.4c1,0,2.6,0.6,2.6,3.1v4.3h-1.3v-4.2
		c0-1.2-0.4-2.1-1.7-2.1c-0.9,0-1.5,0.6-1.8,1.4c-0.1,0.2-0.1,0.4-0.1,0.6v4.4h-1.3V212.8z"/>
	<path class="st3" d="M232.5,214.7c0,1.8,1.2,2.5,2.5,2.5c0.9,0,1.5-0.2,2-0.4l0.2,0.9c-0.5,0.2-1.3,0.5-2.4,0.5
		c-2.2,0-3.6-1.5-3.6-3.7c0-2.2,1.3-3.9,3.4-3.9c2.4,0,3,2.1,3,3.4c0,0.3,0,0.5,0,0.6H232.5z M236.4,213.7c0-0.8-0.3-2.1-1.8-2.1
		c-1.3,0-1.9,1.2-2,2.1H236.4z"/>
	<path class="st3" d="M238.2,219.9c0.3-0.9,0.7-2.5,0.9-3.6l1.5-0.1c-0.3,1.3-1,2.9-1.4,3.6L238.2,219.9z"/>
	<path class="st3" d="M-18.5,224.4v8.8c0,0.6,0,1.4,0.1,1.9h-1.2l-0.1-1.3h0c-0.4,0.8-1.3,1.4-2.5,1.4c-1.8,0-3.1-1.5-3.1-3.7
		c0-2.4,1.5-3.9,3.3-3.9c1.1,0,1.9,0.5,2.2,1.1h0v-4.3H-18.5z M-19.8,230.8c0-0.2,0-0.4-0.1-0.6c-0.2-0.8-0.9-1.5-1.9-1.5
		c-1.4,0-2.2,1.2-2.2,2.8c0,1.5,0.7,2.7,2.1,2.7c0.9,0,1.7-0.6,1.9-1.6c0-0.2,0.1-0.4,0.1-0.6V230.8z"/>
	<path class="st3" d="M-15.6,231.7c0,1.8,1.2,2.5,2.5,2.5c0.9,0,1.5-0.2,2-0.4l0.2,0.9c-0.5,0.2-1.3,0.5-2.4,0.5
		c-2.2,0-3.6-1.5-3.6-3.7c0-2.2,1.3-3.9,3.4-3.9c2.4,0,3,2.1,3,3.4c0,0.3,0,0.5,0,0.6H-15.6z M-11.7,230.7c0-0.8-0.3-2.1-1.8-2.1
		c-1.3,0-1.9,1.2-2,2.1H-11.7z"/>
	<path class="st3" d="M-9,233.7c0.4,0.3,1.1,0.5,1.7,0.5c1,0,1.4-0.5,1.4-1.1c0-0.6-0.4-1-1.4-1.3c-1.3-0.5-1.9-1.2-1.9-2.1
		c0-1.2,0.9-2.1,2.5-2.1c0.7,0,1.4,0.2,1.8,0.5l-0.3,1c-0.3-0.2-0.8-0.4-1.5-0.4c-0.8,0-1.2,0.5-1.2,1c0,0.6,0.4,0.9,1.4,1.2
		c1.3,0.5,1.9,1.1,1.9,2.2c0,1.3-1,2.2-2.7,2.2c-0.8,0-1.5-0.2-2-0.5L-9,233.7z"/>
	<path class="st3" d="M-3.1,233.7c0.4,0.3,1.1,0.5,1.7,0.5c1,0,1.4-0.5,1.4-1.1c0-0.6-0.4-1-1.4-1.3c-1.3-0.5-1.9-1.2-1.9-2.1
		c0-1.2,0.9-2.1,2.5-2.1c0.7,0,1.4,0.2,1.8,0.5l-0.3,1c-0.3-0.2-0.8-0.4-1.5-0.4c-0.8,0-1.2,0.5-1.2,1c0,0.6,0.4,0.9,1.4,1.2
		c1.3,0.5,1.9,1.1,1.9,2.2c0,1.3-1,2.2-2.7,2.2c-0.8,0-1.5-0.2-2-0.5L-3.1,233.7z"/>
	<path class="st3" d="M3.8,231.7c0,1.8,1.2,2.5,2.5,2.5c0.9,0,1.5-0.2,2-0.4l0.2,0.9c-0.5,0.2-1.3,0.5-2.4,0.5
		c-2.2,0-3.6-1.5-3.6-3.7c0-2.2,1.3-3.9,3.4-3.9c2.4,0,3,2.1,3,3.4c0,0.3,0,0.5,0,0.6H3.8z M7.7,230.7c0-0.8-0.3-2.1-1.8-2.1
		c-1.3,0-1.9,1.2-2,2.1H7.7z"/>
	<path class="st3" d="M10.6,230.1c0-0.9,0-1.6-0.1-2.3h1.2l0,1.4h0.1c0.3-1,1.1-1.6,2-1.6c0.1,0,0.3,0,0.4,0v1.2c-0.1,0-0.3,0-0.4,0
		c-0.9,0-1.6,0.7-1.8,1.7c0,0.2-0.1,0.4-0.1,0.6v3.9h-1.3V230.1z"/>
	<path class="st3" d="M17.4,225.7v2.1h1.9v1h-1.9v3.9c0,0.9,0.3,1.4,1,1.4c0.3,0,0.6,0,0.8-0.1l0.1,1c-0.3,0.1-0.7,0.2-1.2,0.2
		c-0.6,0-1.1-0.2-1.4-0.6c-0.4-0.4-0.5-1-0.5-1.9v-4H15v-1h1.1v-1.7L17.4,225.7z"/>
	<path class="st3" d="M30.3,224.4v8.8c0,0.6,0,1.4,0.1,1.9h-1.2l-0.1-1.3h0c-0.4,0.8-1.3,1.4-2.5,1.4c-1.8,0-3.1-1.5-3.1-3.7
		c0-2.4,1.5-3.9,3.3-3.9c1.1,0,1.9,0.5,2.2,1.1h0v-4.3H30.3z M28.9,230.8c0-0.2,0-0.4-0.1-0.6c-0.2-0.8-0.9-1.5-1.9-1.5
		c-1.4,0-2.2,1.2-2.2,2.8c0,1.5,0.7,2.7,2.1,2.7c0.9,0,1.7-0.6,1.9-1.6c0-0.2,0.1-0.4,0.1-0.6V230.8z"/>
	<path class="st3" d="M36.5,235.1l-0.1-0.9h0c-0.4,0.6-1.2,1.1-2.2,1.1c-1.5,0-2.2-1-2.2-2.1c0-1.8,1.6-2.7,4.4-2.7v-0.1
		c0-0.6-0.2-1.7-1.6-1.7c-0.7,0-1.4,0.2-1.9,0.5l-0.3-0.9c0.6-0.4,1.5-0.6,2.4-0.6c2.2,0,2.8,1.5,2.8,3v2.7c0,0.6,0,1.2,0.1,1.7
		H36.5z M36.3,231.4c-1.4,0-3.1,0.2-3.1,1.6c0,0.9,0.6,1.3,1.2,1.3c0.9,0,1.5-0.6,1.8-1.2c0-0.1,0.1-0.3,0.1-0.4V231.4z"/>
	<path class="st3" d="M39.5,233.7c0.4,0.3,1.1,0.5,1.7,0.5c1,0,1.4-0.5,1.4-1.1c0-0.6-0.4-1-1.4-1.3c-1.3-0.5-1.9-1.2-1.9-2.1
		c0-1.2,0.9-2.1,2.5-2.1c0.7,0,1.4,0.2,1.8,0.5l-0.3,1c-0.3-0.2-0.8-0.4-1.5-0.4c-0.8,0-1.2,0.5-1.2,1c0,0.6,0.4,0.9,1.4,1.2
		c1.3,0.5,1.9,1.1,1.9,2.2c0,1.3-1,2.2-2.7,2.2c-0.8,0-1.5-0.2-2-0.5L39.5,233.7z"/>
	<path class="st3" d="M45.6,224.4h1.3v4.5h0c0.2-0.4,0.5-0.7,0.9-0.9c0.4-0.2,0.9-0.4,1.4-0.4c1,0,2.5,0.6,2.5,3.1v4.3h-1.3v-4.2
		c0-1.2-0.4-2.2-1.7-2.2c-0.9,0-1.5,0.6-1.8,1.3c-0.1,0.2-0.1,0.4-0.1,0.6v4.4h-1.3V224.4z"/>
	<path class="st3" d="M53.1,236.9c0.3-0.9,0.7-2.5,0.9-3.6l1.5-0.1c-0.3,1.3-1,2.9-1.4,3.6L53.1,236.9z"/>
	<path class="st3" d="M60.2,230.1c0-0.9,0-1.6-0.1-2.3h1.2l0,1.4h0.1c0.3-1,1.1-1.6,2-1.6c0.1,0,0.3,0,0.4,0v1.2c-0.1,0-0.3,0-0.4,0
		c-0.9,0-1.6,0.7-1.8,1.7c0,0.2-0.1,0.4-0.1,0.6v3.9h-1.3V230.1z"/>
	<path class="st3" d="M69.1,235.1l-0.1-0.9h0c-0.4,0.6-1.2,1.1-2.2,1.1c-1.5,0-2.2-1-2.2-2.1c0-1.8,1.6-2.7,4.4-2.7v-0.1
		c0-0.6-0.2-1.7-1.6-1.7c-0.7,0-1.4,0.2-1.9,0.5l-0.3-0.9c0.6-0.4,1.5-0.6,2.4-0.6c2.2,0,2.8,1.5,2.8,3v2.7c0,0.6,0,1.2,0.1,1.7
		H69.1z M68.9,231.4c-1.4,0-3.1,0.2-3.1,1.6c0,0.9,0.6,1.3,1.2,1.3c0.9,0,1.5-0.6,1.8-1.2c0-0.1,0.1-0.3,0.1-0.4V231.4z"/>
	<path class="st3" d="M76.1,225.7c-0.3-0.1-0.6-0.2-0.9-0.2c-0.4,0-0.8,0.1-1,0.4c-0.4,0.4-0.5,1-0.5,1.7v0.3h3.1v-0.3
		c0-1,0.4-1.9,1-2.5c0.6-0.5,1.3-0.7,2.3-0.7c0.8,0,1.6,0.2,2.2,0.5v10.3H81v-9.6c-0.2-0.1-0.6-0.2-1.1-0.2c-1.4,0-1.8,1-1.8,2.2
		v0.4h1.7v1h-1.7v6.3h-1.3v-6.3h-3.1v6.3h-1.3v-6.3h-1v-1h1v-0.2c0-0.9,0.2-1.9,0.8-2.5c0.5-0.5,1.1-0.7,2-0.7c0.5,0,1,0.2,1.2,0.3
		L76.1,225.7z"/>
	<path class="st3" d="M85.3,231.7c0,1.8,1.2,2.5,2.5,2.5c0.9,0,1.5-0.2,2-0.4l0.2,0.9c-0.5,0.2-1.3,0.5-2.4,0.5
		c-2.2,0-3.6-1.5-3.6-3.7c0-2.2,1.3-3.9,3.4-3.9c2.4,0,3,2.1,3,3.4c0,0.3,0,0.5,0,0.6H85.3z M89.1,230.7c0-0.8-0.3-2.1-1.8-2.1
		c-1.3,0-1.9,1.2-2,2.1H89.1z"/>
	<path class="st3" d="M91.9,233.7c0.4,0.3,1.1,0.5,1.7,0.5c1,0,1.4-0.5,1.4-1.1c0-0.6-0.4-1-1.4-1.3c-1.3-0.5-1.9-1.2-1.9-2.1
		c0-1.2,0.9-2.1,2.5-2.1c0.7,0,1.4,0.2,1.8,0.5l-0.3,1c-0.3-0.2-0.8-0.4-1.5-0.4c-0.8,0-1.2,0.5-1.2,1c0,0.6,0.4,0.9,1.4,1.2
		c1.3,0.5,1.9,1.1,1.9,2.2c0,1.3-1,2.2-2.7,2.2c-0.8,0-1.5-0.2-2-0.5L91.9,233.7z"/>
	<path class="st3" d="M105.2,235.1l-0.1-0.9h0c-0.4,0.6-1.2,1.1-2.2,1.1c-1.5,0-2.2-1-2.2-2.1c0-1.8,1.6-2.7,4.4-2.7v-0.1
		c0-0.6-0.2-1.7-1.6-1.7c-0.7,0-1.4,0.2-1.9,0.5l-0.3-0.9c0.6-0.4,1.5-0.6,2.4-0.6c2.2,0,2.8,1.5,2.8,3v2.7c0,0.6,0,1.2,0.1,1.7
		H105.2z M105,231.4c-1.4,0-3.1,0.2-3.1,1.6c0,0.9,0.6,1.3,1.2,1.3c0.9,0,1.5-0.6,1.8-1.2c0-0.1,0.1-0.3,0.1-0.4V231.4z"/>
	<path class="st3" d="M108.4,229.8c0-0.8,0-1.4-0.1-2h1.2l0.1,1.2h0c0.4-0.7,1.2-1.4,2.4-1.4c1,0,2.6,0.6,2.6,3.1v4.3h-1.3v-4.2
		c0-1.2-0.4-2.1-1.7-2.1c-0.9,0-1.5,0.6-1.8,1.4c-0.1,0.2-0.1,0.4-0.1,0.6v4.4h-1.3V229.8z"/>
	<path class="st3" d="M123,224.4v8.8c0,0.6,0,1.4,0.1,1.9h-1.2l-0.1-1.3h0c-0.4,0.8-1.3,1.4-2.5,1.4c-1.8,0-3.1-1.5-3.1-3.7
		c0-2.4,1.5-3.9,3.3-3.9c1.1,0,1.9,0.5,2.2,1.1h0v-4.3H123z M121.7,230.8c0-0.2,0-0.4-0.1-0.6c-0.2-0.8-0.9-1.5-1.9-1.5
		c-1.4,0-2.2,1.2-2.2,2.8c0,1.5,0.7,2.7,2.1,2.7c0.9,0,1.7-0.6,1.9-1.6c0-0.2,0.1-0.4,0.1-0.6V230.8z"/>
	<path class="st3" d="M129.8,225.8c0,0.5-0.3,0.8-0.8,0.8c-0.5,0-0.8-0.4-0.8-0.8c0-0.5,0.3-0.8,0.8-0.8
		C129.5,225,129.8,225.3,129.8,225.8z M128.3,235.1v-7.3h1.3v7.3H128.3z"/>
	<path class="st3" d="M131.9,229.8c0-0.8,0-1.4-0.1-2h1.2l0.1,1.2h0c0.4-0.7,1.2-1.4,2.4-1.4c1,0,2.6,0.6,2.6,3.1v4.3h-1.3v-4.2
		c0-1.2-0.4-2.1-1.7-2.1c-0.9,0-1.5,0.6-1.8,1.4c-0.1,0.2-0.1,0.4-0.1,0.6v4.4h-1.3V229.8z"/>
	<path class="st3" d="M140,233.7c0.4,0.3,1.1,0.5,1.7,0.5c1,0,1.4-0.5,1.4-1.1c0-0.6-0.4-1-1.3-1.3c-1.3-0.5-1.9-1.2-1.9-2.1
		c0-1.2,0.9-2.1,2.5-2.1c0.7,0,1.4,0.2,1.8,0.5l-0.3,1c-0.3-0.2-0.8-0.4-1.5-0.4c-0.8,0-1.2,0.5-1.2,1c0,0.6,0.4,0.9,1.4,1.2
		c1.3,0.5,1.9,1.1,1.9,2.2c0,1.3-1,2.2-2.7,2.2c-0.8,0-1.5-0.2-2-0.5L140,233.7z"/>
	<path class="st3" d="M146.1,230.2c0-0.9,0-1.7-0.1-2.4h1.2l0.1,1.2h0c0.5-0.9,1.4-1.4,2.6-1.4c1.8,0,3.1,1.5,3.1,3.7
		c0,2.6-1.6,3.9-3.3,3.9c-1,0-1.8-0.4-2.2-1.1h0v3.9h-1.3V230.2z M147.4,232.1c0,0.2,0,0.4,0.1,0.5c0.2,0.9,1,1.5,2,1.5
		c1.4,0,2.2-1.1,2.2-2.8c0-1.5-0.8-2.7-2.2-2.7c-0.9,0-1.7,0.6-2,1.6c0,0.2-0.1,0.4-0.1,0.5V232.1z"/>
	<path class="st3" d="M156.1,225.8c0,0.5-0.3,0.8-0.8,0.8c-0.5,0-0.8-0.4-0.8-0.8c0-0.5,0.3-0.8,0.8-0.8
		C155.8,225,156.1,225.3,156.1,225.8z M154.7,235.1v-7.3h1.3v7.3H154.7z"/>
	<path class="st3" d="M158.2,230.1c0-0.9,0-1.6-0.1-2.3h1.2l0,1.4h0.1c0.3-1,1.1-1.6,2-1.6c0.1,0,0.3,0,0.4,0v1.2
		c-0.1,0-0.3,0-0.5,0c-0.9,0-1.6,0.7-1.8,1.7c0,0.2-0.1,0.4-0.1,0.6v3.9h-1.3V230.1z"/>
	<path class="st3" d="M167,235.1l-0.1-0.9h0c-0.4,0.6-1.2,1.1-2.2,1.1c-1.5,0-2.2-1-2.2-2.1c0-1.8,1.6-2.7,4.4-2.7v-0.1
		c0-0.6-0.2-1.7-1.6-1.7c-0.7,0-1.4,0.2-1.9,0.5l-0.3-0.9c0.6-0.4,1.5-0.6,2.4-0.6c2.2,0,2.8,1.5,2.8,3v2.7c0,0.6,0,1.2,0.1,1.7H167
		z M166.8,231.4c-1.4,0-3.1,0.2-3.1,1.6c0,0.9,0.6,1.3,1.2,1.3c0.9,0,1.5-0.6,1.8-1.2c0-0.1,0.1-0.3,0.1-0.4V231.4z"/>
	<path class="st3" d="M171.8,225.7v2.1h1.9v1h-1.9v3.9c0,0.9,0.3,1.4,1,1.4c0.3,0,0.6,0,0.8-0.1l0.1,1c-0.3,0.1-0.7,0.2-1.2,0.2
		c-0.6,0-1.1-0.2-1.4-0.6c-0.4-0.4-0.5-1-0.5-1.9v-4h-1.1v-1h1.1v-1.7L171.8,225.7z"/>
	<path class="st3" d="M176.6,225.8c0,0.5-0.3,0.8-0.8,0.8c-0.5,0-0.8-0.4-0.8-0.8c0-0.5,0.3-0.8,0.8-0.8
		C176.3,225,176.6,225.3,176.6,225.8z M175.1,235.1v-7.3h1.3v7.3H175.1z"/>
	<path class="st3" d="M185.2,231.4c0,2.7-1.9,3.9-3.6,3.9c-2,0-3.5-1.4-3.5-3.7c0-2.4,1.6-3.9,3.6-3.9
		C183.8,227.7,185.2,229.2,185.2,231.4z M179.4,231.5c0,1.6,0.9,2.8,2.2,2.8c1.3,0,2.2-1.2,2.2-2.8c0-1.2-0.6-2.8-2.2-2.8
		S179.4,230.1,179.4,231.5z"/>
	<path class="st3" d="M186.9,229.8c0-0.8,0-1.4-0.1-2h1.2l0.1,1.2h0c0.4-0.7,1.2-1.4,2.4-1.4c1,0,2.6,0.6,2.6,3.1v4.3h-1.3v-4.2
		c0-1.2-0.4-2.1-1.7-2.1c-0.9,0-1.5,0.6-1.8,1.4c-0.1,0.2-0.1,0.4-0.1,0.6v4.4h-1.3V229.8z"/>
	<path class="st3" d="M199.2,235.1l-0.1-0.9h0c-0.4,0.6-1.2,1.1-2.2,1.1c-1.5,0-2.2-1-2.2-2.1c0-1.8,1.6-2.7,4.4-2.7v-0.1
		c0-0.6-0.2-1.7-1.7-1.7c-0.7,0-1.4,0.2-1.9,0.5l-0.3-0.9c0.6-0.4,1.5-0.6,2.4-0.6c2.2,0,2.8,1.5,2.8,3v2.7c0,0.6,0,1.2,0.1,1.7
		H199.2z M199,231.4c-1.4,0-3.1,0.2-3.1,1.6c0,0.9,0.6,1.3,1.2,1.3c0.9,0,1.5-0.6,1.8-1.2c0-0.1,0.1-0.3,0.1-0.4V231.4z"/>
	<path class="st3" d="M202.4,224.4h1.3v10.6h-1.3V224.4z"/>
	<path class="st3" d="M209.1,230.2c0-0.9,0-1.7-0.1-2.4h1.2l0.1,1.2h0c0.5-0.9,1.4-1.4,2.6-1.4c1.8,0,3.1,1.5,3.1,3.7
		c0,2.6-1.6,3.9-3.3,3.9c-1,0-1.8-0.4-2.2-1.1h0v3.9h-1.3V230.2z M210.5,232.1c0,0.2,0,0.4,0.1,0.5c0.2,0.9,1,1.5,2,1.5
		c1.4,0,2.2-1.1,2.2-2.8c0-1.5-0.8-2.7-2.2-2.7c-0.9,0-1.7,0.6-2,1.6c0,0.2-0.1,0.4-0.1,0.5V232.1z"/>
	<path class="st3" d="M217.7,230.1c0-0.9,0-1.6-0.1-2.3h1.2l0,1.4h0.1c0.3-1,1.1-1.6,2-1.6c0.1,0,0.3,0,0.4,0v1.2
		c-0.1,0-0.3,0-0.5,0c-0.9,0-1.6,0.7-1.8,1.7c0,0.2-0.1,0.4-0.1,0.6v3.9h-1.3V230.1z"/>
	<path class="st3" d="M229,231.4c0,2.7-1.9,3.9-3.6,3.9c-2,0-3.5-1.4-3.5-3.7c0-2.4,1.6-3.9,3.6-3.9
		C227.6,227.7,229,229.2,229,231.4z M223.2,231.5c0,1.6,0.9,2.8,2.2,2.8c1.3,0,2.2-1.2,2.2-2.8c0-1.2-0.6-2.8-2.2-2.8
		C223.9,228.6,223.2,230.1,223.2,231.5z"/>
	<path class="st3" d="M236.9,227.8c0,0.5-0.1,1.1-0.1,2v4.2c0,1.7-0.3,2.7-1,3.3c-0.7,0.7-1.7,0.9-2.6,0.9c-0.9,0-1.8-0.2-2.4-0.6
		l0.3-1c0.5,0.3,1.2,0.6,2.1,0.6c1.4,0,2.3-0.7,2.3-2.5v-0.8h0c-0.4,0.7-1.2,1.2-2.3,1.2c-1.8,0-3.1-1.5-3.1-3.5
		c0-2.5,1.6-3.9,3.3-3.9c1.3,0,2,0.7,2.3,1.3h0l0.1-1.1H236.9z M235.6,230.7c0-0.2,0-0.4-0.1-0.6c-0.2-0.8-0.9-1.4-1.8-1.4
		c-1.3,0-2.2,1.1-2.2,2.7c0,1.4,0.7,2.6,2.1,2.6c0.8,0,1.5-0.5,1.8-1.3c0.1-0.2,0.1-0.5,0.1-0.7V230.7z"/>
	<path class="st3" d="M239,230.1c0-0.9,0-1.6-0.1-2.3h1.2l0,1.4h0.1c0.3-1,1.1-1.6,2-1.6c0.1,0,0.3,0,0.4,0v1.2c-0.1,0-0.3,0-0.5,0
		c-0.9,0-1.6,0.7-1.8,1.7c0,0.2-0.1,0.4-0.1,0.6v3.9H239V230.1z"/>
	<path class="st3" d="M247.8,235.1l-0.1-0.9h0c-0.4,0.6-1.2,1.1-2.2,1.1c-1.5,0-2.2-1-2.2-2.1c0-1.8,1.6-2.7,4.4-2.7v-0.1
		c0-0.6-0.2-1.7-1.7-1.7c-0.7,0-1.4,0.2-1.9,0.5l-0.3-0.9c0.6-0.4,1.5-0.6,2.4-0.6c2.2,0,2.8,1.5,2.8,3v2.7c0,0.6,0,1.2,0.1,1.7
		H247.8z M247.6,231.4c-1.4,0-3.1,0.2-3.1,1.6c0,0.9,0.6,1.3,1.2,1.3c0.9,0,1.5-0.6,1.8-1.2c0-0.1,0.1-0.3,0.1-0.4V231.4z"/>
	<path class="st3" d="M251,229.8c0-0.8,0-1.4-0.1-2h1.2l0.1,1.2h0c0.4-0.7,1.1-1.3,2.3-1.3c1,0,1.7,0.6,2.1,1.5h0
		c0.2-0.4,0.5-0.7,0.8-0.9c0.4-0.3,0.9-0.5,1.6-0.5c1,0,2.4,0.6,2.4,3.2v4.3h-1.3V231c0-1.4-0.5-2.2-1.6-2.2c-0.8,0-1.3,0.6-1.6,1.2
		c-0.1,0.2-0.1,0.4-0.1,0.7v4.5h-1.3v-4.3c0-1.2-0.5-2-1.5-2c-0.8,0-1.4,0.7-1.6,1.3c-0.1,0.2-0.1,0.4-0.1,0.6v4.4H251V229.8z"/>
	<path class="st3" d="M263.3,234.3c0-0.5,0.4-0.9,0.9-0.9c0.5,0,0.9,0.4,0.9,0.9c0,0.5-0.3,0.9-0.9,0.9
		C263.6,235.2,263.3,234.8,263.3,234.3z M263.7,232.2l-0.2-7.2h1.4l-0.2,7.2H263.7z"/>
</g>
</svg>
