<?xml version="1.0" encoding="utf-8"?>
<!-- Generator: Adobe Illustrator 21.0.2, SVG Export Plug-In . SVG Version: 6.00 Build 0)  -->
<svg version="1.1" id="Layer_1" xmlns="http://www.w3.org/2000/svg" xmlns:xlink="http://www.w3.org/1999/xlink" x="0px" y="0px"
	 viewBox="0 0 291.5 240.2" style="enable-background:new 0 0 291.5 240.2;" xml:space="preserve">
<style type="text/css">
	.st0{clip-path:url(#SVGID_2_);}
	.st1{fill:#E67F7B;}
	.st2{fill:#C3002F;}
	.st3{fill:#414042;}
	.st4{clip-path:url(#SVGID_4_);}
	.st5{fill:#808285;}
	.st6{fill:#1A1A1A;}
	.st7{fill:#6D6E71;}
</style>
<g>
	<g>
		<defs>
			<path id="SVGID_1_" d="M59.5,75.6c-5.3,0-9.6-6.4-9.6-14.4c0-7.9,4.3-14.4,9.6-14.4c5.3,0,9.6,6.4,9.6,14.4
				C69.1,69.2,64.8,75.6,59.5,75.6z M102,54.5c5.3,0,9.6-6.4,9.6-14.4s-4.3-14.4-9.6-14.4c-5.3,0-9.6,6.4-9.6,14.4
				S96.7,54.5,102,54.5z M78.7,54.5c5.3,0,9.6-6.4,9.6-14.4S84,25.7,78.7,25.7c-5.3,0-9.6,6.4-9.6,14.4S73.4,54.5,78.7,54.5z
				 M90.7,58c-12.6,0-17.5,9.5-23.6,21.4C51.1,111,76.3,99.3,88.7,97.8C85.1,94,79.5,87.4,80,82.5C81,71.9,91.3,76,91.6,80.6
				c0.3-4.6,10.6-8.7,11.6,1.9c0.5,5-5.3,11.8-8.9,15.5c12,2.1,35.5,12,19.9-18.5C108.3,67.6,103.5,58,90.7,58z M122.1,46.9
				c-5.3,0-9.6,6.4-9.6,14.4c0,7.9,4.3,14.4,9.6,14.4c5.3,0,9.6-6.4,9.6-14.4C131.6,53.3,127.3,46.9,122.1,46.9z"/>
		</defs>
		<clipPath id="SVGID_2_">
			<use xlink:href="#SVGID_1_"  style="overflow:visible;"/>
		</clipPath>
		<g class="st0">
			<path class="st1" d="M169.6,80.1c0,43.1-34.9,78-78,78s-78-34.9-78-78c0-43.1,34.9-78,78-78S169.6,37,169.6,80.1z"/>
			<g>
				<path class="st2" d="M91.7,151.8c-1.3,0-2.6,0-3.8-0.1l3.8-71.4c0,0,0.1,0,0.1,0l3.8,71.4C94.3,151.8,92.9,151.8,91.7,151.8z
					 M80.1,150.9c-2.6-0.4-5.1-1-7.6-1.7l19.1-68.9L80.1,150.9z M103.3,150.9L91.8,80.3l19.1,68.9
					C108.4,149.9,105.8,150.5,103.3,150.9z M65.1,146.7c-2.4-1-4.8-2.1-7.1-3.3l33.5-63.2L65.1,146.7z M118.3,146.7L91.8,80.3
					l33.6,63.1C123,144.7,120.7,145.8,118.3,146.7z M51.4,139.5c-2.1-1.4-4.2-3-6.2-4.7l46.3-54.5c0,0,0,0,0,0L51.4,139.5z
					 M132,139.4L91.8,80.3c0,0,0,0,0,0l46.3,54.5C136.2,136.4,134.1,138,132,139.4z M39.6,129.5c-1.8-1.9-3.5-3.9-5-5.9l56.9-43.4
					c0,0,0,0,0,0L39.6,129.5z M143.8,129.4L91.9,80.2c0,0,0,0,0,0l56.9,43.3C147.2,125.6,145.6,127.5,143.8,129.4z M30.2,117.1
					c-1.3-2.2-2.6-4.5-3.7-6.9l64.8-30.1c0,0,0,0,0,0L30.2,117.1z M153.2,117.1L91.9,80.2c0,0,0,0,0,0l0,0l69.8,15.3
					c-0.6,2.5-1.3,5.1-2.1,7.5L91.9,80.1l64.9,30.1C155.7,112.6,154.5,114.9,153.2,117.1z M23.6,103c-0.8-2.5-1.5-5-2.1-7.5
					l69.8-15.4L23.6,103z M20.3,87.8c-0.3-2.5-0.4-5.1-0.4-7.7L91.4,80c0,0,0,0.1,0,0.1L20.3,87.8z M163,87.8l-71.1-7.6
					c0,0,0,0,0-0.1V80h71.5V80C163.4,82.6,163.3,85.2,163,87.8z M91.4,80l-71.1-7.6c0.3-2.6,0.7-5.2,1.2-7.7L91.4,80
					C91.4,79.9,91.4,80,91.4,80z M91.9,80C91.9,79.9,91.9,79.9,91.9,80l69.8-15.5c0.6,2.5,1,5.1,1.3,7.7L91.9,80z M91.9,79.9
					l64.8-30.2c1.1,2.4,2.1,4.8,2.9,7.2L91.9,79.9z M91.4,79.9L23.6,57.2c0.8-2.5,1.8-4.9,2.9-7.2L91.4,79.9z M91.4,79.9L30.1,43.1
					c1.3-2.2,2.8-4.4,4.4-6.4L91.4,79.9C91.4,79.9,91.4,79.9,91.4,79.9z M91.9,79.9C91.9,79.9,91.9,79.9,91.9,79.9l56.8-43.4
					c1.6,2.1,3,4.2,4.4,6.4L91.9,79.9z M91.4,79.8l-52-49.1c1.8-1.9,3.7-3.7,5.6-5.3L91.4,79.8C91.5,79.8,91.5,79.8,91.4,79.8z
					 M91.9,79.8C91.9,79.8,91.8,79.8,91.9,79.8l46.2-54.6c2,1.7,3.9,3.5,5.6,5.3L91.9,79.8z M91.4,79.6L51.3,20.7
					c2.1-1.5,4.4-2.8,6.6-4l33.4,62.7C91.3,79.4,91.3,79.3,91.4,79.6z M91.8,79.8C91.8,79.8,91.8,79.8,91.8,79.8l33.4-63.2
					c2.3,1.2,4.5,2.6,6.7,4L91.8,79.8z M91.8,79.8l19-68.9c2.5,0.7,5,1.5,7.4,2.5L91.8,79.8z M91.6,79.8L65,13.4
					c2.4-1,4.9-1.8,7.4-2.5L91.6,79.8z M91.6,79.9L80,9.2c2.5-0.4,5.1-0.7,7.7-0.8l3.9,72C91.6,80.4,91.6,79.9,91.6,79.9z
					 M91.7,79.8c0,0-0.1,0.4-0.1,0.4l3.7-71.8c2.6,0.1,5.2,0.4,7.7,0.8L91.7,79.8z"/>
			</g>
		</g>
	</g>
	<g>
		<path class="st3" d="M183.8,58.7c3.8,0,6.7,0.6,8.8,2c2.2,1.5,3.5,3.6,3.5,6.9c0,6.2-5.1,9.4-10.1,10c-0.8,0.1-1.7,0.1-2.3,0.1
			l-3.4-0.9v6.4c0,5.3,0.4,5.7,5.1,6v1.4h-15v-1.4c3.9-0.3,4.3-0.7,4.3-6V66.1c0-5.3-0.4-5.7-4.1-6v-1.4H183.8z M180.1,74.9
			c0.8,0.3,1.8,0.6,3.1,0.6c2.1,0,6.5-1.4,6.5-7.8c0-5-2.9-7.1-7.1-7.1c-2.4,0-2.5,0.3-2.5,1.8V74.9z"/>
		<path class="st3" d="M209.3,58.7l3.3,8.5c2.3,6,4.5,12,6.5,16.9c1.7,4.4,2.4,4.7,5.4,5v1.4h-13.4v-1.4l1.4-0.2
			c1.9-0.3,2-0.8,1.4-2.6c-0.5-1.5-1.7-4.5-2.8-7.1h-9.4c-0.7,1.5-1.6,4.2-2.3,6.3c-0.9,2.6-0.5,3.2,1.7,3.5l1.4,0.1v1.4h-11.3v-1.4
			c3.2-0.4,3.7-0.6,5.5-5L207,58.7H209.3z M202.3,77h8.1l-4-10.8h-0.2L202.3,77z"/>
		<path class="st3" d="M243.4,58.7l8.9,23.3h0.1c1.9-6.1,4.3-15.2,5.1-18.3c0.8-3,0.5-3.6-1.7-3.8l-1.8-0.2v-1.4h11.7v1.4
			c-3.3,0.3-3.7,0.6-5.4,5c-0.8,2.1-4.4,12.2-8.6,25.9h-2.2l-8.7-22.9h-0.1l-8,22.9h-2.2l-8.4-26.1c-1.4-4.2-2.3-4.5-5-4.8v-1.4
			h13.8v1.4l-1.7,0.2c-2.1,0.3-2.3,0.7-1.6,3l5.9,19.1h0.1l7.7-23.3H243.4z"/>
	</g>
	<g>
		<defs>
			<path id="SVGID_3_" d="M45.3,3C50.8,3,55,3.9,58,5.9c3.2,2.2,5,5.3,5,10.1c0,9.1-7.4,13.8-14.6,14.7c-1.2,0.1-2.5,0.1-3.4,0.1
				l-4.9-1.3v9.4c0,7.8,0.6,8.3,7.4,8.8v2H25.7v-2c5.6-0.4,6.2-1,6.2-8.8V13.8C31.9,6,31.4,5.4,26,5V3H45.3z M40.1,26.7
				c1.2,0.4,2.6,0.9,4.5,0.9c3.1,0,9.4-2,9.4-11.5c0-7.4-4.1-10.3-10.3-10.3c-3.5,0-3.6,0.4-3.6,2.6V26.7z M216.6,37.5
				c-1.3,3.4-2.5,5.9-3.8,7.3c-1.5,1.8-4.9,2.1-8.6,2.1c-3.1,0-5.8-0.1-7.1-0.9c-1.3-0.9-1.6-2.9-1.6-7.1V27h6.3
				c6.3,0,6.5,0.3,7.2,6h2.4V17.7h-2.4c-0.7,5.5-0.9,6-7.2,6h-6.3V8.5c0-2.6,0.1-2.6,2.9-2.6h3.7c4.6,0,6.9,0.4,8.2,1.7
				c1.1,1.1,2,3.1,2.7,6.5l2.2-0.1c-0.4-4.5-0.7-9.8-0.9-10.9h-31.9h-1.4h-15.5v2l2.7,0.3c3.2,0.3,3.6,1.1,2.4,5.6
				c-1.2,4.6-4.7,18-7.4,26.9H163L150.2,3.6h-2.9l-11.2,34.2H136l-8.6-28c-1-3.4-0.7-4,2.3-4.5l2.4-0.3V3h-19.9v2
				c3.9,0.4,5.2,0.9,7.2,7l12.2,38.2h3.2l11.5-33.6h0.1l12.5,33.6h3.2c6.1-20,11.4-34.9,12.5-37.9c2.2-6.1,2.9-6.8,7.1-7.3
				c4.9,0.4,5.4,1.3,5.4,8.7v25.1c0,7.8-0.6,8.3-6.9,8.8v2h36c0.6-2,2.2-9.3,2.5-11.8L216.6,37.5z M241.2,3c5.4,0,9.2,0.6,12.2,2.4
				c2.9,1.9,4.9,4.9,4.9,9.1c0,6-3.8,10.3-9.8,12.4c1.2,2,4.2,7,6.4,10.3c2.9,4.3,6.4,10.5,10.9,11.6v1.6l-3.1-0.1
				c-8-0.6-10.5-2.6-13.4-6.6c-2.4-3.3-4.8-7.9-6.9-11.6c-1.2-2-2.1-2.7-4.3-2.7h-2.4v9.6c0,7.8,0.6,8.3,6.2,8.8v2h-20.8v-2
				c5.9-0.4,6.5-1,6.5-8.8V13.8c0-7.8-0.6-8.3-6.2-8.8V3H241.2z M235.7,26.8h2.8c2.9,0,5-0.4,6.9-1.9c2.9-2.3,4-5.7,4-9.2
				c0-7.5-5.3-10.1-10-10.1c-3.5,0-3.7,0.3-3.7,2.6V26.8z M75.9,22.9c0.6-11.5,6.5-18.1,13.9-18.1c8.7,0,14.5,6.5,15.7,18.3
				c4,1.5,7.2,5.5,8.6,10.8c0.8-2.6,1.2-5.4,1.2-8.4c0-14-10.5-23.6-23.3-23.6c-17.3,0-25.8,13.4-25.8,25.2c0,2.1,0.2,4,0.7,5.9
				C68.5,27.9,71.8,24.1,75.9,22.9z"/>
		</defs>
		<clipPath id="SVGID_4_">
			<use xlink:href="#SVGID_3_"  style="overflow:visible;"/>
		</clipPath>
		<g class="st4">
			<rect x="17.3" y="-4.1" class="st5" width="253.8" height="63.5"/>
			<g>
				<polygon class="st6" points="99.8,59.4 125,-4.1 114.8,-4.1 97.4,59.4 				"/>
				<polygon class="st6" points="95.1,59.4 105.3,-4.1 96.1,-4.1 92.8,59.4 				"/>
				<polygon class="st6" points="80.8,59.4 46.9,-4.1 34.5,-4.1 77.8,59.4 				"/>
				<polygon class="st6" points="125.7,59.4 230.7,-4.1 201.8,-4.1 118.6,59.4 				"/>
				<polygon class="st6" points="64.5,59.4 17.3,23.6 17.3,35.4 57.3,59.4 				"/>
				<polygon class="st6" points="74.2,59.4 20.1,-4.1 17.3,-4.1 17.3,9.8 69.9,59.4 				"/>
				<polygon class="st6" points="113.3,59.4 180.1,-4.1 162.8,-4.1 109,59.4 				"/>
				<path class="st6" d="M256.3,3.4L135.9,59.4h16.3l111.5-37.8C261.5,15.5,259.1,9.3,256.3,3.4z"/>
				<polygon class="st6" points="90.4,59.4 87,-4.1 77.7,-4.1 88.2,59.4 				"/>
				<path class="st6" d="M184.1,59.4h87.1v-7c-0.6-4-1.3-7.9-2.2-11.8L184.1,59.4z"/>
				<polygon class="st6" points="85.9,59.4 68.2,-4.1 58,-4.1 83.5,59.4 				"/>
				<polygon class="st6" points="105.4,59.4 148.5,-4.1 136,-4.1 102.4,59.4 				"/>
				<polygon class="st6" points="30.5,59.4 47.1,59.4 17.3,45.7 17.3,55 				"/>
			</g>
		</g>
	</g>
	<g>
		<path class="st3" d="M154.7,69.6c0,3.6-2.7,5.9-6,5.9c-3.5,0-5.8-2.5-5.8-5.5c0-2.7,2-5.9,6.2-5.9
			C152.2,64.1,154.7,66.3,154.7,69.6z M145.2,69.4c0,3,1.4,5.4,3.9,5.4c1.9,0,3.3-1.5,3.3-4.6c0-3.5-1.5-5.4-3.9-5.4
			C146.6,64.7,145.2,66.5,145.2,69.4z"/>
		<path class="st3" d="M164.2,64.3c0,0.3,0.1,1.5,0.2,2.5l-0.5,0.1c-0.2-0.8-0.4-1.2-0.7-1.5c-0.3-0.3-0.9-0.4-2-0.4h-0.9
			c-0.7,0-0.7,0-0.7,0.6v3.7h1.8c1.5,0,1.6-0.1,1.7-1.3h0.6v3.4h-0.6c-0.2-1.3-0.2-1.3-1.7-1.3h-1.8v2.6c0,1.8,0.1,1.9,1.8,2v0.5
			h-5.2v-0.5c1.3-0.1,1.5-0.2,1.5-2v-5.8c0-1.8-0.1-1.9-1.5-2v-0.5H164.2z"/>
		<path class="st3" d="M130.8,82.3c0.1-1.1,0.2-2.2,0.2-3.1h0.3c0.2,0.4,0.4,0.4,0.9,0.4h7.3c0.5,0,0.6-0.1,0.9-0.4h0.3
			c0,0.7,0.1,2,0.2,3l-0.5,0c-0.2-0.9-0.4-1.3-0.7-1.6c-0.3-0.3-0.9-0.4-2-0.4h-0.9v7.7c0,1.8,0.1,1.9,1.8,2v0.5h-5.5v-0.5
			c1.6-0.1,1.7-0.2,1.7-2v-7.7h-0.6c-1.5,0-2,0.2-2.3,0.5c-0.2,0.2-0.4,0.7-0.6,1.5H130.8z"/>
		<path class="st3" d="M146.9,79.7v0.5c-1.3,0.1-1.5,0.2-1.5,2v2.2h5.4v-2.2c0-1.8-0.1-1.9-1.5-2v-0.5h5.1v0.5
			c-1.4,0.1-1.6,0.2-1.6,2v5.8c0,1.8,0.1,1.9,1.5,2v0.5h-5.2v-0.5c1.5-0.1,1.6-0.2,1.6-2v-2.8h-5.4v2.8c0,1.8,0.1,1.9,1.5,2v0.5
			h-5.1v-0.5c1.4-0.1,1.6-0.2,1.6-2v-5.8c0-1.8-0.1-1.9-1.6-2v-0.5H146.9z"/>
		<path class="st3" d="M163.7,79.7c0,0.3,0.1,1.5,0.2,2.5l-0.5,0c-0.2-0.8-0.4-1.3-0.7-1.5c-0.3-0.3-0.9-0.4-2-0.4h-0.9
			c-0.7,0-0.7,0-0.7,0.6v3.5h1.5c1.5,0,1.6-0.1,1.7-1.4h0.6v3.5h-0.6c-0.2-1.3-0.2-1.4-1.7-1.4h-1.5V88c0,1,0.1,1.4,0.4,1.7
			c0.3,0.2,1,0.2,1.7,0.2c0.9,0,1.7-0.1,2.1-0.5c0.3-0.3,0.6-0.9,0.9-1.7l0.5,0.1c-0.1,0.6-0.5,2.3-0.6,2.7h-8.7v-0.5
			c1.5-0.1,1.7-0.2,1.7-2v-5.8c0-1.8-0.1-1.9-1.5-2v-0.5H163.7z"/>
	</g>
</g>
<g>
	<path class="st3" d="M31.9,139.1c0.7,0.4,1.6,0.7,2.7,0.7c1.5,0,2.4-0.8,2.4-2c0-1.1-0.6-1.7-2.2-2.3c-1.9-0.7-3-1.6-3-3.2
		c0-1.8,1.5-3.1,3.7-3.1c1.2,0,2,0.3,2.5,0.6l-0.4,1.2c-0.4-0.2-1.1-0.5-2.2-0.5c-1.6,0-2.2,0.9-2.2,1.7c0,1.1,0.7,1.6,2.3,2.2
		c1.9,0.7,2.9,1.7,2.9,3.4c0,1.8-1.3,3.3-4,3.3c-1.1,0-2.3-0.3-2.9-0.7L31.9,139.1z"/>
	<path class="st3" d="M45.1,140.9l-0.1-1h-0.1c-0.5,0.6-1.3,1.2-2.5,1.2c-1.7,0-2.5-1.2-2.5-2.4c0-2,1.8-3.1,4.9-3.1v-0.2
		c0-0.7-0.2-1.9-1.9-1.9c-0.8,0-1.6,0.2-2.1,0.6l-0.3-1c0.7-0.4,1.7-0.7,2.7-0.7c2.5,0,3.1,1.7,3.1,3.4v3.1c0,0.7,0,1.4,0.1,2H45.1z
		 M44.8,136.7c-1.6,0-3.5,0.3-3.5,1.9c0,1,0.6,1.4,1.4,1.4c1.1,0,1.8-0.7,2-1.4c0.1-0.2,0.1-0.3,0.1-0.5V136.7z"/>
	<path class="st3" d="M50.4,130.3v2.4h2.1v1.1h-2.1v4.4c0,1,0.3,1.6,1.1,1.6c0.4,0,0.7-0.1,0.9-0.1l0.1,1.1
		c-0.3,0.1-0.7,0.2-1.3,0.2c-0.7,0-1.3-0.2-1.6-0.6c-0.4-0.4-0.6-1.2-0.6-2.1v-4.5h-1.3v-1.1H49v-2L50.4,130.3z"/>
	<path class="st3" d="M61.2,138.7c0,0.9,0,1.6,0.1,2.2h-1.3l-0.1-1.3h0c-0.4,0.7-1.3,1.5-2.7,1.5c-1.3,0-2.8-0.7-2.8-3.6v-4.8h1.5
		v4.6c0,1.6,0.5,2.6,1.8,2.6c1,0,1.7-0.7,2-1.4c0.1-0.2,0.1-0.5,0.1-0.8v-5h1.5V138.7z"/>
	<path class="st3" d="M63.6,135.3c0-1,0-1.8-0.1-2.6h1.3l0.1,1.6H65c0.4-1.1,1.3-1.8,2.3-1.8c0.2,0,0.3,0,0.4,0.1v1.4
		c-0.2,0-0.3-0.1-0.5-0.1c-1.1,0-1.8,0.8-2,1.9c0,0.2-0.1,0.4-0.1,0.7v4.4h-1.5V135.3z"/>
	<path class="st3" d="M76.1,128.8v9.9c0,0.7,0,1.6,0.1,2.1h-1.3l-0.1-1.4h0c-0.5,0.9-1.5,1.6-2.8,1.6c-2,0-3.5-1.7-3.5-4.2
		c0-2.7,1.7-4.4,3.7-4.4c1.3,0,2.1,0.6,2.5,1.3h0v-4.9H76.1z M74.6,136c0-0.2,0-0.4-0.1-0.6c-0.2-1-1-1.7-2.2-1.7
		c-1.5,0-2.5,1.4-2.5,3.2c0,1.7,0.8,3,2.4,3c1,0,1.9-0.7,2.2-1.8c0.1-0.2,0.1-0.4,0.1-0.6V136z"/>
	<path class="st3" d="M83.2,140.9l-0.1-1H83c-0.5,0.6-1.3,1.2-2.5,1.2c-1.7,0-2.5-1.2-2.5-2.4c0-2,1.8-3.1,4.9-3.1v-0.2
		c0-0.7-0.2-1.9-1.9-1.9c-0.8,0-1.6,0.2-2.1,0.6l-0.3-1c0.7-0.4,1.7-0.7,2.7-0.7c2.5,0,3.1,1.7,3.1,3.4v3.1c0,0.7,0,1.4,0.1,2H83.2z
		 M82.9,136.7c-1.6,0-3.5,0.3-3.5,1.9c0,1,0.6,1.4,1.4,1.4c1.1,0,1.8-0.7,2-1.4c0.1-0.2,0.1-0.3,0.1-0.5V136.7z"/>
	<path class="st3" d="M87.2,132.7l1.8,4.9c0.2,0.5,0.4,1.2,0.5,1.7h0c0.2-0.5,0.3-1.1,0.5-1.7l1.6-4.8h1.6l-2.2,5.9
		c-1.1,2.8-1.8,4.3-2.8,5.2c-0.7,0.6-1.5,0.9-1.8,1l-0.4-1.3c0.4-0.1,0.9-0.4,1.3-0.7c0.4-0.3,0.9-0.9,1.3-1.7
		c0.1-0.2,0.1-0.3,0.1-0.4s0-0.2-0.1-0.4l-3-7.6H87.2z"/>
	<path class="st3" d="M97.6,137c0-0.9,0.7-1.6,1.6-1.6c0.9,0,1.6,0.7,1.6,1.6c0,0.9-0.7,1.6-1.6,1.6C98.3,138.6,97.6,137.9,97.6,137
		z"/>
	<path class="st3" d="M126,131.8c-0.1-2.9-0.3-6.3-0.3-9.3h-0.1c-0.7,2.7-1.6,5.7-2.6,8.5l-3.2,9.6h-3.1l-3-9.5
		c-0.9-2.8-1.7-5.9-2.2-8.6h-0.1c-0.1,2.9-0.2,6.4-0.4,9.5l-0.5,8.9h-3.8l1.5-22.2h5.3l2.9,8.9c0.8,2.6,1.5,5.2,2,7.7h0.1
		c0.6-2.4,1.4-5.1,2.2-7.8l3.1-8.9h5.3l1.3,22.2h-4L126,131.8z"/>
	<path class="st3" d="M143.5,140.9l-0.3-1.8h-0.1c-1,1.3-2.7,2.1-4.8,2.1c-3.2,0-5-2.3-5-4.8c0-4.1,3.6-6.1,9.5-6.1v-0.3
		c0-1.1-0.4-2.8-3.3-2.8c-1.6,0-3.2,0.5-4.3,1.2l-0.8-2.6c1.2-0.7,3.3-1.4,5.8-1.4c5.1,0,6.6,3.3,6.6,6.8v5.8c0,1.5,0.1,2.9,0.2,3.9
		H143.5z M143,133.1c-2.9-0.1-5.6,0.6-5.6,3c0,1.6,1,2.3,2.3,2.3c1.6,0,2.8-1.1,3.2-2.2c0.1-0.3,0.1-0.6,0.1-0.9V133.1z"/>
	<path class="st3" d="M153.4,124.8l2.9,8.6c0.3,1,0.7,2.2,0.9,3.1h0.1c0.3-0.9,0.6-2.1,0.9-3.2l2.5-8.6h4.4l-4,11
		c-2.2,6-3.7,8.7-5.6,10.3c-1.6,1.4-3.2,1.9-4.3,2.1l-0.9-3.4c0.7-0.2,1.6-0.5,2.4-1.1c0.8-0.5,1.7-1.5,2.2-2.5
		c0.2-0.3,0.3-0.5,0.3-0.7c0-0.2,0-0.4-0.2-0.8l-5.9-14.8H153.4z"/>
	<path class="st3" d="M183.5,122.3c-0.6,0-1.3,0-2.1,0.1c-4.5,0.5-6.7,3.3-7.2,6.3h0.1c1.1-1.2,2.7-2.1,4.8-2.1c3.7,0,6.6,2.6,6.6,7
		c0,4.1-3,7.7-7.6,7.7c-5.2,0-8.1-4-8.1-9.2c0-4.1,1.5-7.5,3.7-9.6c2-1.8,4.6-2.9,7.6-3.2c0.9-0.1,1.6-0.1,2-0.1L183.5,122.3z
		 M181.6,133.9c0-2.5-1.4-4.3-3.7-4.3c-1.5,0-2.9,0.9-3.5,2.2c-0.2,0.3-0.3,0.7-0.3,1.3c0.1,2.8,1.4,5.1,4,5.1
		C180.2,138.2,181.6,136.4,181.6,133.9z"/>
	<path class="st3" d="M190.4,137c0-0.9,0.7-1.6,1.6-1.6c0.9,0,1.6,0.7,1.6,1.6c0,0.9-0.7,1.6-1.6,1.6
		C191.1,138.6,190.4,137.9,190.4,137z"/>
	<path class="st3" d="M202.7,140.9v-3h-5.1v-1l4.9-7.1h1.6v6.9h1.5v1.2h-1.5v3H202.7z M202.7,136.7V133c0-0.6,0-1.2,0.1-1.7h-0.1
		c-0.3,0.6-0.6,1.1-0.9,1.6l-2.7,3.8v0H202.7z"/>
	<path class="st3" d="M212.7,130.3v2.4h2.1v1.1h-2.1v4.4c0,1,0.3,1.6,1.1,1.6c0.4,0,0.7-0.1,0.9-0.1l0.1,1.1
		c-0.3,0.1-0.7,0.2-1.3,0.2c-0.7,0-1.3-0.2-1.6-0.6c-0.4-0.4-0.6-1.2-0.6-2.1v-4.5h-1.3v-1.1h1.3v-2L212.7,130.3z"/>
	<path class="st3" d="M223.8,136.7c0,3-2.1,4.4-4.1,4.4c-2.2,0-3.9-1.6-3.9-4.2c0-2.8,1.8-4.4,4.1-4.4
		C222.2,132.5,223.8,134.2,223.8,136.7z M217.3,136.8c0,1.8,1,3.2,2.5,3.2c1.4,0,2.5-1.3,2.5-3.2c0-1.4-0.7-3.2-2.5-3.2
		C218.1,133.6,217.3,135.3,217.3,136.8z"/>
	<path class="st3" d="M236,129.9v1l-4.8,10.1h-1.5l4.8-9.8v0h-5.4v-1.2H236z"/>
	<path class="st3" d="M238,135.4c0-1.1,0-1.9-0.1-2.7h1.3l0.1,1.4h0c0.6-1,1.6-1.6,2.9-1.6c2,0,3.5,1.7,3.5,4.2c0,3-1.8,4.4-3.7,4.4
		c-1.1,0-2-0.5-2.5-1.3h0v4.5H238V135.4z M239.5,137.6c0,0.2,0,0.4,0.1,0.6c0.3,1,1.2,1.8,2.2,1.8c1.6,0,2.5-1.3,2.5-3.2
		c0-1.6-0.9-3.1-2.4-3.1c-1,0-2,0.7-2.3,1.9c-0.1,0.2-0.1,0.4-0.1,0.6V137.6z"/>
	<path class="st3" d="M247.7,134.9c0-0.9,0-1.5-0.1-2.2h1.3l0.1,1.3h0.1c0.5-0.8,1.2-1.5,2.6-1.5c1.1,0,2,0.7,2.3,1.6h0
		c0.3-0.5,0.6-0.8,0.9-1.1c0.5-0.4,1-0.6,1.8-0.6c1.1,0,2.7,0.7,2.7,3.6v4.8H258v-4.7c0-1.6-0.6-2.5-1.8-2.5c-0.8,0-1.5,0.6-1.8,1.4
		c-0.1,0.2-0.1,0.5-0.1,0.7v5.1h-1.5V136c0-1.3-0.6-2.3-1.7-2.3c-0.9,0-1.6,0.7-1.9,1.5c-0.1,0.2-0.1,0.5-0.1,0.7v5h-1.5V134.9z"/>
	<path class="st3" d="M75.9,160.6h-3.5v-1.9h9.2v1.9h-3.5v10.3h-2.2V160.6z"/>
	<path class="st3" d="M86.7,170.9l-0.1-1h-0.1c-0.5,0.7-1.5,1.2-2.6,1.2c-1.8,0-2.8-1.3-2.8-2.6c0-2.2,2-3.3,5.2-3.3V165
		c0-0.6-0.2-1.5-1.8-1.5c-0.9,0-1.8,0.3-2.4,0.6l-0.4-1.4c0.6-0.4,1.8-0.8,3.2-0.8c2.8,0,3.6,1.8,3.6,3.7v3.2c0,0.8,0,1.6,0.1,2.1
		H86.7z M86.5,166.6c-1.6,0-3.1,0.3-3.1,1.6c0,0.9,0.6,1.3,1.3,1.3c0.9,0,1.5-0.6,1.7-1.2c0.1-0.2,0.1-0.3,0.1-0.5V166.6z"/>
	<path class="st3" d="M97.4,170.6c-0.5,0.2-1.4,0.5-2.5,0.5c-2.7,0-4.5-1.7-4.5-4.5c0-2.6,1.8-4.7,4.9-4.7c0.8,0,1.6,0.2,2.1,0.4
		L97,164c-0.4-0.2-0.9-0.3-1.7-0.3c-1.7,0-2.7,1.2-2.7,2.8c0,1.8,1.2,2.8,2.7,2.8c0.8,0,1.3-0.2,1.7-0.3L97.4,170.6z"/>
	<path class="st3" d="M107.2,166.5c0,3.2-2.3,4.7-4.5,4.7c-2.5,0-4.4-1.7-4.4-4.5c0-2.9,1.9-4.6,4.5-4.6
		C105.5,162,107.2,163.8,107.2,166.5z M100.6,166.5c0,1.7,0.8,3,2.2,3c1.3,0,2.1-1.2,2.1-3c0-1.4-0.6-2.9-2.1-2.9
		C101.2,163.6,100.6,165.1,100.6,166.5z"/>
	<path class="st3" d="M109,164.8c0-1,0-1.9-0.1-2.6h1.9l0.1,1.3h0.1c0.4-0.7,1.2-1.5,2.7-1.5c1.2,0,2.1,0.6,2.4,1.6h0
		c0.3-0.5,0.7-0.8,1.1-1.1c0.5-0.3,1-0.5,1.8-0.5c1.5,0,2.9,1,2.9,3.8v5.2h-2.2v-4.8c0-1.5-0.5-2.3-1.6-2.3c-0.8,0-1.3,0.5-1.5,1.2
		c-0.1,0.2-0.1,0.5-0.1,0.7v5.3h-2.2v-5.1c0-1.2-0.5-2.1-1.5-2.1c-0.8,0-1.4,0.6-1.6,1.3c-0.1,0.2-0.1,0.5-0.1,0.7v5.2H109V164.8z"
		/>
	<path class="st3" d="M129.2,170.9l-0.1-1H129c-0.5,0.7-1.5,1.2-2.6,1.2c-1.8,0-2.8-1.3-2.8-2.6c0-2.2,2-3.3,5.2-3.3V165
		c0-0.6-0.2-1.5-1.8-1.5c-0.9,0-1.8,0.3-2.4,0.6l-0.4-1.4c0.6-0.4,1.8-0.8,3.2-0.8c2.8,0,3.6,1.8,3.6,3.7v3.2c0,0.8,0,1.6,0.1,2.1
		H129.2z M128.9,166.6c-1.6,0-3.1,0.3-3.1,1.6c0,0.9,0.6,1.3,1.3,1.3c0.9,0,1.5-0.6,1.7-1.2c0.1-0.2,0.1-0.3,0.1-0.5V166.6z"/>
	<path class="st3" d="M144,165.5h-4.6v3.6h5.1v1.8h-7.3v-12.1h7.1v1.8h-4.8v3.1h4.6V165.5z"/>
	<path class="st3" d="M146.4,158.1h2.2v12.8h-2.2V158.1z"/>
	<path class="st3" d="M153.3,166L153.3,166c0.3-0.3,0.5-0.7,0.7-1l2.1-2.8h2.7l-3.2,3.6l3.7,5.2h-2.7L154,167l-0.8,0.9v3h-2.2v-12.8
		h2.2V166z"/>
	<path class="st3" d="M160.1,168.9c0.5,0.3,1.5,0.6,2.3,0.6c1,0,1.4-0.4,1.4-1c0-0.6-0.4-0.9-1.4-1.3c-1.7-0.6-2.4-1.5-2.4-2.6
		c0-1.5,1.3-2.8,3.3-2.8c1,0,1.8,0.3,2.3,0.5l-0.4,1.6c-0.4-0.2-1.1-0.5-1.9-0.5c-0.8,0-1.2,0.4-1.2,0.9c0,0.6,0.4,0.8,1.5,1.2
		c1.6,0.6,2.3,1.4,2.3,2.7c0,1.6-1.2,2.7-3.6,2.7c-1.1,0-2-0.3-2.7-0.6L160.1,168.9z"/>
	<path class="st3" d="M171.5,158.8h2.2v10.3h5v1.9h-7.2V158.8z"/>
	<path class="st3" d="M188.5,166.5c0,3.2-2.3,4.7-4.5,4.7c-2.5,0-4.4-1.7-4.4-4.5c0-2.9,1.9-4.6,4.5-4.6
		C186.7,162,188.5,163.8,188.5,166.5z M181.9,166.5c0,1.7,0.8,3,2.2,3c1.3,0,2.1-1.2,2.1-3c0-1.4-0.6-2.9-2.1-2.9
		C182.5,163.6,181.9,165.1,181.9,166.5z"/>
	<path class="st3" d="M198.4,158.1v10.3c0,0.9,0,1.9,0.1,2.5h-2l-0.1-1.4h0c-0.5,1-1.6,1.6-2.9,1.6c-2.1,0-3.7-1.8-3.7-4.5
		c0-2.9,1.8-4.7,3.9-4.7c1.2,0,2.1,0.5,2.5,1.2h0v-5H198.4z M196.2,165.8c0-0.2,0-0.4-0.1-0.6c-0.2-0.9-0.9-1.6-1.9-1.6
		c-1.4,0-2.2,1.3-2.2,2.9c0,1.6,0.8,2.8,2.2,2.8c0.9,0,1.7-0.6,1.9-1.6c0.1-0.2,0.1-0.4,0.1-0.6V165.8z"/>
	<path class="st3" d="M208.8,162.1c0,0.6-0.1,1.3-0.1,2.5v5c0,1.8-0.4,3.2-1.3,4c-0.9,0.8-2.2,1.1-3.4,1.1c-1.1,0-2.3-0.2-3.1-0.7
		l0.5-1.7c0.6,0.3,1.5,0.7,2.6,0.7c1.4,0,2.5-0.8,2.5-2.6v-0.8h0c-0.5,0.8-1.4,1.3-2.6,1.3c-2.2,0-3.7-1.8-3.7-4.3
		c0-2.9,1.9-4.6,4-4.6c1.3,0,2.1,0.6,2.5,1.4h0l0.1-1.2H208.8z M206.5,165.7c0-0.2,0-0.4-0.1-0.6c-0.2-0.8-0.9-1.4-1.8-1.4
		c-1.2,0-2.2,1.1-2.2,2.9c0,1.5,0.8,2.7,2.1,2.7c0.8,0,1.5-0.5,1.8-1.3c0.1-0.2,0.1-0.5,0.1-0.8V165.7z"/>
	<path class="st3" d="M212.6,167.2c0.1,1.6,1.3,2.3,2.7,2.3c1,0,1.8-0.1,2.4-0.4l0.3,1.5c-0.8,0.3-1.8,0.5-3.1,0.5
		c-2.8,0-4.5-1.7-4.5-4.4c0-2.4,1.5-4.7,4.3-4.7c2.8,0,3.8,2.3,3.8,4.3c0,0.4,0,0.7-0.1,0.9H212.6z M216.5,165.6
		c0-0.8-0.3-2.1-1.8-2.1c-1.4,0-1.9,1.2-2,2.1H216.5z"/>
	<path class="st7" d="M42.1,188.9v-0.7l0.9-0.9c2.2-2.1,3.1-3.1,3.1-4.4c0-0.9-0.4-1.7-1.7-1.7c-0.8,0-1.4,0.4-1.8,0.7l-0.4-0.8
		c0.6-0.5,1.4-0.9,2.4-0.9c1.8,0,2.6,1.2,2.6,2.5c0,1.6-1.1,2.8-2.9,4.5l-0.7,0.6v0h3.8v0.9H42.1z"/>
	<path class="st7" d="M54.4,184.6c0,2.9-1.1,4.5-2.9,4.5c-1.7,0-2.8-1.5-2.8-4.3c0-2.8,1.2-4.4,2.9-4.4
		C53.4,180.3,54.4,181.9,54.4,184.6z M49.8,184.7c0,2.2,0.7,3.4,1.7,3.4c1.2,0,1.7-1.4,1.7-3.5c0-2.1-0.5-3.4-1.7-3.4
		C50.6,181.2,49.8,182.4,49.8,184.7z"/>
	<path class="st7" d="M58,181.5L58,181.5l-1.5,0.8l-0.2-0.9l1.8-1h1v8.5H58V181.5z"/>
	<path class="st7" d="M65.2,187.5c0.5,0.3,1.2,0.6,2,0.6c1.2,0,1.8-0.6,1.8-1.5c0-0.8-0.5-1.3-1.7-1.7c-1.4-0.5-2.3-1.2-2.3-2.5
		c0-1.4,1.1-2.4,2.8-2.4c0.9,0,1.5,0.2,1.9,0.4l-0.3,0.9c-0.3-0.2-0.9-0.4-1.7-0.4c-1.2,0-1.7,0.7-1.7,1.3c0,0.8,0.5,1.2,1.7,1.7
		c1.5,0.6,2.2,1.3,2.2,2.6c0,1.4-1,2.5-3.1,2.5c-0.8,0-1.8-0.2-2.2-0.6L65.2,187.5z"/>
	<path class="st7" d="M71.4,188.2c0-0.5,0.3-0.8,0.8-0.8s0.8,0.3,0.8,0.8c0,0.5-0.3,0.8-0.8,0.8C71.7,189.1,71.4,188.7,71.4,188.2z"
		/>
	<path class="st7" d="M83.3,188.6c-0.4,0.2-1.2,0.4-2.3,0.4c-2.5,0-4.3-1.6-4.3-4.4c0-2.7,1.9-4.6,4.6-4.6c1.1,0,1.8,0.2,2.1,0.4
		l-0.3,0.9c-0.4-0.2-1-0.4-1.8-0.4c-2.1,0-3.4,1.3-3.4,3.6c0,2.1,1.2,3.5,3.4,3.5c0.7,0,1.4-0.1,1.8-0.4L83.3,188.6z"/>
	<path class="st7" d="M85.2,186c0,1.5,1,2.2,2.2,2.2c0.8,0,1.3-0.1,1.7-0.3l0.2,0.8c-0.4,0.2-1.1,0.4-2.1,0.4
		c-1.9,0-3.1-1.3-3.1-3.2c0-1.9,1.1-3.4,3-3.4c2.1,0,2.6,1.8,2.6,3c0,0.2,0,0.4,0,0.5H85.2z M88.5,185.2c0-0.7-0.3-1.9-1.6-1.9
		c-1.2,0-1.7,1.1-1.8,1.9H88.5z"/>
	<path class="st7" d="M96.5,179.7v7.6c0,0.6,0,1.2,0.1,1.6h-1l-0.1-1.1h0c-0.4,0.7-1.1,1.2-2.1,1.2c-1.5,0-2.7-1.3-2.7-3.2
		c0-2.1,1.3-3.4,2.8-3.4c1,0,1.6,0.5,1.9,1h0v-3.8H96.5z M95.3,185.2c0-0.1,0-0.3-0.1-0.5c-0.2-0.7-0.8-1.3-1.7-1.3
		c-1.2,0-1.9,1-1.9,2.4c0,1.3,0.6,2.3,1.9,2.3c0.8,0,1.5-0.5,1.7-1.4c0-0.2,0.1-0.3,0.1-0.5V185.2z"/>
	<path class="st7" d="M101.8,188.9l-0.1-0.8h0c-0.4,0.5-1,0.9-1.9,0.9c-1.3,0-1.9-0.9-1.9-1.8c0-1.5,1.4-2.4,3.8-2.3v-0.1
		c0-0.5-0.1-1.5-1.4-1.5c-0.6,0-1.2,0.2-1.6,0.5l-0.3-0.8c0.5-0.3,1.3-0.6,2.1-0.6c1.9,0,2.4,1.3,2.4,2.6v2.4c0,0.5,0,1.1,0.1,1.5
		H101.8z M101.7,185.7c-1.2,0-2.7,0.2-2.7,1.4c0,0.7,0.5,1.1,1.1,1.1c0.8,0,1.3-0.5,1.5-1.1c0-0.1,0.1-0.2,0.1-0.4V185.7z"/>
	<path class="st7" d="M104.6,184.6c0-0.7,0-1.4-0.1-2h1l0,1.2h0.1c0.3-0.8,1-1.4,1.7-1.4c0.1,0,0.2,0,0.3,0v1.1c-0.1,0-0.2,0-0.4,0
		c-0.8,0-1.4,0.6-1.5,1.5c0,0.2-0.1,0.3-0.1,0.5v3.4h-1.1V184.6z"/>
	<path class="st7" d="M111.5,187.5c0.5,0.3,1.2,0.6,2,0.6c1.2,0,1.8-0.6,1.8-1.5c0-0.8-0.5-1.3-1.7-1.7c-1.4-0.5-2.3-1.2-2.3-2.5
		c0-1.4,1.1-2.4,2.8-2.4c0.9,0,1.5,0.2,1.9,0.4l-0.3,0.9c-0.3-0.2-0.9-0.4-1.7-0.4c-1.2,0-1.7,0.7-1.7,1.3c0,0.8,0.5,1.2,1.7,1.7
		c1.5,0.6,2.2,1.3,2.2,2.6c0,1.4-1,2.5-3.1,2.5c-0.8,0-1.8-0.2-2.2-0.6L111.5,187.5z"/>
	<path class="st7" d="M119.4,180.8v1.8h1.6v0.9h-1.6v3.4c0,0.8,0.2,1.2,0.9,1.2c0.3,0,0.5,0,0.7-0.1l0.1,0.9c-0.2,0.1-0.6,0.2-1,0.2
		c-0.5,0-1-0.2-1.2-0.5c-0.3-0.3-0.4-0.9-0.4-1.6v-3.4h-1v-0.9h1v-1.5L119.4,180.8z"/>
	<path class="st7" d="M122.3,184.6c0-0.7,0-1.4-0.1-2h1l0,1.2h0.1c0.3-0.8,1-1.4,1.7-1.4c0.1,0,0.2,0,0.3,0v1.1c-0.1,0-0.2,0-0.4,0
		c-0.8,0-1.4,0.6-1.5,1.5c0,0.2-0.1,0.3-0.1,0.5v3.4h-1.1V184.6z"/>
	<path class="st7" d="M127.1,186c0,1.5,1,2.2,2.2,2.2c0.8,0,1.3-0.1,1.7-0.3l0.2,0.8c-0.4,0.2-1.1,0.4-2.1,0.4
		c-1.9,0-3.1-1.3-3.1-3.2c0-1.9,1.1-3.4,3-3.4c2.1,0,2.6,1.8,2.6,3c0,0.2,0,0.4,0,0.5H127.1z M130.4,185.2c0-0.7-0.3-1.9-1.6-1.9
		c-1.2,0-1.7,1.1-1.8,1.9H130.4z"/>
	<path class="st7" d="M133.6,186c0,1.5,1,2.2,2.2,2.2c0.8,0,1.3-0.1,1.7-0.3l0.2,0.8c-0.4,0.2-1.1,0.4-2.1,0.4
		c-1.9,0-3.1-1.3-3.1-3.2c0-1.9,1.1-3.4,3-3.4c2.1,0,2.6,1.8,2.6,3c0,0.2,0,0.4,0,0.5H133.6z M136.9,185.2c0-0.7-0.3-1.9-1.6-1.9
		c-1.2,0-1.7,1.1-1.8,1.9H136.9z"/>
	<path class="st7" d="M140.8,180.8v1.8h1.6v0.9h-1.6v3.4c0,0.8,0.2,1.2,0.9,1.2c0.3,0,0.5,0,0.7-0.1l0.1,0.9c-0.2,0.1-0.6,0.2-1,0.2
		c-0.5,0-1-0.2-1.2-0.5c-0.3-0.3-0.4-0.9-0.4-1.6v-3.4h-1v-0.9h1v-1.5L140.8,180.8z"/>
	<path class="st7" d="M146,185.5c0-0.8,0.6-1.4,1.4-1.4c0.8,0,1.4,0.6,1.4,1.4c0,0.8-0.6,1.4-1.4,1.4
		C146.6,186.9,146,186.3,146,185.5z"/>
	<path class="st7" d="M154.1,181.1h-2.7v-1h6.5v1h-2.7v7.8h-1.1V181.1z"/>
	<path class="st7" d="M161.5,188.9l-0.1-0.8h0c-0.4,0.5-1,0.9-1.9,0.9c-1.3,0-1.9-0.9-1.9-1.8c0-1.5,1.4-2.4,3.8-2.3v-0.1
		c0-0.5-0.1-1.5-1.4-1.5c-0.6,0-1.2,0.2-1.6,0.5L158,183c0.5-0.3,1.3-0.6,2.1-0.6c1.9,0,2.4,1.3,2.4,2.6v2.4c0,0.5,0,1.1,0.1,1.5
		H161.5z M161.3,185.7c-1.2,0-2.7,0.2-2.7,1.4c0,0.7,0.5,1.1,1.1,1.1c0.8,0,1.3-0.5,1.5-1.1c0-0.1,0.1-0.2,0.1-0.4V185.7z"/>
	<path class="st7" d="M168.8,188.7c-0.3,0.2-1,0.4-1.8,0.4c-1.9,0-3.1-1.3-3.1-3.2c0-1.9,1.3-3.3,3.4-3.3c0.7,0,1.3,0.2,1.6,0.3
		l-0.3,0.9c-0.3-0.2-0.7-0.3-1.3-0.3c-1.4,0-2.2,1.1-2.2,2.4c0,1.5,0.9,2.4,2.2,2.4c0.7,0,1.1-0.2,1.4-0.3L168.8,188.7z"/>
	<path class="st7" d="M175.7,185.7c0,2.3-1.6,3.3-3.1,3.3c-1.7,0-3-1.2-3-3.2c0-2.1,1.4-3.3,3.1-3.3
		C174.5,182.5,175.7,183.8,175.7,185.7z M170.7,185.8c0,1.4,0.8,2.4,1.9,2.4c1.1,0,1.9-1,1.9-2.4c0-1.1-0.5-2.4-1.9-2.4
		C171.3,183.3,170.7,184.6,170.7,185.8z"/>
	<path class="st7" d="M177.2,184.3c0-0.7,0-1.2-0.1-1.7h1l0.1,1h0c0.4-0.6,0.9-1.2,2-1.2c0.9,0,1.5,0.5,1.8,1.3h0
		c0.2-0.4,0.4-0.6,0.7-0.8c0.4-0.3,0.8-0.4,1.4-0.4c0.8,0,2.1,0.5,2.1,2.7v3.7H185v-3.6c0-1.2-0.4-1.9-1.4-1.9c-0.6,0-1.2,0.5-1.4,1
		c-0.1,0.2-0.1,0.4-0.1,0.6v3.9h-1.1v-3.8c0-1-0.4-1.7-1.3-1.7c-0.7,0-1.2,0.6-1.4,1.1c-0.1,0.2-0.1,0.4-0.1,0.6v3.8h-1.1V184.3z"/>
	<path class="st7" d="M191.5,188.9l-0.1-0.8h0c-0.4,0.5-1,0.9-1.9,0.9c-1.3,0-1.9-0.9-1.9-1.8c0-1.5,1.4-2.4,3.8-2.3v-0.1
		c0-0.5-0.1-1.5-1.4-1.5c-0.6,0-1.2,0.2-1.6,0.5L188,183c0.5-0.3,1.3-0.6,2.1-0.6c1.9,0,2.4,1.3,2.4,2.6v2.4c0,0.5,0,1.1,0.1,1.5
		H191.5z M191.3,185.7c-1.2,0-2.7,0.2-2.7,1.4c0,0.7,0.5,1.1,1.1,1.1c0.8,0,1.3-0.5,1.5-1.1c0-0.1,0.1-0.2,0.1-0.4V185.7z"/>
	<path class="st7" d="M198,188.9l-2.2-8.8h1.2l1,4.4c0.3,1.1,0.5,2.2,0.6,3h0c0.1-0.9,0.4-1.9,0.7-3l1.2-4.4h1.2l1.1,4.4
		c0.2,1,0.5,2.1,0.6,3h0c0.2-1,0.4-1.9,0.7-3l1.2-4.4h1.2l-2.5,8.8h-1.2l-1.1-4.6c-0.3-1.1-0.5-2-0.6-2.9h0
		c-0.2,0.9-0.4,1.7-0.7,2.9l-1.2,4.6H198z"/>
	<path class="st7" d="M208.3,186.2l-0.9,2.8h-1.2l3-8.8h1.4l3,8.8h-1.2l-0.9-2.8H208.3z M211.2,185.3l-0.9-2.5
		c-0.2-0.6-0.3-1.1-0.5-1.6h0c-0.1,0.5-0.3,1.1-0.4,1.6l-0.9,2.5H211.2z"/>
	<path class="st7" d="M217.8,188.1c0.2,0,0.5,0,0.9,0c0.7-0.1,1.3-0.4,1.8-0.8c0.6-0.5,1-1.2,1.1-2.2h0c-0.5,0.6-1.1,0.9-2,0.9
		c-1.5,0-2.5-1.1-2.5-2.6c0-1.6,1.2-3,2.9-3s2.8,1.4,2.8,3.6c0,1.9-0.6,3.2-1.5,4c-0.6,0.6-1.5,1-2.5,1.1c-0.4,0.1-0.8,0.1-1.1,0.1
		V188.1z M218.3,183.2c0,1.1,0.6,1.8,1.6,1.8c0.8,0,1.4-0.4,1.7-0.9c0.1-0.1,0.1-0.2,0.1-0.4c0-1.4-0.5-2.5-1.7-2.5
		C219,181.2,218.3,182.1,218.3,183.2z"/>
	<path class="st7" d="M223.7,186.8c0-1.1,0.6-1.8,1.7-2.3l0,0c-0.9-0.4-1.3-1.2-1.3-1.9c0-1.3,1.1-2.2,2.6-2.2c1.6,0,2.5,1,2.5,2.1
		c0,0.7-0.4,1.5-1.4,2v0c1.1,0.4,1.7,1.2,1.7,2.2c0,1.5-1.3,2.5-2.9,2.5C224.8,189.1,223.7,188,223.7,186.8z M228.3,186.7
		c0-1-0.7-1.5-1.9-1.8c-1,0.3-1.5,0.9-1.5,1.7c0,0.9,0.6,1.6,1.7,1.6C227.6,188.2,228.3,187.6,228.3,186.7z M225.2,182.5
		c0,0.8,0.6,1.3,1.6,1.6c0.7-0.2,1.3-0.8,1.3-1.5c0-0.7-0.4-1.4-1.4-1.4C225.7,181.1,225.2,181.8,225.2,182.5z"/>
	<path class="st7" d="M234.1,188.9v-2.3h-3.9v-0.8l3.8-5.4h1.2v5.3h1.2v0.9h-1.2v2.3H234.1z M234.1,185.7v-2.8c0-0.4,0-0.9,0-1.3h0
		c-0.3,0.5-0.5,0.9-0.7,1.2l-2.1,2.9v0H234.1z"/>
	<path class="st7" d="M242.8,184.6c0,2.9-1.1,4.5-2.9,4.5c-1.7,0-2.8-1.5-2.8-4.3c0-2.8,1.2-4.4,2.9-4.4
		C241.8,180.3,242.8,181.9,242.8,184.6z M238.2,184.7c0,2.2,0.7,3.4,1.7,3.4c1.2,0,1.7-1.4,1.7-3.5c0-2.1-0.5-3.4-1.7-3.4
		C238.9,181.2,238.2,182.4,238.2,184.7z"/>
	<path class="st7" d="M248.9,181.4h-3.2l-0.3,2.2c0.2,0,0.4-0.1,0.7-0.1c0.7,0,1.3,0.1,1.8,0.5c0.7,0.4,1.2,1.1,1.2,2.2
		c0,1.7-1.3,2.9-3.1,2.9c-0.9,0-1.7-0.3-2.1-0.5l0.3-0.9c0.4,0.2,1,0.5,1.8,0.5c1.1,0,2-0.7,2-1.8c0-1.1-0.7-1.9-2.4-1.9
		c-0.5,0-0.9,0.1-1.2,0.1l0.5-4.1h4V181.4z"/>
	<path class="st2" d="M22.5,216.9c0.6,0.3,1.5,0.6,2.4,0.6c1.2,0,1.8-0.6,1.8-1.4c0-0.8-0.5-1.2-1.8-1.7c-1.7-0.6-2.7-1.5-2.7-2.9
		c0-1.7,1.4-2.9,3.6-2.9c1.1,0,1.9,0.2,2.4,0.5l-0.5,1.5c-0.4-0.2-1.1-0.5-2-0.5c-1.2,0-1.7,0.6-1.7,1.2c0,0.8,0.6,1.1,1.9,1.7
		c1.8,0.7,2.6,1.5,2.6,3c0,1.6-1.2,3-3.8,3c-1.1,0-2.2-0.3-2.7-0.6L22.5,216.9z"/>
	<path class="st2" d="M39.3,213.8c0,3.4-2.1,5.3-4.8,5.3c-2.9,0-4.6-2.2-4.6-5.1c0-3.1,1.9-5.3,4.8-5.3
		C37.6,208.6,39.3,210.9,39.3,213.8z M31.8,213.9c0,2.1,1,3.7,2.8,3.7c1.8,0,2.8-1.6,2.8-3.8c0-1.9-0.9-3.7-2.8-3.7
		C32.7,210.1,31.8,211.8,31.8,213.9z"/>
	<path class="st2" d="M48.1,218.6c-0.4,0.2-1.4,0.5-2.6,0.5c-3.2,0-5.2-2-5.2-5.1c0-3.3,2.3-5.3,5.4-5.3c1.2,0,2.1,0.3,2.5,0.5
		l-0.4,1.5c-0.5-0.2-1.1-0.4-2-0.4c-2.1,0-3.5,1.3-3.5,3.7c0,2.2,1.3,3.6,3.5,3.6c0.8,0,1.5-0.2,2-0.4L48.1,218.6z"/>
	<path class="st2" d="M51.6,208.8v10.1h-1.8v-10.1H51.6z"/>
	<path class="st2" d="M55.7,216.1l-0.9,2.9h-1.9l3.2-10.1h2.4l3.3,10.1h-2l-0.9-2.9H55.7z M58.6,214.7l-0.8-2.5
		c-0.2-0.6-0.4-1.3-0.5-1.9h0c-0.1,0.6-0.3,1.3-0.5,1.9l-0.8,2.5H58.6z"/>
	<path class="st2" d="M63.2,208.8h1.8v8.6h4.2v1.5h-6V208.8z"/>
	<path class="st2" d="M75.6,208.8v4h4.3v-4h1.8v10.1h-1.8v-4.5h-4.3v4.5h-1.8v-10.1H75.6z"/>
	<path class="st2" d="M92.8,213.8c0,3.4-2.1,5.3-4.8,5.3c-2.9,0-4.6-2.2-4.6-5.1c0-3.1,1.9-5.3,4.8-5.3
		C91,208.6,92.8,210.9,92.8,213.8z M85.2,213.9c0,2.1,1,3.7,2.8,3.7c1.8,0,2.8-1.6,2.8-3.8c0-1.9-0.9-3.7-2.8-3.7
		C86.2,210.1,85.2,211.8,85.2,213.9z"/>
	<path class="st2" d="M96.2,208.8v5.9c0,2,0.8,2.9,2.1,2.9c1.3,0,2.1-0.9,2.1-2.9v-5.9h1.8v5.8c0,3.1-1.6,4.5-4,4.5
		c-2.3,0-3.9-1.3-3.9-4.5v-5.8H96.2z"/>
	<path class="st2" d="M104.3,208.9c0.7-0.1,1.7-0.2,2.8-0.2c1.5,0,2.4,0.2,3.1,0.8c0.6,0.5,0.9,1.2,0.9,2c0,1.3-0.9,2.2-1.8,2.5v0
		c0.7,0.3,1.2,1,1.4,1.9c0.3,1.3,0.6,2.4,0.8,2.8h-1.9c-0.2-0.3-0.4-1.1-0.7-2.4c-0.3-1.3-0.8-1.7-1.8-1.8h-0.9v4.2h-1.8V208.9z
		 M106.2,213.4h1.1c1.2,0,2-0.7,2-1.7c0-1.1-0.8-1.6-2-1.6c-0.6,0-1,0-1.1,0.1V213.4z"/>
	<path class="st2" d="M112.6,212.9c0-0.7,0.5-1.2,1.1-1.2c0.7,0,1.1,0.5,1.1,1.2c0,0.7-0.5,1.2-1.1,1.2
		C113,214,112.6,213.5,112.6,212.9z M112.6,217.9c0-0.7,0.5-1.2,1.1-1.2c0.7,0,1.1,0.5,1.1,1.2c0,0.7-0.5,1.2-1.1,1.2
		C113,219.1,112.6,218.6,112.6,217.9z"/>
	<path class="st3" d="M123.6,218.9l-0.1-0.9h0c-0.4,0.6-1.2,1.1-2.2,1.1c-1.5,0-2.2-1-2.2-2.1c0-1.8,1.6-2.7,4.4-2.7v-0.1
		c0-0.6-0.2-1.7-1.6-1.7c-0.7,0-1.4,0.2-1.9,0.5l-0.3-0.9c0.6-0.4,1.5-0.6,2.4-0.6c2.2,0,2.8,1.5,2.8,3v2.7c0,0.6,0,1.2,0.1,1.7
		H123.6z M123.5,215.2c-1.4,0-3.1,0.2-3.1,1.6c0,0.9,0.6,1.3,1.2,1.3c0.9,0,1.5-0.6,1.8-1.2c0-0.1,0.1-0.3,0.1-0.4V215.2z"/>
	<path class="st3" d="M126.9,214c0-0.9,0-1.7-0.1-2.4h1.2l0.1,1.2h0c0.5-0.9,1.4-1.4,2.6-1.4c1.8,0,3.1,1.5,3.1,3.7
		c0,2.6-1.6,3.9-3.3,3.9c-1,0-1.8-0.4-2.2-1.1h0v3.9h-1.3V214z M128.2,216c0,0.2,0,0.4,0.1,0.5c0.2,0.9,1,1.5,2,1.5
		c1.4,0,2.2-1.1,2.2-2.8c0-1.5-0.8-2.7-2.2-2.7c-0.9,0-1.7,0.6-2,1.6c0,0.2-0.1,0.4-0.1,0.5V216z"/>
	<path class="st3" d="M135.4,214c0-0.9,0-1.7-0.1-2.4h1.2l0.1,1.2h0c0.5-0.9,1.4-1.4,2.6-1.4c1.8,0,3.1,1.5,3.1,3.7
		c0,2.6-1.6,3.9-3.3,3.9c-1,0-1.8-0.4-2.2-1.1h0v3.9h-1.3V214z M136.7,216c0,0.2,0,0.4,0.1,0.5c0.2,0.9,1,1.5,2,1.5
		c1.4,0,2.2-1.1,2.2-2.8c0-1.5-0.8-2.7-2.2-2.7c-0.9,0-1.7,0.6-2,1.6c0,0.2-0.1,0.4-0.1,0.5V216z"/>
	<path class="st3" d="M144.7,215.5c0,1.8,1.2,2.5,2.5,2.5c0.9,0,1.5-0.2,2-0.4l0.2,0.9c-0.5,0.2-1.3,0.5-2.4,0.5
		c-2.2,0-3.6-1.5-3.6-3.7c0-2.2,1.3-3.9,3.4-3.9c2.4,0,3,2.1,3,3.4c0,0.3,0,0.5,0,0.6H144.7z M148.5,214.6c0-0.8-0.3-2.1-1.8-2.1
		c-1.3,0-1.9,1.2-2,2.1H148.5z"/>
	<path class="st3" d="M153,209.6v2.1h1.9v1H153v3.9c0,0.9,0.3,1.4,1,1.4c0.3,0,0.6,0,0.8-0.1l0.1,1c-0.3,0.1-0.7,0.2-1.2,0.2
		c-0.6,0-1.1-0.2-1.4-0.6c-0.4-0.4-0.5-1-0.5-1.9v-4h-1.1v-1h1.1v-1.7L153,209.6z"/>
	<path class="st3" d="M157.9,209.6c0,0.5-0.3,0.8-0.8,0.8c-0.5,0-0.8-0.4-0.8-0.8c0-0.5,0.3-0.8,0.8-0.8
		C157.6,208.8,157.9,209.2,157.9,209.6z M156.4,218.9v-7.3h1.3v7.3H156.4z"/>
	<path class="st3" d="M159.1,218.2l3.3-4.3c0.3-0.4,0.6-0.7,0.9-1.1v0h-3.9v-1.1h5.5l0,0.8l-3.2,4.2c-0.3,0.4-0.6,0.8-0.9,1.1v0h4.2
		v1h-5.9V218.2z"/>
	<path class="st3" d="M167,215.5c0,1.8,1.2,2.5,2.5,2.5c0.9,0,1.5-0.2,2-0.4l0.2,0.9c-0.5,0.2-1.3,0.5-2.4,0.5
		c-2.2,0-3.6-1.5-3.6-3.7c0-2.2,1.3-3.9,3.4-3.9c2.4,0,3,2.1,3,3.4c0,0.3,0,0.5,0,0.6H167z M170.8,214.6c0-0.8-0.3-2.1-1.8-2.1
		c-1.3,0-1.9,1.2-2,2.1H170.8z"/>
	<path class="st3" d="M173.7,213.9c0-0.9,0-1.6-0.1-2.3h1.2l0,1.4h0.1c0.3-1,1.1-1.6,2-1.6c0.2,0,0.3,0,0.4,0v1.2
		c-0.1,0-0.3,0-0.4,0c-0.9,0-1.6,0.7-1.8,1.7c0,0.2-0.1,0.4-0.1,0.6v3.9h-1.3V213.9z"/>
	<path class="st3" d="M178.5,217.6c0.4,0.3,1.1,0.5,1.7,0.5c1,0,1.4-0.5,1.4-1.1c0-0.6-0.4-1-1.4-1.3c-1.3-0.5-1.9-1.2-1.9-2.1
		c0-1.2,0.9-2.1,2.5-2.1c0.7,0,1.4,0.2,1.8,0.5l-0.3,1c-0.3-0.2-0.8-0.4-1.5-0.4c-0.8,0-1.2,0.5-1.2,1c0,0.6,0.4,0.9,1.4,1.2
		c1.3,0.5,1.9,1.1,1.9,2.2c0,1.3-1,2.2-2.7,2.2c-0.8,0-1.5-0.2-2-0.5L178.5,217.6z"/>
	<path class="st3" d="M183.6,220.8c0.3-0.9,0.7-2.5,0.9-3.6l1.5-0.1c-0.3,1.3-1,2.9-1.4,3.6L183.6,220.8z"/>
	<path class="st3" d="M190.7,218.9c0-0.5,0.1-1.2,0.1-1.9v-8.8h1.3v4.6h0c0.5-0.8,1.3-1.3,2.5-1.3c1.8,0,3.1,1.5,3.1,3.7
		c0,2.6-1.6,3.9-3.3,3.9c-1,0-1.9-0.4-2.4-1.4h0l-0.1,1.2H190.7z M192,216c0,0.2,0,0.3,0.1,0.5c0.3,0.9,1,1.5,2,1.5
		c1.4,0,2.2-1.1,2.2-2.8c0-1.5-0.8-2.7-2.2-2.7c-0.9,0-1.7,0.6-2,1.6c0,0.2-0.1,0.3-0.1,0.5V216z"/>
	<path class="st3" d="M200,215.5c0,1.8,1.2,2.5,2.5,2.5c0.9,0,1.5-0.2,2-0.4l0.2,0.9c-0.5,0.2-1.3,0.5-2.4,0.5
		c-2.2,0-3.6-1.5-3.6-3.7c0-2.2,1.3-3.9,3.4-3.9c2.4,0,3,2.1,3,3.4c0,0.3,0,0.5,0,0.6H200z M203.9,214.6c0-0.8-0.3-2.1-1.8-2.1
		c-1.3,0-1.9,1.2-2,2.1H203.9z"/>
	<path class="st3" d="M207.5,215.5c0,1.8,1.2,2.5,2.5,2.5c0.9,0,1.5-0.2,2-0.4l0.2,0.9c-0.5,0.2-1.3,0.5-2.4,0.5
		c-2.2,0-3.6-1.5-3.6-3.7c0-2.2,1.3-3.9,3.4-3.9c2.4,0,3,2.1,3,3.4c0,0.3,0,0.5,0,0.6H207.5z M211.4,214.6c0-0.8-0.3-2.1-1.8-2.1
		c-1.3,0-1.9,1.2-2,2.1H211.4z"/>
	<path class="st3" d="M214.3,213.9c0-0.9,0-1.6-0.1-2.3h1.2l0,1.4h0.1c0.3-1,1.1-1.6,2-1.6c0.2,0,0.3,0,0.4,0v1.2
		c-0.1,0-0.3,0-0.4,0c-0.9,0-1.6,0.7-1.8,1.7c0,0.2-0.1,0.4-0.1,0.6v3.9h-1.3V213.9z"/>
	<path class="st3" d="M228.7,218.9c-0.3-0.3-0.6-0.6-0.9-1c-0.9,0.8-1.8,1.2-3,1.2c-2,0-3.1-1.3-3.1-2.8c0-1.4,0.8-2.3,2-3v0
		c-0.5-0.7-0.8-1.4-0.8-2.1c0-1.2,0.9-2.5,2.6-2.5c1.3,0,2.2,0.8,2.2,2.1c0,1.1-0.6,1.9-2.2,2.7v0c0.9,1,1.8,2.1,2.5,2.8
		c0.5-0.7,0.8-1.7,1-3h1.2c-0.3,1.6-0.7,2.8-1.5,3.7c0.5,0.6,1.1,1.1,1.7,1.8H228.7z M227.1,217.2c-0.6-0.7-1.7-1.9-2.8-3.2
		c-0.5,0.3-1.3,1-1.3,2.1c0,1.2,0.9,2,2.1,2C225.9,218.1,226.7,217.7,227.1,217.2z M224.1,211c0,0.7,0.3,1.3,0.8,1.8
		c1-0.6,1.7-1.1,1.7-2c0-0.6-0.3-1.3-1.2-1.3C224.5,209.5,224.1,210.2,224.1,211z"/>
	<path class="st3" d="M235.1,211.7l1,3.7c0.2,0.8,0.4,1.6,0.5,2.3h0c0.2-0.7,0.4-1.5,0.6-2.3l1.2-3.7h1.1l1.1,3.6
		c0.3,0.9,0.5,1.6,0.6,2.4h0c0.1-0.7,0.3-1.5,0.6-2.4l1-3.6h1.3l-2.3,7.3h-1.2l-1.1-3.5c-0.3-0.8-0.5-1.5-0.6-2.4h0
		c-0.2,0.9-0.4,1.6-0.7,2.4l-1.2,3.5H236l-2.2-7.3H235.1z"/>
	<path class="st3" d="M247.1,209.6c0,0.5-0.3,0.8-0.8,0.8c-0.5,0-0.8-0.4-0.8-0.8c0-0.5,0.3-0.8,0.8-0.8
		C246.8,208.8,247.1,209.2,247.1,209.6z M245.7,218.9v-7.3h1.3v7.3H245.7z"/>
	<path class="st3" d="M249.2,213.6c0-0.8,0-1.4-0.1-2h1.2l0.1,1.2h0c0.4-0.7,1.2-1.4,2.4-1.4c1,0,2.6,0.6,2.6,3.1v4.3H254v-4.2
		c0-1.2-0.4-2.1-1.7-2.1c-0.9,0-1.5,0.6-1.8,1.4c-0.1,0.2-0.1,0.4-0.1,0.6v4.4h-1.3V213.6z"/>
	<path class="st3" d="M258.2,215.5c0,1.8,1.2,2.5,2.5,2.5c0.9,0,1.5-0.2,2-0.4l0.2,0.9c-0.5,0.2-1.3,0.5-2.4,0.5
		c-2.2,0-3.6-1.5-3.6-3.7c0-2.2,1.3-3.9,3.4-3.9c2.4,0,3,2.1,3,3.4c0,0.3,0,0.5,0,0.6H258.2z M262.1,214.6c0-0.8-0.3-2.1-1.8-2.1
		c-1.3,0-1.9,1.2-2,2.1H262.1z"/>
	<path class="st3" d="M264,220.8c0.3-0.9,0.7-2.5,0.9-3.6l1.5-0.1c-0.3,1.3-1,2.9-1.4,3.6L264,220.8z"/>
	<path class="st3" d="M7.2,225.3v8.8c0,0.6,0,1.4,0.1,1.9H6.1L6,234.7h0c-0.4,0.8-1.3,1.4-2.5,1.4c-1.8,0-3.1-1.5-3.1-3.7
		c0-2.4,1.5-3.9,3.3-3.9c1.1,0,1.9,0.5,2.2,1.1h0v-4.3H7.2z M5.9,231.6c0-0.2,0-0.4-0.1-0.6c-0.2-0.8-0.9-1.5-1.9-1.5
		c-1.4,0-2.2,1.2-2.2,2.8c0,1.5,0.7,2.7,2.1,2.7c0.9,0,1.7-0.6,1.9-1.6c0-0.2,0.1-0.4,0.1-0.6V231.6z"/>
	<path class="st3" d="M10.2,232.5c0,1.8,1.2,2.5,2.5,2.5c0.9,0,1.5-0.2,2-0.4l0.2,0.9c-0.5,0.2-1.3,0.5-2.4,0.5
		c-2.2,0-3.6-1.5-3.6-3.7c0-2.2,1.3-3.9,3.4-3.9c2.4,0,3,2.1,3,3.4c0,0.3,0,0.5,0,0.6H10.2z M14,231.6c0-0.8-0.3-2.1-1.8-2.1
		c-1.3,0-1.9,1.2-2,2.1H14z"/>
	<path class="st3" d="M16.8,234.6c0.4,0.3,1.1,0.5,1.7,0.5c1,0,1.4-0.5,1.4-1.1c0-0.6-0.4-1-1.4-1.3c-1.3-0.5-1.9-1.2-1.9-2.1
		c0-1.2,0.9-2.1,2.5-2.1c0.7,0,1.4,0.2,1.8,0.5l-0.3,1c-0.3-0.2-0.8-0.4-1.5-0.4c-0.8,0-1.2,0.5-1.2,1c0,0.6,0.4,0.9,1.4,1.2
		c1.3,0.5,1.9,1.1,1.9,2.2c0,1.3-1,2.2-2.7,2.2c-0.8,0-1.5-0.2-2-0.5L16.8,234.6z"/>
	<path class="st3" d="M22.7,234.6c0.4,0.3,1.1,0.5,1.7,0.5c1,0,1.4-0.5,1.4-1.1c0-0.6-0.4-1-1.4-1.3c-1.3-0.5-1.9-1.2-1.9-2.1
		c0-1.2,0.9-2.1,2.5-2.1c0.7,0,1.4,0.2,1.8,0.5l-0.3,1c-0.3-0.2-0.8-0.4-1.5-0.4c-0.8,0-1.2,0.5-1.2,1c0,0.6,0.4,0.9,1.4,1.2
		c1.3,0.5,1.9,1.1,1.9,2.2c0,1.3-1,2.2-2.7,2.2c-0.8,0-1.5-0.2-2-0.5L22.7,234.6z"/>
	<path class="st3" d="M29.5,232.5c0,1.8,1.2,2.5,2.5,2.5c0.9,0,1.5-0.2,2-0.4l0.2,0.9c-0.5,0.2-1.3,0.5-2.4,0.5
		c-2.2,0-3.6-1.5-3.6-3.7c0-2.2,1.3-3.9,3.4-3.9c2.4,0,3,2.1,3,3.4c0,0.3,0,0.5,0,0.6H29.5z M33.4,231.6c0-0.8-0.3-2.1-1.8-2.1
		c-1.3,0-1.9,1.2-2,2.1H33.4z"/>
	<path class="st3" d="M36.3,230.9c0-0.9,0-1.6-0.1-2.3h1.2l0,1.4h0.1c0.3-1,1.1-1.6,2-1.6c0.1,0,0.3,0,0.4,0v1.2c-0.1,0-0.3,0-0.4,0
		c-0.9,0-1.6,0.7-1.8,1.7c0,0.2-0.1,0.4-0.1,0.6v3.9h-1.3V230.9z"/>
	<path class="st3" d="M43.2,226.6v2.1h1.9v1h-1.9v3.9c0,0.9,0.3,1.4,1,1.4c0.3,0,0.6,0,0.8-0.1l0.1,1c-0.3,0.1-0.7,0.2-1.2,0.2
		c-0.6,0-1.1-0.2-1.4-0.6c-0.4-0.4-0.5-1-0.5-1.9v-4h-1.1v-1h1.1v-1.7L43.2,226.6z"/>
	<path class="st3" d="M56,225.3v8.8c0,0.6,0,1.4,0.1,1.9h-1.2l-0.1-1.3h0c-0.4,0.8-1.3,1.4-2.5,1.4c-1.8,0-3.1-1.5-3.1-3.7
		c0-2.4,1.5-3.9,3.3-3.9c1.1,0,1.9,0.5,2.2,1.1h0v-4.3H56z M54.7,231.6c0-0.2,0-0.4-0.1-0.6c-0.2-0.8-0.9-1.5-1.9-1.5
		c-1.4,0-2.2,1.2-2.2,2.8c0,1.5,0.7,2.7,2.1,2.7c0.9,0,1.7-0.6,1.9-1.6c0-0.2,0.1-0.4,0.1-0.6V231.6z"/>
	<path class="st3" d="M62.2,235.9l-0.1-0.9h0c-0.4,0.6-1.2,1.1-2.2,1.1c-1.5,0-2.2-1-2.2-2.1c0-1.8,1.6-2.7,4.4-2.7v-0.1
		c0-0.6-0.2-1.7-1.6-1.7c-0.7,0-1.4,0.2-1.9,0.5l-0.3-0.9c0.6-0.4,1.5-0.6,2.4-0.6c2.2,0,2.8,1.5,2.8,3v2.7c0,0.6,0,1.2,0.1,1.7
		H62.2z M62,232.2c-1.4,0-3.1,0.2-3.1,1.6c0,0.9,0.6,1.3,1.2,1.3c0.9,0,1.5-0.6,1.8-1.2c0-0.1,0.1-0.3,0.1-0.4V232.2z"/>
	<path class="st3" d="M65.2,234.6c0.4,0.3,1.1,0.5,1.7,0.5c1,0,1.4-0.5,1.4-1.1c0-0.6-0.4-1-1.4-1.3c-1.3-0.5-1.9-1.2-1.9-2.1
		c0-1.2,0.9-2.1,2.5-2.1c0.7,0,1.4,0.2,1.8,0.5l-0.3,1c-0.3-0.2-0.8-0.4-1.5-0.4c-0.8,0-1.2,0.5-1.2,1c0,0.6,0.4,0.9,1.4,1.2
		c1.3,0.5,1.9,1.1,1.9,2.2c0,1.3-1,2.2-2.7,2.2c-0.8,0-1.5-0.2-2-0.5L65.2,234.6z"/>
	<path class="st3" d="M71.4,225.3h1.3v4.5h0c0.2-0.4,0.5-0.7,0.9-0.9c0.4-0.2,0.9-0.4,1.4-0.4c1,0,2.5,0.6,2.5,3.1v4.3h-1.3v-4.2
		c0-1.2-0.4-2.2-1.7-2.2c-0.9,0-1.5,0.6-1.8,1.3c-0.1,0.2-0.1,0.4-0.1,0.6v4.4h-1.3V225.3z"/>
	<path class="st3" d="M78.8,237.8c0.3-0.9,0.7-2.5,0.9-3.6l1.5-0.1c-0.3,1.3-1,2.9-1.4,3.6L78.8,237.8z"/>
	<path class="st3" d="M86,230.9c0-0.9,0-1.6-0.1-2.3h1.2l0,1.4h0.1c0.3-1,1.1-1.6,2-1.6c0.1,0,0.3,0,0.4,0v1.2c-0.1,0-0.3,0-0.4,0
		c-0.9,0-1.6,0.7-1.8,1.7c0,0.2-0.1,0.4-0.1,0.6v3.9H86V230.9z"/>
	<path class="st3" d="M94.8,235.9l-0.1-0.9h0c-0.4,0.6-1.2,1.1-2.2,1.1c-1.5,0-2.2-1-2.2-2.1c0-1.8,1.6-2.7,4.4-2.7v-0.1
		c0-0.6-0.2-1.7-1.6-1.7c-0.7,0-1.4,0.2-1.9,0.5l-0.3-0.9c0.6-0.4,1.5-0.6,2.4-0.6c2.2,0,2.8,1.5,2.8,3v2.7c0,0.6,0,1.2,0.1,1.7
		H94.8z M94.6,232.2c-1.4,0-3.1,0.2-3.1,1.6c0,0.9,0.6,1.3,1.2,1.3c0.9,0,1.5-0.6,1.8-1.2c0-0.1,0.1-0.3,0.1-0.4V232.2z"/>
	<path class="st3" d="M101.8,226.5c-0.3-0.1-0.6-0.2-0.9-0.2c-0.4,0-0.8,0.1-1,0.4c-0.4,0.4-0.5,1-0.5,1.7v0.3h3.1v-0.3
		c0-1,0.4-1.9,1-2.5c0.6-0.5,1.3-0.7,2.3-0.7c0.8,0,1.6,0.2,2.2,0.5v10.3h-1.3v-9.6c-0.2-0.1-0.6-0.2-1.1-0.2c-1.4,0-1.8,1-1.8,2.2
		v0.4h1.7v1h-1.7v6.3h-1.3v-6.3h-3.1v6.3h-1.3v-6.3h-1v-1h1v-0.2c0-0.9,0.2-1.9,0.8-2.5c0.5-0.5,1.1-0.7,2-0.7c0.5,0,1,0.2,1.2,0.3
		L101.8,226.5z"/>
	<path class="st3" d="M111,232.5c0,1.8,1.2,2.5,2.5,2.5c0.9,0,1.5-0.2,2-0.4l0.2,0.9c-0.5,0.2-1.3,0.5-2.4,0.5
		c-2.2,0-3.6-1.5-3.6-3.7c0-2.2,1.3-3.9,3.4-3.9c2.4,0,3,2.1,3,3.4c0,0.3,0,0.5,0,0.6H111z M114.9,231.6c0-0.8-0.3-2.1-1.8-2.1
		c-1.3,0-1.9,1.2-2,2.1H114.9z"/>
	<path class="st3" d="M117.6,234.6c0.4,0.3,1.1,0.5,1.7,0.5c1,0,1.4-0.5,1.4-1.1c0-0.6-0.4-1-1.4-1.3c-1.3-0.5-1.9-1.2-1.9-2.1
		c0-1.2,0.9-2.1,2.5-2.1c0.7,0,1.4,0.2,1.8,0.5l-0.3,1c-0.3-0.2-0.8-0.4-1.5-0.4c-0.8,0-1.2,0.5-1.2,1c0,0.6,0.4,0.9,1.4,1.2
		c1.3,0.5,1.9,1.1,1.9,2.2c0,1.3-1,2.2-2.7,2.2c-0.8,0-1.5-0.2-2-0.5L117.6,234.6z"/>
	<path class="st3" d="M130.9,235.9l-0.1-0.9h0c-0.4,0.6-1.2,1.1-2.2,1.1c-1.5,0-2.2-1-2.2-2.1c0-1.8,1.6-2.7,4.4-2.7v-0.1
		c0-0.6-0.2-1.7-1.6-1.7c-0.7,0-1.4,0.2-1.9,0.5l-0.3-0.9c0.6-0.4,1.5-0.6,2.4-0.6c2.2,0,2.8,1.5,2.8,3v2.7c0,0.6,0,1.2,0.1,1.7
		H130.9z M130.7,232.2c-1.4,0-3.1,0.2-3.1,1.6c0,0.9,0.6,1.3,1.2,1.3c0.9,0,1.5-0.6,1.8-1.2c0-0.1,0.1-0.3,0.1-0.4V232.2z"/>
	<path class="st3" d="M134.1,230.6c0-0.8,0-1.4-0.1-2h1.2l0.1,1.2h0c0.4-0.7,1.2-1.4,2.4-1.4c1,0,2.6,0.6,2.6,3.1v4.3H139v-4.2
		c0-1.2-0.4-2.1-1.7-2.1c-0.9,0-1.5,0.6-1.8,1.4c-0.1,0.2-0.1,0.4-0.1,0.6v4.4h-1.3V230.6z"/>
	<path class="st3" d="M148.7,225.3v8.8c0,0.6,0,1.4,0.1,1.9h-1.2l-0.1-1.3h0c-0.4,0.8-1.3,1.4-2.5,1.4c-1.8,0-3.1-1.5-3.1-3.7
		c0-2.4,1.5-3.9,3.3-3.9c1.1,0,1.9,0.5,2.2,1.1h0v-4.3H148.7z M147.4,231.6c0-0.2,0-0.4-0.1-0.6c-0.2-0.8-0.9-1.5-1.9-1.5
		c-1.4,0-2.2,1.2-2.2,2.8c0,1.5,0.7,2.7,2.1,2.7c0.9,0,1.7-0.6,1.9-1.6c0-0.2,0.1-0.4,0.1-0.6V231.6z"/>
	<path class="st3" d="M155.6,226.6c0,0.5-0.3,0.8-0.8,0.8c-0.5,0-0.8-0.4-0.8-0.8c0-0.5,0.3-0.8,0.8-0.8
		C155.2,225.8,155.6,226.2,155.6,226.6z M154.1,235.9v-7.3h1.3v7.3H154.1z"/>
	<path class="st3" d="M157.6,230.6c0-0.8,0-1.4-0.1-2h1.2l0.1,1.2h0c0.4-0.7,1.2-1.4,2.4-1.4c1,0,2.6,0.6,2.6,3.1v4.3h-1.3v-4.2
		c0-1.2-0.4-2.1-1.7-2.1c-0.9,0-1.5,0.6-1.8,1.4c-0.1,0.2-0.1,0.4-0.1,0.6v4.4h-1.3V230.6z"/>
	<path class="st3" d="M165.7,234.6c0.4,0.3,1.1,0.5,1.7,0.5c1,0,1.4-0.5,1.4-1.1c0-0.6-0.4-1-1.3-1.3c-1.3-0.5-1.9-1.2-1.9-2.1
		c0-1.2,0.9-2.1,2.5-2.1c0.7,0,1.4,0.2,1.8,0.5l-0.3,1c-0.3-0.2-0.8-0.4-1.5-0.4c-0.8,0-1.2,0.5-1.2,1c0,0.6,0.4,0.9,1.4,1.2
		c1.3,0.5,1.9,1.1,1.9,2.2c0,1.3-1,2.2-2.7,2.2c-0.8,0-1.5-0.2-2-0.5L165.7,234.6z"/>
	<path class="st3" d="M171.9,231c0-0.9,0-1.7-0.1-2.4h1.2l0.1,1.2h0c0.5-0.9,1.4-1.4,2.6-1.4c1.8,0,3.1,1.5,3.1,3.7
		c0,2.6-1.6,3.9-3.3,3.9c-1,0-1.8-0.4-2.2-1.1h0v3.9h-1.3V231z M173.2,233c0,0.2,0,0.4,0.1,0.5c0.2,0.9,1,1.5,2,1.5
		c1.4,0,2.2-1.1,2.2-2.8c0-1.5-0.8-2.7-2.2-2.7c-0.9,0-1.7,0.6-2,1.6c0,0.2-0.1,0.4-0.1,0.5V233z"/>
	<path class="st3" d="M181.9,226.6c0,0.5-0.3,0.8-0.8,0.8c-0.5,0-0.8-0.4-0.8-0.8c0-0.5,0.3-0.8,0.8-0.8
		C181.6,225.8,181.9,226.2,181.9,226.6z M180.4,235.9v-7.3h1.3v7.3H180.4z"/>
	<path class="st3" d="M183.9,230.9c0-0.9,0-1.6-0.1-2.3h1.2l0,1.4h0.1c0.3-1,1.1-1.6,2-1.6c0.1,0,0.3,0,0.4,0v1.2
		c-0.1,0-0.3,0-0.5,0c-0.9,0-1.6,0.7-1.8,1.7c0,0.2-0.1,0.4-0.1,0.6v3.9h-1.3V230.9z"/>
	<path class="st3" d="M192.8,235.9l-0.1-0.9h0c-0.4,0.6-1.2,1.1-2.2,1.1c-1.5,0-2.2-1-2.2-2.1c0-1.8,1.6-2.7,4.4-2.7v-0.1
		c0-0.6-0.2-1.7-1.6-1.7c-0.7,0-1.4,0.2-1.9,0.5l-0.3-0.9c0.6-0.4,1.5-0.6,2.4-0.6c2.2,0,2.8,1.5,2.8,3v2.7c0,0.6,0,1.2,0.1,1.7
		H192.8z M192.6,232.2c-1.4,0-3.1,0.2-3.1,1.6c0,0.9,0.6,1.3,1.2,1.3c0.9,0,1.5-0.6,1.8-1.2c0-0.1,0.1-0.3,0.1-0.4V232.2z"/>
	<path class="st3" d="M197.5,226.6v2.1h1.9v1h-1.9v3.9c0,0.9,0.3,1.4,1,1.4c0.3,0,0.6,0,0.8-0.1l0.1,1c-0.3,0.1-0.7,0.2-1.2,0.2
		c-0.6,0-1.1-0.2-1.4-0.6c-0.4-0.4-0.5-1-0.5-1.9v-4h-1.1v-1h1.1v-1.7L197.5,226.6z"/>
	<path class="st3" d="M202.3,226.6c0,0.5-0.3,0.8-0.8,0.8c-0.5,0-0.8-0.4-0.8-0.8c0-0.5,0.3-0.8,0.8-0.8
		C202,225.8,202.3,226.2,202.3,226.6z M200.9,235.9v-7.3h1.3v7.3H200.9z"/>
	<path class="st3" d="M211,232.2c0,2.7-1.9,3.9-3.6,3.9c-2,0-3.5-1.4-3.5-3.7c0-2.4,1.6-3.9,3.6-3.9C209.5,228.5,211,230,211,232.2z
		 M205.2,232.3c0,1.6,0.9,2.8,2.2,2.8c1.3,0,2.2-1.2,2.2-2.8c0-1.2-0.6-2.8-2.2-2.8S205.2,230.9,205.2,232.3z"/>
	<path class="st3" d="M212.6,230.6c0-0.8,0-1.4-0.1-2h1.2l0.1,1.2h0c0.4-0.7,1.2-1.4,2.4-1.4c1,0,2.6,0.6,2.6,3.1v4.3h-1.3v-4.2
		c0-1.2-0.4-2.1-1.7-2.1c-0.9,0-1.5,0.6-1.8,1.4c-0.1,0.2-0.1,0.4-0.1,0.6v4.4h-1.3V230.6z"/>
	<path class="st3" d="M225,235.9l-0.1-0.9h0c-0.4,0.6-1.2,1.1-2.2,1.1c-1.5,0-2.2-1-2.2-2.1c0-1.8,1.6-2.7,4.4-2.7v-0.1
		c0-0.6-0.2-1.7-1.7-1.7c-0.7,0-1.4,0.2-1.9,0.5l-0.3-0.9c0.6-0.4,1.5-0.6,2.4-0.6c2.2,0,2.8,1.5,2.8,3v2.7c0,0.6,0,1.2,0.1,1.7H225
		z M224.8,232.2c-1.4,0-3.1,0.2-3.1,1.6c0,0.9,0.6,1.3,1.2,1.3c0.9,0,1.5-0.6,1.8-1.2c0-0.1,0.1-0.3,0.1-0.4V232.2z"/>
	<path class="st3" d="M228.2,225.3h1.3v10.6h-1.3V225.3z"/>
	<path class="st3" d="M234.9,231c0-0.9,0-1.7-0.1-2.4h1.2l0.1,1.2h0c0.5-0.9,1.4-1.4,2.6-1.4c1.8,0,3.1,1.5,3.1,3.7
		c0,2.6-1.6,3.9-3.3,3.9c-1,0-1.8-0.4-2.2-1.1h0v3.9h-1.3V231z M236.2,233c0,0.2,0,0.4,0.1,0.5c0.2,0.9,1,1.5,2,1.5
		c1.4,0,2.2-1.1,2.2-2.8c0-1.5-0.8-2.7-2.2-2.7c-0.9,0-1.7,0.6-2,1.6c0,0.2-0.1,0.4-0.1,0.5V233z"/>
	<path class="st3" d="M243.4,230.9c0-0.9,0-1.6-0.1-2.3h1.2l0,1.4h0.1c0.3-1,1.1-1.6,2-1.6c0.1,0,0.3,0,0.4,0v1.2
		c-0.1,0-0.3,0-0.5,0c-0.9,0-1.6,0.7-1.8,1.7c0,0.2-0.1,0.4-0.1,0.6v3.9h-1.3V230.9z"/>
	<path class="st3" d="M254.8,232.2c0,2.7-1.9,3.9-3.6,3.9c-2,0-3.5-1.4-3.5-3.7c0-2.4,1.6-3.9,3.6-3.9
		C253.3,228.5,254.8,230,254.8,232.2z M249,232.3c0,1.6,0.9,2.8,2.2,2.8c1.3,0,2.2-1.2,2.2-2.8c0-1.2-0.6-2.8-2.2-2.8
		C249.7,229.5,249,230.9,249,232.3z"/>
	<path class="st3" d="M262.7,228.7c0,0.5-0.1,1.1-0.1,2v4.2c0,1.7-0.3,2.7-1,3.3c-0.7,0.7-1.7,0.9-2.6,0.9c-0.9,0-1.8-0.2-2.4-0.6
		l0.3-1c0.5,0.3,1.2,0.6,2.1,0.6c1.4,0,2.3-0.7,2.3-2.5v-0.8h0c-0.4,0.7-1.2,1.2-2.3,1.2c-1.8,0-3.1-1.5-3.1-3.5
		c0-2.5,1.6-3.9,3.3-3.9c1.3,0,2,0.7,2.3,1.3h0l0.1-1.1H262.7z M261.3,231.5c0-0.2,0-0.4-0.1-0.6c-0.2-0.8-0.9-1.4-1.8-1.4
		c-1.3,0-2.2,1.1-2.2,2.7c0,1.4,0.7,2.6,2.1,2.6c0.8,0,1.5-0.5,1.8-1.3c0.1-0.2,0.1-0.5,0.1-0.7V231.5z"/>
	<path class="st3" d="M264.7,230.9c0-0.9,0-1.6-0.1-2.3h1.2l0,1.4h0.1c0.3-1,1.1-1.6,2-1.6c0.1,0,0.3,0,0.4,0v1.2
		c-0.1,0-0.3,0-0.5,0c-0.9,0-1.6,0.7-1.8,1.7c0,0.2-0.1,0.4-0.1,0.6v3.9h-1.3V230.9z"/>
	<path class="st3" d="M273.6,235.9l-0.1-0.9h0c-0.4,0.6-1.2,1.1-2.2,1.1c-1.5,0-2.2-1-2.2-2.1c0-1.8,1.6-2.7,4.4-2.7v-0.1
		c0-0.6-0.2-1.7-1.7-1.7c-0.7,0-1.4,0.2-1.9,0.5l-0.3-0.9c0.6-0.4,1.5-0.6,2.4-0.6c2.2,0,2.8,1.5,2.8,3v2.7c0,0.6,0,1.2,0.1,1.7
		H273.6z M273.4,232.2c-1.4,0-3.1,0.2-3.1,1.6c0,0.9,0.6,1.3,1.2,1.3c0.9,0,1.5-0.6,1.8-1.2c0-0.1,0.1-0.3,0.1-0.4V232.2z"/>
	<path class="st3" d="M276.8,230.6c0-0.8,0-1.4-0.1-2h1.2l0.1,1.2h0c0.4-0.7,1.1-1.3,2.3-1.3c1,0,1.7,0.6,2.1,1.5h0
		c0.2-0.4,0.5-0.7,0.8-0.9c0.4-0.3,0.9-0.5,1.6-0.5c1,0,2.4,0.6,2.4,3.2v4.3h-1.3v-4.1c0-1.4-0.5-2.2-1.6-2.2
		c-0.8,0-1.3,0.6-1.6,1.2c-0.1,0.2-0.1,0.4-0.1,0.7v4.5h-1.3v-4.3c0-1.2-0.5-2-1.5-2c-0.8,0-1.4,0.7-1.6,1.3
		c-0.1,0.2-0.1,0.4-0.1,0.6v4.4h-1.3V230.6z"/>
	<path class="st3" d="M289,235.2c0-0.5,0.4-0.9,0.9-0.9c0.5,0,0.9,0.4,0.9,0.9c0,0.5-0.3,0.9-0.9,0.9
		C289.4,236.1,289,235.7,289,235.2z M289.4,233l-0.2-7.2h1.4l-0.2,7.2H289.4z"/>
</g>
</svg>
