<?xml version="1.0" encoding="utf-8"?>
<!-- Generator: Adobe Illustrator 16.0.0, SVG Export Plug-In . SVG Version: 6.00 Build 0)  -->
<!DOCTYPE svg PUBLIC "-//W3C//DTD SVG 1.1//EN" "http://www.w3.org/Graphics/SVG/1.1/DTD/svg11.dtd">
<svg version="1.1" id="Layer_1" xmlns="http://www.w3.org/2000/svg" xmlns:xlink="http://www.w3.org/1999/xlink" x="0px" y="0px"
	 width="270px" height="270px" viewBox="0 0 270 270" enable-background="new 0 0 270 270" xml:space="preserve">
<g>
	<g>
		<g>
			<g>
				<defs>
					<path id="SVGID_1_" d="M55.111,93.782c-4.909,0-8.892-5.928-8.892-13.338c0-7.317,3.983-13.338,8.892-13.338
						c4.909,0,8.892,5.928,8.892,13.338C64.003,87.854,60.021,93.782,55.111,93.782z M94.477,74.238
						c4.909,0,8.892-5.928,8.892-13.338c0-7.41-3.983-13.338-8.892-13.338S85.585,53.49,85.585,60.9
						C85.585,68.311,89.568,74.238,94.477,74.238z M72.896,74.238c4.909,0,8.892-5.928,8.892-13.338
						c0-7.41-3.982-13.338-8.892-13.338S64.004,53.49,64.004,60.9C64.003,68.311,67.986,74.238,72.896,74.238z M84.01,77.48
						c-11.67,0-16.209,8.799-21.859,19.821c-14.82,29.27,8.521,18.433,20.007,17.043c-3.334-3.52-8.521-9.633-8.058-14.171
						c0.926-9.818,10.466-6.021,10.744-1.76c0.278-4.261,9.818-8.059,10.745,1.76c0.463,4.631-4.909,10.93-8.244,14.357
						c11.115,1.945,32.882,11.115,18.432-17.136C100.312,86.372,95.866,77.48,84.01,77.48z M113.094,67.199
						c-4.909,0-8.892,5.928-8.892,13.338c0,7.317,3.982,13.338,8.892,13.338c4.91,0,8.892-5.928,8.892-13.338
						C121.894,73.127,117.911,67.199,113.094,67.199z"/>
				</defs>
				<clipPath id="SVGID_2_">
					<use xlink:href="#SVGID_1_"  overflow="visible"/>
				</clipPath>
				<g clip-path="url(#SVGID_2_)">
					<path fill="#E67F7B" d="M157.091,97.95c0,39.921-32.326,72.247-72.247,72.247c-39.921,0-72.247-32.326-72.247-72.247
						c0-39.921,32.326-72.247,72.247-72.247C124.765,25.703,157.091,58.029,157.091,97.95z"/>
					<g>
						<path fill="#C3002F" d="M84.937,164.361c-1.204,0-2.408,0-3.52-0.092l3.52-66.135h0.093l3.52,66.135
							C87.345,164.361,86.048,164.361,84.937,164.361z M74.192,163.527c-2.408-0.369-4.724-0.926-7.039-1.574l17.691-63.817
							L74.192,163.527z M95.681,163.527L85.029,98.136l17.691,63.817C100.405,162.602,97.997,163.158,95.681,163.527z
							 M60.298,159.639c-2.223-0.927-4.446-1.945-6.576-3.057l31.029-58.539L60.298,159.639z M109.575,159.639L85.029,98.136
							l31.122,58.446C113.928,157.785,111.797,158.805,109.575,159.639z M47.609,152.969c-1.945-1.297-3.89-2.777-5.743-4.354
							l42.885-50.479l0,0L47.609,152.969z M122.264,152.877L85.029,98.136l0,0l42.885,50.479
							C126.154,150.098,124.209,151.58,122.264,152.877z M36.679,143.707c-1.667-1.76-3.242-3.613-4.631-5.465l52.704-40.199l0,0
							L36.679,143.707z M133.194,143.614L85.122,98.043l0,0l52.704,40.105C136.344,140.094,134.861,141.854,133.194,143.614z
							 M27.973,132.221c-1.204-2.038-2.408-4.168-3.427-6.391l60.021-27.88l0,0L27.973,132.221z M141.9,132.221L85.122,98.043l0,0
							l0,0l64.651,14.171c-0.556,2.316-1.203,4.724-1.944,6.947L85.122,97.95l60.112,27.88
							C144.217,128.053,143.104,130.184,141.9,132.221z M21.859,119.161c-0.741-2.315-1.389-4.631-1.945-6.947L84.566,97.95
							L21.859,119.161z M18.803,105.083c-0.278-2.316-0.371-4.724-0.371-7.132l66.227-0.093v0.093L18.803,105.083z M150.979,105.083
							l-65.856-7.04c0,0,0,0,0-0.093v-0.093h66.226l0,0C151.348,100.266,151.256,102.674,150.979,105.083z M84.659,97.857
							l-65.856-7.039c0.278-2.408,0.648-4.816,1.111-7.132L84.659,97.857C84.659,97.765,84.659,97.857,84.659,97.857z
							 M85.122,97.857C85.122,97.765,85.122,97.765,85.122,97.857l64.651-14.356c0.557,2.315,0.927,4.724,1.205,7.132L85.122,97.857
							z M85.122,97.765l60.021-27.973c1.02,2.223,1.945,4.446,2.687,6.669L85.122,97.765z M84.659,97.765l-62.8-21.026
							c0.741-2.315,1.667-4.539,2.686-6.669L84.659,97.765z M84.659,97.765L27.88,63.679c1.204-2.038,2.594-4.076,4.076-5.928
							L84.659,97.765L84.659,97.765z M85.122,97.765L85.122,97.765l52.61-40.199c1.482,1.945,2.779,3.89,4.076,5.928L85.122,97.765z
							 M84.659,97.672L36.494,52.194c1.667-1.76,3.427-3.427,5.187-4.909L84.659,97.672C84.751,97.672,84.751,97.672,84.659,97.672z
							 M85.122,97.672C85.122,97.672,85.029,97.672,85.122,97.672L127.914,47.1c1.853,1.575,3.612,3.242,5.187,4.909L85.122,97.672z
							 M84.659,97.487L47.516,42.932c1.945-1.39,4.076-2.594,6.113-3.705l30.937,58.075C84.566,97.302,84.566,97.209,84.659,97.487z
							 M85.029,97.672L85.029,97.672l30.937-58.539c2.13,1.111,4.168,2.408,6.206,3.705L85.029,97.672z M85.029,97.672
							l17.599-63.818c2.315,0.648,4.631,1.39,6.854,2.316L85.029,97.672z M84.844,97.672L60.206,36.17
							c2.223-0.926,4.539-1.667,6.854-2.316L84.844,97.672z M84.844,97.765L74.1,32.28c2.315-0.371,4.724-0.648,7.132-0.741
							l3.612,66.689C84.844,98.228,84.844,97.765,84.844,97.765z M84.937,97.672l-0.093,0.371l3.427-66.504
							c2.408,0.093,4.816,0.371,7.132,0.741L84.937,97.672z"/>
					</g>
				</g>
			</g>
		</g>
	</g>
	<g>
		<path fill="#414042" d="M170.244,78.128c3.52,0,6.205,0.556,8.15,1.853c2.037,1.39,3.242,3.334,3.242,6.391
			c0,5.743-4.726,8.707-9.355,9.263c-0.74,0.092-1.574,0.092-2.131,0.092l-3.148-0.833v5.928c0,4.909,0.37,5.279,4.725,5.557v1.297
			h-13.895v-1.297c3.611-0.278,3.982-0.648,3.982-5.557V84.983c0-4.909-0.371-5.28-3.797-5.558v-1.297H170.244z M166.816,93.134
			c0.74,0.278,1.668,0.556,2.871,0.556c1.944,0,6.021-1.297,6.021-7.225c0-4.631-2.687-6.576-6.577-6.576
			c-2.223,0-2.314,0.278-2.314,1.667V93.134z"/>
		<path fill="#414042" d="M193.863,78.128l3.057,7.874c2.13,5.557,4.168,11.115,6.02,15.653c1.576,4.075,2.225,4.354,5.002,4.631
			v1.296h-12.412v-1.296l1.298-0.186c1.76-0.278,1.854-0.741,1.297-2.408c-0.463-1.389-1.574-4.168-2.595-6.576h-8.705
			c-0.648,1.389-1.481,3.89-2.131,5.835c-0.834,2.408-0.463,2.964,1.574,3.242l1.297,0.093v1.296h-10.467v-1.296
			c2.965-0.371,3.428-0.556,5.094-4.631l9.541-23.527H193.863z M187.379,95.079h7.503l-3.705-10.003h-0.186L187.379,95.079z"/>
		<path fill="#414042" d="M225.447,78.128l8.244,21.582h0.092c1.761-5.65,3.982-14.079,4.725-16.95
			c0.74-2.779,0.463-3.334-1.574-3.52l-1.668-0.186v-1.296h10.838v1.296c-3.057,0.278-3.428,0.556-5.002,4.631
			c-0.74,1.945-4.076,11.3-7.965,23.99h-2.039l-8.059-21.211h-0.092l-7.41,21.211h-2.038l-7.78-24.175
			c-1.297-3.89-2.131-4.168-4.631-4.446v-1.296h12.781v1.296l-1.574,0.186c-1.945,0.278-2.131,0.648-1.482,2.779l5.465,17.691h0.095
			l7.131-21.582H225.447z"/>
	</g>
	<g>
		<g>
			<g>
				<defs>
					<path id="SVGID_3_" d="M41.959,26.537c5.094,0,8.984,0.833,11.763,2.686c2.964,2.038,4.631,4.909,4.631,9.355
						c0,8.429-6.854,12.782-13.523,13.616c-1.111,0.093-2.315,0.093-3.149,0.093l-4.539-1.204v8.707
						c0,7.225,0.556,7.688,6.854,8.151v1.853H23.805V67.94c5.187-0.371,5.743-0.926,5.743-8.151V36.541
						c0-7.225-0.463-7.781-5.465-8.151v-1.852L41.959,26.537L41.959,26.537z M37.143,48.489c1.111,0.371,2.408,0.833,4.168,0.833
						c2.871,0,8.707-1.853,8.707-10.651c0-6.854-3.797-9.541-9.54-9.541c-3.242,0-3.334,0.371-3.334,2.408L37.143,48.489
						L37.143,48.489z M200.625,58.492c-1.205,3.149-2.316,5.465-3.521,6.762c-1.39,1.667-4.537,1.945-7.965,1.945
						c-2.871,0-5.373-0.093-6.576-0.834c-1.205-0.833-1.482-2.686-1.482-6.576V48.767h5.836c5.836,0,6.021,0.278,6.669,5.558h2.224
						V40.153h-2.224c-0.647,5.094-0.833,5.557-6.669,5.557h-5.836V31.631c0-2.408,0.094-2.408,2.688-2.408h3.426
						c4.263,0,6.393,0.37,7.597,1.575c1.019,1.019,1.853,2.871,2.501,6.021l2.038-0.093c-0.371-4.168-0.647-9.077-0.834-10.096
						h-29.547h-1.298h-14.356v1.853l2.501,0.278c2.964,0.278,3.335,1.019,2.225,5.188c-1.111,4.261-4.354,16.672-6.854,24.916
						h-0.187l-11.855-31.771h-2.686L126.062,58.77h-0.092l-7.966-25.935c-0.926-3.149-0.648-3.705,2.13-4.168l2.223-0.278v-1.852
						h-18.433v1.852c3.613,0.371,4.817,0.834,6.669,6.484l11.3,35.382h2.964l10.652-31.122h0.093l11.578,31.122h2.965
						c5.648-18.525,10.559-32.326,11.578-35.104c2.036-5.65,2.686-6.298,6.575-6.762c4.538,0.371,5.002,1.204,5.002,8.059v23.249
						c0,7.225-0.557,7.688-6.392,8.151V69.7h33.345c0.556-1.853,2.037-8.614,2.315-10.93L200.625,58.492z M223.41,26.537
						c5.002,0,8.521,0.556,11.3,2.223c2.687,1.76,4.538,4.539,4.538,8.429c0,5.558-3.52,9.541-9.076,11.486
						c1.111,1.852,3.891,6.483,5.928,9.54c2.687,3.983,5.928,9.726,10.096,10.745v1.482l-2.87-0.093
						c-7.41-0.556-9.726-2.408-12.412-6.113c-2.224-3.057-4.445-7.317-6.392-10.744c-1.11-1.853-1.944-2.501-3.981-2.501h-2.224
						v8.892c0,7.225,0.556,7.688,5.742,8.151v1.853h-19.266v-1.853c5.465-0.371,6.02-0.926,6.02-8.151V36.541
						c0-7.225-0.555-7.688-5.742-8.151v-1.852L223.41,26.537L223.41,26.537z M218.314,48.582h2.595c2.687,0,4.632-0.371,6.392-1.76
						c2.686-2.13,3.704-5.28,3.704-8.521c0-6.947-4.909-9.355-9.263-9.355c-3.241,0-3.428,0.278-3.428,2.408V48.582L218.314,48.582z
						 M70.302,44.969c0.556-10.652,6.021-16.765,12.875-16.765c8.058,0,13.431,6.021,14.542,16.95
						c3.705,1.39,6.669,5.094,7.966,10.003c0.741-2.408,1.111-5.001,1.111-7.78c0-12.967-9.726-21.859-21.582-21.859
						c-16.024,0-23.897,12.412-23.897,23.341c0,1.945,0.185,3.705,0.648,5.465C63.448,49.601,66.504,46.081,70.302,44.969z"/>
				</defs>
				<clipPath id="SVGID_4_">
					<use xlink:href="#SVGID_3_"  overflow="visible"/>
				</clipPath>
				<g clip-path="url(#SVGID_4_)">
					<rect x="16.024" y="19.96" fill="#808285" width="235.082" height="58.816"/>
					<g>
						<polygon fill="#1A1A1A" points="92.439,78.777 115.78,19.96 106.333,19.96 90.216,78.777 						"/>
						<polygon fill="#1A1A1A" points="88.086,78.777 97.533,19.96 89.012,19.96 85.956,78.777 						"/>
						<polygon fill="#1A1A1A" points="74.84,78.777 43.441,19.96 31.956,19.96 72.062,78.777 						"/>
						<polygon fill="#1A1A1A" points="116.429,78.777 213.686,19.96 186.916,19.96 109.853,78.777 						"/>
						<polygon fill="#1A1A1A" points="59.743,78.777 16.024,45.618 16.024,56.547 53.074,78.777 						"/>
						<polygon fill="#1A1A1A" points="68.727,78.777 18.618,19.96 16.024,19.96 16.024,32.835 64.745,78.777 						"/>
						<polygon fill="#1A1A1A" points="104.943,78.777 166.816,19.96 150.793,19.96 100.96,78.777 						"/>
						<path fill="#1A1A1A" d="M237.396,26.907l-111.521,51.87h15.099L244.25,43.765C242.213,38.115,239.99,32.372,237.396,26.907z"
							/>
						<polygon fill="#1A1A1A" points="83.732,78.777 80.583,19.96 71.969,19.96 81.695,78.777 						"/>
						<path fill="#1A1A1A" d="M170.521,78.777h80.676v-6.483c-0.557-3.705-1.204-7.317-2.037-10.93L170.521,78.777z"/>
						<polygon fill="#1A1A1A" points="79.564,78.777 63.17,19.96 53.722,19.96 77.341,78.777 						"/>
						<polygon fill="#1A1A1A" points="97.626,78.777 137.547,19.96 125.969,19.96 94.847,78.777 						"/>
						<polygon fill="#1A1A1A" points="28.25,78.777 43.626,78.777 16.024,66.087 16.024,74.702 						"/>
					</g>
				</g>
			</g>
		</g>
	</g>
	<g>
		<path fill="#414042" d="M143.29,88.225c0,3.334-2.501,5.465-5.558,5.465c-3.242,0-5.373-2.315-5.373-5.094
			c0-2.501,1.853-5.465,5.744-5.465C140.975,83.13,143.29,85.168,143.29,88.225z M134.491,88.04c0,2.779,1.296,5.001,3.612,5.001
			c1.76,0,3.058-1.389,3.058-4.261c0-3.242-1.392-5.001-3.613-5.001C135.787,83.686,134.491,85.354,134.491,88.04z"/>
		<path fill="#414042" d="M152.09,83.315c0,0.278,0.092,1.39,0.186,2.316l-0.463,0.092c-0.187-0.741-0.371-1.111-0.648-1.389
			s-0.834-0.371-1.854-0.371h-0.834c-0.647,0-0.647,0-0.647,0.556v3.427h1.668c1.39,0,1.481-0.093,1.573-1.204h0.557v3.149h-0.557
			c-0.186-1.204-0.186-1.204-1.573-1.204h-1.668v2.408c0,1.667,0.093,1.76,1.668,1.853v0.463h-4.815v-0.463
			c1.202-0.093,1.389-0.186,1.389-1.853v-5.373c0-1.667-0.092-1.76-1.389-1.853v-0.463h7.409L152.09,83.315L152.09,83.315z"/>
		<path fill="#414042" d="M121.153,99.988c0.092-1.019,0.185-2.038,0.185-2.871h0.278c0.185,0.371,0.371,0.371,0.833,0.371h6.762
			c0.463,0,0.556-0.093,0.833-0.371h0.278c0,0.648,0.093,1.853,0.186,2.779h-0.463c-0.185-0.834-0.37-1.204-0.648-1.482
			c-0.278-0.278-0.833-0.371-1.852-0.371h-0.834v7.132c0,1.667,0.093,1.76,1.667,1.853v0.463h-5.094v-0.463
			c1.482-0.093,1.574-0.185,1.574-1.853v-7.132h-0.556c-1.389,0-1.853,0.185-2.13,0.463c-0.185,0.186-0.371,0.648-0.556,1.39h-0.463
			V99.988z"/>
		<path fill="#414042" d="M136.064,97.58v0.463c-1.205,0.093-1.39,0.185-1.39,1.853v2.038h5.002v-2.038
			c0-1.667-0.093-1.76-1.39-1.853V97.58h4.724v0.463c-1.297,0.093-1.481,0.185-1.481,1.853v5.372c0,1.667,0.094,1.76,1.391,1.853
			v0.463h-4.816v-0.463c1.39-0.093,1.481-0.186,1.481-1.853v-2.593h-5.002v2.593c0,1.667,0.093,1.76,1.39,1.853v0.463h-4.724v-0.463
			c1.297-0.093,1.482-0.186,1.482-1.853v-5.372c0-1.667-0.092-1.76-1.482-1.853V97.58H136.064z"/>
		<path fill="#414042" d="M151.626,97.58c0,0.278,0.093,1.39,0.187,2.316h-0.465c-0.185-0.741-0.369-1.204-0.647-1.39
			c-0.277-0.278-0.833-0.37-1.853-0.37h-0.834c-0.647,0-0.647,0-0.647,0.556v3.242h1.39c1.391,0,1.48-0.093,1.574-1.297h0.557v3.242
			h-0.557c-0.186-1.205-0.186-1.297-1.574-1.297h-1.39v2.686c0,0.926,0.093,1.297,0.37,1.575c0.277,0.185,0.927,0.185,1.574,0.185
			c0.834,0,1.574-0.093,1.945-0.463c0.277-0.278,0.557-0.834,0.834-1.575l0.463,0.093c-0.094,0.556-0.463,2.13-0.557,2.5h-8.059
			v-0.463c1.391-0.093,1.574-0.186,1.574-1.853v-5.372c0-1.667-0.093-1.76-1.39-1.853V97.58H151.626L151.626,97.58z"/>
	</g>
</g>
<g>
	<path fill="#414042" d="M12.547,152.6c0.648,0.369,1.482,0.647,2.5,0.647c1.39,0,2.223-0.741,2.223-1.853
		c0-1.021-0.556-1.574-2.038-2.131c-1.76-0.648-2.779-1.481-2.779-2.964c0-1.668,1.389-2.872,3.427-2.872
		c1.111,0,1.853,0.278,2.315,0.557l-0.371,1.111c-0.371-0.187-1.019-0.464-2.038-0.464c-1.482,0-2.038,0.834-2.038,1.574
		c0,1.021,0.648,1.481,2.13,2.038c1.76,0.648,2.686,1.574,2.686,3.148c0,1.668-1.204,3.058-3.705,3.058
		c-1.019,0-2.13-0.277-2.686-0.648L12.547,152.6z"/>
	<path fill="#414042" d="M24.773,154.266l-0.092-0.926h-0.093c-0.463,0.557-1.204,1.111-2.315,1.111
		c-1.575,0-2.316-1.111-2.316-2.223c0-1.854,1.667-2.871,4.539-2.871v-0.187c0-0.647-0.185-1.76-1.76-1.76
		c-0.741,0-1.482,0.185-1.945,0.555l-0.278-0.926c0.648-0.37,1.575-0.647,2.501-0.647c2.315,0,2.872,1.573,2.872,3.148v2.872
		c0,0.647,0,1.296,0.092,1.853H24.773L24.773,154.266z M24.496,150.375c-1.482,0-3.242,0.277-3.242,1.761
		c0,0.927,0.556,1.296,1.297,1.296c1.019,0,1.667-0.647,1.853-1.296c0.092-0.186,0.092-0.278,0.092-0.464V150.375z"/>
	<path fill="#414042" d="M29.683,144.447v2.224h1.945v1.019h-1.945v4.076c0,0.926,0.278,1.481,1.019,1.481
		c0.371,0,0.648-0.093,0.833-0.093l0.093,1.02c-0.278,0.092-0.648,0.186-1.204,0.186c-0.648,0-1.204-0.186-1.482-0.557
		c-0.371-0.371-0.556-1.111-0.556-1.945v-4.168h-1.204v-1.019h1.204v-1.853L29.683,144.447z"/>
	<path fill="#414042" d="M39.686,152.229c0,0.834,0,1.481,0.093,2.037h-1.204l-0.093-1.203l0,0c-0.371,0.647-1.204,1.39-2.501,1.39
		c-1.204,0-2.593-0.647-2.593-3.334v-4.446h1.389v4.262c0,1.481,0.463,2.407,1.667,2.407c0.926,0,1.575-0.647,1.853-1.297
		c0.092-0.187,0.092-0.463,0.092-0.741v-4.631h1.39v5.559h-0.093V152.229z"/>
	<path fill="#414042" d="M41.909,149.079c0-0.927,0-1.667-0.093-2.408h1.204l0.093,1.481h0.093c0.37-1.02,1.204-1.668,2.13-1.668
		c0.185,0,0.278,0,0.37,0.094v1.297c-0.185,0-0.278-0.093-0.463-0.093c-1.019,0-1.667,0.741-1.853,1.76
		c0,0.185-0.093,0.37-0.093,0.647v4.076h-1.389L41.909,149.079L41.909,149.079z"/>
	<path fill="#414042" d="M53.487,143.059v9.17c0,0.648,0,1.481,0.092,1.945h-1.204l-0.092-1.297l0,0
		c-0.463,0.833-1.39,1.48-2.594,1.48c-1.853,0-3.242-1.574-3.242-3.89c0-2.502,1.575-4.075,3.427-4.075
		c1.204,0,1.945,0.557,2.315,1.203l0,0v-4.537H53.487L53.487,143.059z M52.098,149.727c0-0.185,0-0.369-0.092-0.555
		c-0.186-0.927-0.926-1.574-2.038-1.574c-1.389,0-2.315,1.297-2.315,2.963c0,1.576,0.741,2.779,2.223,2.779
		c0.926,0,1.76-0.648,2.038-1.668c0.093-0.186,0.093-0.369,0.093-0.555v-1.391H52.098L52.098,149.727z"/>
	<path fill="#414042" d="M60.063,154.266l-0.093-0.926h-0.092c-0.463,0.557-1.204,1.111-2.316,1.111
		c-1.575,0-2.315-1.111-2.315-2.223c0-1.854,1.667-2.871,4.539-2.871v-0.187c0-0.647-0.185-1.76-1.76-1.76
		c-0.741,0-1.482,0.185-1.945,0.555l-0.278-0.926c0.648-0.37,1.575-0.647,2.501-0.647c2.315,0,2.871,1.573,2.871,3.148v2.872
		c0,0.647,0,1.296,0.093,1.853H60.063L60.063,154.266z M59.786,150.375c-1.482,0-3.242,0.277-3.242,1.761
		c0,0.927,0.556,1.296,1.296,1.296c1.019,0,1.667-0.647,1.853-1.296c0.093-0.186,0.093-0.278,0.093-0.464V150.375z"/>
	<path fill="#414042" d="M63.769,146.671l1.667,4.538c0.186,0.463,0.371,1.111,0.463,1.574l0,0c0.185-0.463,0.278-1.018,0.463-1.574
		l1.482-4.445h1.482l-2.038,5.465c-1.019,2.595-1.667,3.982-2.593,4.816c-0.648,0.557-1.39,0.833-1.667,0.926l-0.371-1.203
		c0.371-0.094,0.834-0.371,1.204-0.648c0.371-0.278,0.834-0.833,1.204-1.574c0.093-0.186,0.093-0.277,0.093-0.37
		c0-0.094,0-0.187-0.093-0.37l-2.778-7.039h1.482V146.671z"/>
	<path fill="#414042" d="M73.401,150.652c0-0.832,0.648-1.48,1.482-1.48s1.482,0.648,1.482,1.48c0,0.834-0.648,1.482-1.482,1.482
		S73.401,151.486,73.401,150.652z"/>
	<path fill="#414042" d="M193.357,150.652c0-0.832,0.646-1.48,1.48-1.48c0.833,0,1.48,0.648,1.48,1.48
		c0,0.834-0.647,1.482-1.48,1.482S193.357,151.486,193.357,150.652z"/>
	<path fill="#414042" d="M204.75,154.266v-2.777h-4.725v-0.928l4.539-6.576h1.481v6.392h1.39v1.112h-1.39v2.777H204.75
		L204.75,154.266z M204.75,150.375v-3.426c0-0.557,0-1.112,0.092-1.575h-0.092c-0.277,0.556-0.557,1.019-0.834,1.481l-2.501,3.52
		l0,0H204.75z"/>
	<path fill="#414042" d="M214.012,144.447v2.224h1.945v1.019h-1.945v4.076c0,0.926,0.278,1.481,1.021,1.481
		c0.37,0,0.647-0.093,0.833-0.093l0.093,1.02c-0.276,0.092-0.647,0.186-1.204,0.186c-0.648,0-1.204-0.186-1.48-0.557
		c-0.371-0.371-0.558-1.111-0.558-1.945v-4.168h-1.202v-1.019h1.202v-1.853L214.012,144.447z"/>
	<path fill="#414042" d="M224.293,150.375c0,2.779-1.945,4.076-3.797,4.076c-2.038,0-3.613-1.482-3.613-3.891
		c0-2.595,1.668-4.076,3.799-4.076S224.293,148.061,224.293,150.375z M218.273,150.469c0,1.667,0.926,2.963,2.313,2.963
		c1.297,0,2.315-1.203,2.315-2.963c0-1.297-0.647-2.965-2.315-2.965C219.014,147.504,218.273,149.079,218.273,150.469z"/>
	<path fill="#414042" d="M234.594,144.077v0.927l-4.445,9.354h-1.391l4.446-9.076l0,0h-5.001v-1.111h6.391V144.077z"/>
	<path fill="#414042" d="M236.445,149.172c0-1.02,0-1.76-0.092-2.501h1.203l0.094,1.296l0,0c0.556-0.926,1.48-1.48,2.686-1.48
		c1.854,0,3.242,1.574,3.242,3.89c0,2.778-1.668,4.076-3.428,4.076c-1.02,0-1.853-0.463-2.314-1.204l0,0v4.168h-1.391V149.172
		L236.445,149.172z M237.836,151.209c0,0.186,0,0.371,0.092,0.557c0.278,0.926,1.111,1.666,2.038,1.666
		c1.481,0,2.315-1.203,2.315-2.963c0-1.482-0.834-2.871-2.223-2.871c-0.928,0-1.854,0.647-2.132,1.76
		c-0.092,0.186-0.092,0.369-0.092,0.556L237.836,151.209L237.836,151.209z"/>
	<path fill="#414042" d="M245.432,148.709c0-0.834,0-1.391-0.094-2.038h1.204l0.093,1.204h0.092
		c0.465-0.741,1.112-1.391,2.409-1.391c1.019,0,1.853,0.648,2.13,1.481l0,0c0.278-0.463,0.558-0.739,0.834-1.018
		c0.463-0.371,0.926-0.558,1.668-0.558c1.019,0,2.5,0.648,2.5,3.334v4.447h-1.297v-4.354c0-1.482-0.556-2.316-1.666-2.316
		c-0.742,0-1.391,0.557-1.668,1.297c-0.093,0.186-0.093,0.463-0.093,0.648v4.725h-1.39v-4.447c0-1.203-0.557-2.13-1.574-2.13
		c-0.834,0-1.482,0.648-1.76,1.39c-0.094,0.187-0.094,0.464-0.094,0.648v4.631h-1.39v-5.557h0.095V148.709z"/>
	<path fill="#414042" d="M70.302,172.514H67.06v-1.761h8.521v1.761H72.34v9.539h-2.038V172.514z"/>
	<path fill="#414042" d="M80.305,182.053l-0.092-0.926H80.12c-0.463,0.648-1.39,1.111-2.408,1.111c-1.667,0-2.594-1.204-2.594-2.408
		c0-2.037,1.853-3.057,4.816-3.057v-0.187c0-0.555-0.185-1.39-1.667-1.39c-0.833,0-1.667,0.277-2.223,0.557l-0.37-1.297
		c0.556-0.37,1.667-0.741,2.964-0.741c2.593,0,3.334,1.668,3.334,3.429v2.963c0,0.742,0,1.481,0.092,1.944L80.305,182.053
		L80.305,182.053z M80.12,178.07c-1.482,0-2.872,0.277-2.872,1.481c0,0.833,0.556,1.203,1.204,1.203c0.834,0,1.39-0.555,1.575-1.11
		c0.093-0.186,0.093-0.277,0.093-0.463V178.07z"/>
	<path fill="#414042" d="M90.216,181.775c-0.463,0.186-1.297,0.463-2.316,0.463c-2.501,0-4.168-1.574-4.168-4.168
		c0-2.408,1.667-4.354,4.539-4.354c0.741,0,1.482,0.187,1.945,0.371l-0.371,1.574c-0.371-0.187-0.833-0.277-1.575-0.277
		c-1.575,0-2.501,1.111-2.501,2.593c0,1.668,1.112,2.594,2.501,2.594c0.741,0,1.204-0.186,1.575-0.277L90.216,181.775z"/>
	<path fill="#414042" d="M99.293,177.979c0,2.963-2.13,4.354-4.168,4.354c-2.315,0-4.075-1.575-4.075-4.168
		c0-2.688,1.76-4.262,4.168-4.262C97.719,173.811,99.293,175.477,99.293,177.979z M93.18,177.979c0,1.574,0.741,2.777,2.038,2.777
		c1.204,0,1.945-1.111,1.945-2.777c0-1.297-0.556-2.688-1.945-2.688C93.736,175.291,93.18,176.682,93.18,177.979z"/>
	<path fill="#414042" d="M100.96,176.402c0-0.926,0-1.76-0.092-2.408h1.76l0.092,1.205h0.093c0.371-0.648,1.111-1.391,2.501-1.391
		c1.111,0,1.945,0.557,2.223,1.481l0,0c0.278-0.463,0.648-0.74,1.019-1.019c0.463-0.278,0.926-0.463,1.667-0.463
		c1.389,0,2.686,0.926,2.686,3.52v4.816h-2.038v-4.446c0-1.39-0.463-2.13-1.482-2.13c-0.741,0-1.204,0.464-1.389,1.111
		c-0.093,0.186-0.093,0.463-0.093,0.647v4.909h-2.038v-4.725c0-1.111-0.463-1.945-1.389-1.945c-0.741,0-1.297,0.557-1.482,1.205
		c-0.092,0.186-0.092,0.463-0.092,0.647v4.815h-1.945L100.96,176.402L100.96,176.402z"/>
	<path fill="#414042" d="M119.671,182.053l-0.093-0.926h-0.093c-0.463,0.648-1.389,1.111-2.408,1.111
		c-1.667,0-2.593-1.204-2.593-2.408c0-2.037,1.853-3.057,4.816-3.057v-0.187c0-0.555-0.186-1.39-1.667-1.39
		c-0.833,0-1.667,0.277-2.223,0.557l-0.371-1.297c0.556-0.37,1.667-0.741,2.964-0.741c2.593,0,3.334,1.668,3.334,3.429v2.963
		c0,0.742,0,1.481,0.093,1.944L119.671,182.053L119.671,182.053z M119.393,178.07c-1.482,0-2.871,0.277-2.871,1.481
		c0,0.833,0.556,1.203,1.204,1.203c0.833,0,1.389-0.555,1.575-1.11c0.092-0.186,0.092-0.277,0.092-0.463V178.07L119.393,178.07z"/>
	<path fill="#414042" d="M133.379,177.051h-4.261v3.335h4.724v1.667h-6.762v-11.207h6.576v1.668h-4.446v2.871h4.261v1.666H133.379
		L133.379,177.051z"/>
	<path fill="#414042" d="M135.602,170.197h2.039v11.854h-2.039V170.197z"/>
	<path fill="#414042" d="M141.993,177.516L141.993,177.516c0.278-0.279,0.463-0.648,0.647-0.928l1.944-2.594h2.502l-2.965,3.335
		l3.428,4.817h-2.501l-2.408-3.705l-0.74,0.832v2.778h-2.037v-11.854h2.037v7.316h0.093V177.516z"/>
	<path fill="#414042" d="M148.291,180.201c0.464,0.277,1.391,0.555,2.131,0.555c0.926,0,1.297-0.37,1.297-0.926
		c0-0.557-0.371-0.834-1.297-1.204c-1.574-0.556-2.223-1.39-2.223-2.408c0-1.39,1.203-2.593,3.057-2.593
		c0.926,0,1.667,0.277,2.131,0.463l-0.371,1.48c-0.371-0.185-1.02-0.463-1.76-0.463s-1.111,0.371-1.111,0.834
		c0,0.557,0.371,0.742,1.39,1.11c1.481,0.558,2.131,1.298,2.131,2.502c0,1.481-1.11,2.5-3.334,2.5c-1.021,0-1.854-0.276-2.502-0.555
		L148.291,180.201z"/>
	<path fill="#414042" d="M158.852,170.846h2.037v9.54h4.631v1.761h-6.668V170.846L158.852,170.846z"/>
	<path fill="#414042" d="M174.598,177.979c0,2.963-2.131,4.354-4.168,4.354c-2.316,0-4.076-1.575-4.076-4.168
		c0-2.688,1.76-4.262,4.168-4.262C172.93,173.811,174.598,175.477,174.598,177.979z M168.484,177.979
		c0,1.574,0.74,2.777,2.037,2.777c1.203,0,1.944-1.111,1.944-2.777c0-1.297-0.557-2.688-1.944-2.688
		C169.039,175.291,168.484,176.682,168.484,177.979z"/>
	<path fill="#414042" d="M183.768,170.197v9.539c0,0.834,0,1.762,0.092,2.315h-1.853l-0.093-1.297l0,0
		c-0.463,0.927-1.482,1.481-2.686,1.481c-1.945,0-3.429-1.666-3.429-4.168c0-2.686,1.668-4.354,3.613-4.354
		c1.11,0,1.944,0.463,2.313,1.111l0,0v-4.631h2.041V170.197z M181.729,177.329c0-0.185,0-0.37-0.092-0.556
		c-0.186-0.834-0.834-1.482-1.76-1.482c-1.297,0-2.038,1.205-2.038,2.688c0,1.481,0.741,2.594,2.038,2.594
		c0.833,0,1.574-0.557,1.76-1.481c0.092-0.187,0.092-0.371,0.092-0.557V177.329z"/>
	<path fill="#414042" d="M193.398,173.902c0,0.556-0.092,1.203-0.092,2.314v4.633c0,1.666-0.371,2.963-1.203,3.705
		c-0.834,0.739-2.039,1.018-3.15,1.018c-1.02,0-2.13-0.186-2.871-0.647l0.463-1.575c0.557,0.278,1.391,0.648,2.408,0.648
		c1.297,0,2.316-0.74,2.316-2.408v-0.74l0,0c-0.463,0.74-1.297,1.203-2.408,1.203c-2.038,0-3.428-1.667-3.428-3.982
		c0-2.686,1.76-4.26,3.705-4.26c1.204,0,1.944,0.556,2.315,1.297l0,0l0.092-1.112h1.853V173.902L193.398,173.902z M191.27,177.236
		c0-0.187,0-0.37-0.093-0.555c-0.186-0.742-0.833-1.298-1.667-1.298c-1.111,0-2.037,1.019-2.037,2.687c0,1.389,0.74,2.5,1.944,2.5
		c0.741,0,1.39-0.463,1.667-1.203c0.094-0.186,0.094-0.463,0.094-0.741v-1.39H191.27L191.27,177.236z"/>
	<path fill="#414042" d="M196.92,178.626c0.092,1.481,1.203,2.13,2.5,2.13c0.928,0,1.668-0.092,2.223-0.369l0.278,1.389
		c-0.741,0.277-1.667,0.464-2.871,0.464c-2.594,0-4.168-1.574-4.168-4.075c0-2.225,1.39-4.354,3.981-4.354
		c2.595,0,3.521,2.129,3.521,3.982c0,0.37,0,0.648-0.094,0.833H196.92L196.92,178.626z M200.531,177.145
		c0-0.74-0.277-1.944-1.668-1.944c-1.295,0-1.76,1.11-1.852,1.944H200.531z"/>
	<path fill="#C3002F" d="M20.84,224.66c0.556,0.277,1.39,0.557,2.223,0.557c1.111,0,1.667-0.557,1.667-1.297
		c0-0.742-0.463-1.111-1.667-1.574c-1.575-0.557-2.501-1.391-2.501-2.688c0-1.574,1.297-2.686,3.334-2.686
		c1.019,0,1.76,0.186,2.223,0.463l-0.463,1.39c-0.37-0.187-1.019-0.464-1.852-0.464c-1.112,0-1.575,0.557-1.575,1.111
		c0,0.741,0.556,1.02,1.76,1.574c1.667,0.648,2.408,1.391,2.408,2.778c0,1.481-1.111,2.778-3.52,2.778
		c-1.019,0-2.038-0.276-2.501-0.556L20.84,224.66z"/>
	<path fill="#C3002F" d="M36.401,221.789c0,3.148-1.945,4.909-4.446,4.909c-2.686,0-4.261-2.038-4.261-4.724
		c0-2.871,1.76-4.91,4.446-4.91C34.827,216.973,36.401,219.104,36.401,221.789z M29.455,221.882c0,1.944,0.926,3.427,2.593,3.427
		s2.594-1.481,2.594-3.52c0-1.76-0.833-3.428-2.594-3.428C30.288,218.361,29.455,219.938,29.455,221.882z"/>
	<path fill="#C3002F" d="M44.552,226.234c-0.371,0.186-1.297,0.464-2.408,0.464c-2.964,0-4.816-1.853-4.816-4.724
		c0-3.058,2.13-4.91,5.001-4.91c1.112,0,1.945,0.278,2.316,0.463l-0.371,1.391c-0.463-0.186-1.019-0.371-1.853-0.371
		c-1.945,0-3.242,1.205-3.242,3.428c0,2.037,1.204,3.334,3.242,3.334c0.741,0,1.39-0.186,1.853-0.369L44.552,226.234z"/>
	<path fill="#C3002F" d="M47.794,217.158v9.354h-1.667v-9.354H47.794z"/>
	<path fill="#C3002F" d="M51.592,223.92l-0.833,2.686h-1.76l2.964-9.354h2.223l3.057,9.354H55.39l-0.833-2.686H51.592z
		 M54.278,222.623l-0.741-2.316c-0.186-0.555-0.371-1.203-0.463-1.76l0,0c-0.093,0.557-0.278,1.205-0.463,1.76l-0.741,2.316H54.278z
		"/>
	<path fill="#C3002F" d="M58.539,217.158h1.667v7.965h3.89v1.391h-5.558L58.539,217.158L58.539,217.158z"/>
	<path fill="#C3002F" d="M70.024,217.158v3.705h3.983v-3.705h1.667v9.354h-1.667v-4.168h-3.983v4.168h-1.667v-9.354H70.024z"/>
	<path fill="#C3002F" d="M85.956,221.789c0,3.148-1.945,4.909-4.446,4.909c-2.686,0-4.261-2.038-4.261-4.724
		c0-2.871,1.76-4.91,4.446-4.91C84.288,216.973,85.956,219.104,85.956,221.789z M78.916,221.882c0,1.944,0.926,3.427,2.593,3.427
		s2.594-1.481,2.594-3.52c0-1.76-0.833-3.428-2.594-3.428C79.842,218.361,78.916,219.938,78.916,221.882z"/>
	<path fill="#C3002F" d="M89.104,217.158v5.465c0,1.852,0.741,2.686,1.945,2.686c1.204,0,1.945-0.834,1.945-2.686v-5.465h1.667
		v5.371c0,2.871-1.482,4.169-3.705,4.169c-2.13,0-3.612-1.204-3.612-4.169v-5.371H89.104z"/>
	<path fill="#C3002F" d="M96.607,217.25c0.648-0.092,1.574-0.186,2.593-0.186c1.389,0,2.223,0.186,2.872,0.742
		c0.556,0.463,0.833,1.11,0.833,1.852c0,1.205-0.833,2.037-1.667,2.316l0,0c0.648,0.276,1.112,0.926,1.297,1.76
		c0.278,1.203,0.556,2.223,0.741,2.594h-1.76c-0.185-0.278-0.37-1.02-0.648-2.225c-0.278-1.203-0.741-1.574-1.667-1.666h-0.833
		v3.891H96.7v-9.078H96.607z M98.367,221.418h1.019c1.112,0,1.853-0.648,1.853-1.574c0-1.019-0.741-1.482-1.853-1.482
		c-0.556,0-0.926,0-1.019,0.095V221.418z"/>
	<path fill="#C3002F" d="M104.295,220.955c0-0.648,0.463-1.111,1.019-1.111c0.648,0,1.019,0.463,1.019,1.111
		s-0.463,1.111-1.019,1.111C104.666,221.975,104.295,221.512,104.295,220.955z M104.295,225.586c0-0.646,0.463-1.111,1.019-1.111
		c0.648,0,1.019,0.465,1.019,1.111c0,0.648-0.463,1.112-1.019,1.112C104.666,226.698,104.295,226.234,104.295,225.586z"/>
	<path fill="#414042" d="M114.484,226.514l-0.093-0.834l0,0c-0.371,0.555-1.111,1.02-2.038,1.02c-1.39,0-2.038-0.928-2.038-1.945
		c0-1.667,1.482-2.501,4.076-2.501v-0.092c0-0.558-0.185-1.575-1.482-1.575c-0.648,0-1.297,0.186-1.76,0.463l-0.278-0.833
		c0.556-0.37,1.389-0.557,2.223-0.557c2.038,0,2.594,1.39,2.594,2.778v2.502c0,0.556,0,1.11,0.092,1.574H114.484z M114.391,223.086
		c-1.297,0-2.872,0.186-2.872,1.482c0,0.832,0.556,1.203,1.112,1.203c0.833,0,1.389-0.556,1.667-1.111
		c0-0.092,0.093-0.277,0.093-0.37V223.086z"/>
	<path fill="#414042" d="M117.541,221.975c0-0.834,0-1.574-0.093-2.223h1.111l0.093,1.111l0,0c0.463-0.834,1.297-1.297,2.408-1.297
		c1.667,0,2.872,1.389,2.872,3.427c0,2.407-1.482,3.612-3.057,3.612c-0.926,0-1.667-0.371-2.038-1.021l0,0v3.613h-1.204v-7.226
		h-0.092V221.975z M118.745,223.826c0,0.186,0,0.371,0.092,0.464c0.186,0.833,0.926,1.39,1.853,1.39c1.297,0,2.038-1.02,2.038-2.594
		c0-1.391-0.741-2.501-2.038-2.501c-0.833,0-1.575,0.556-1.853,1.481c0,0.186-0.092,0.371-0.092,0.464V223.826z"/>
	<path fill="#414042" d="M125.414,221.975c0-0.834,0-1.574-0.093-2.223h1.111l0.093,1.111l0,0c0.463-0.834,1.297-1.297,2.408-1.297
		c1.667,0,2.872,1.389,2.872,3.427c0,2.407-1.482,3.612-3.057,3.612c-0.926,0-1.667-0.371-2.038-1.021l0,0v3.613h-1.204v-7.226
		h-0.092V221.975z M126.618,223.826c0,0.186,0,0.371,0.092,0.464c0.186,0.833,0.926,1.39,1.853,1.39c1.297,0,2.038-1.02,2.038-2.594
		c0-1.391-0.741-2.501-2.038-2.501c-0.833,0-1.575,0.556-1.853,1.481c0,0.186-0.092,0.371-0.092,0.464V223.826z"/>
	<path fill="#414042" d="M134.027,223.363c0,1.668,1.112,2.316,2.316,2.316c0.833,0,1.39-0.187,1.853-0.371l0.186,0.834
		c-0.463,0.186-1.204,0.463-2.223,0.463c-2.038,0-3.335-1.39-3.335-3.429c0-2.036,1.204-3.61,3.15-3.61
		c2.223,0,2.778,1.945,2.778,3.147c0,0.278,0,0.463,0,0.558h-4.725L134.027,223.363L134.027,223.363z M137.547,222.529
		c0-0.74-0.277-1.944-1.667-1.944c-1.204,0-1.76,1.11-1.853,1.944H137.547z"/>
	<path fill="#414042" d="M141.715,217.898v1.944h1.76v0.927h-1.76v3.612c0,0.834,0.278,1.298,0.928,1.298
		c0.277,0,0.556,0,0.74-0.095l0.092,0.927c-0.276,0.094-0.647,0.187-1.111,0.187c-0.555,0-1.018-0.187-1.297-0.556
		c-0.369-0.371-0.463-0.927-0.463-1.761v-3.705h-1.019v-0.926h1.019v-1.575L141.715,217.898z"/>
	<path fill="#414042" d="M146.254,217.898c0,0.463-0.277,0.74-0.74,0.74c-0.464,0-0.742-0.369-0.742-0.74
		c0-0.463,0.278-0.74,0.742-0.74C145.977,217.158,146.254,217.527,146.254,217.898z M144.863,226.514v-6.762h1.205v6.762H144.863z"
		/>
	<path fill="#414042" d="M147.365,225.864l3.057-3.982c0.277-0.37,0.557-0.647,0.834-1.019l0,0h-3.613v-1.021h5.096v0.741
		l-2.965,3.891c-0.276,0.371-0.556,0.741-0.834,1.02l0,0h3.892v0.926h-5.465L147.365,225.864L147.365,225.864z"/>
	<path fill="#414042" d="M154.684,223.363c0,1.668,1.11,2.316,2.314,2.316c0.834,0,1.391-0.187,1.854-0.371l0.186,0.834
		c-0.464,0.186-1.204,0.463-2.225,0.463c-2.037,0-3.334-1.39-3.334-3.429c0-2.036,1.205-3.61,3.149-3.61
		c2.224,0,2.778,1.945,2.778,3.147c0,0.278,0,0.463,0,0.558h-4.725v0.092H154.684z M158.202,222.529c0-0.74-0.278-1.944-1.667-1.944
		c-1.204,0-1.76,1.11-1.854,1.944H158.202z"/>
	<path fill="#414042" d="M160.889,221.882c0-0.834,0-1.481-0.093-2.13h1.111v1.296H162c0.277-0.927,1.02-1.481,1.854-1.481
		c0.185,0,0.277,0,0.369,0v1.111c-0.092,0-0.277,0-0.369,0c-0.834,0-1.481,0.648-1.668,1.574c0,0.186-0.093,0.371-0.093,0.557v3.611
		h-1.204V221.882L160.889,221.882z"/>
	<path fill="#414042" d="M165.334,225.309c0.371,0.277,1.02,0.463,1.575,0.463c0.927,0,1.297-0.463,1.297-1.019
		s-0.37-0.927-1.297-1.204c-1.204-0.463-1.761-1.111-1.761-1.945c0-1.11,0.834-1.944,2.315-1.944c0.647,0,1.298,0.187,1.667,0.463
		l-0.277,0.927c-0.277-0.185-0.74-0.369-1.39-0.369c-0.741,0-1.11,0.463-1.11,0.926c0,0.557,0.369,0.834,1.297,1.11
		c1.203,0.464,1.76,1.021,1.76,2.038c0,1.204-0.926,2.038-2.501,2.038c-0.741,0-1.39-0.187-1.853-0.463L165.334,225.309z"/>
	<path fill="#414042" d="M170.059,228.271c0.277-0.832,0.648-2.314,0.834-3.334l1.39-0.092c-0.277,1.203-0.927,2.686-1.298,3.334
		L170.059,228.271z"/>
	<path fill="#414042" d="M176.635,226.514c0-0.464,0.092-1.111,0.092-1.761v-8.151h1.205v4.263l0,0
		c0.463-0.742,1.204-1.205,2.315-1.205c1.667,0,2.871,1.39,2.871,3.428c0,2.408-1.481,3.612-3.058,3.612
		c-0.926,0-1.76-0.37-2.223-1.297l0,0l-0.093,1.111H176.635z M177.839,223.826c0,0.186,0,0.277,0.093,0.464
		c0.277,0.833,0.926,1.39,1.853,1.39c1.297,0,2.039-1.02,2.039-2.594c0-1.391-0.742-2.501-2.039-2.501
		c-0.833,0-1.574,0.556-1.853,1.481c0,0.186-0.093,0.277-0.093,0.464V223.826z"/>
	<path fill="#414042" d="M185.248,223.363c0,1.668,1.111,2.316,2.316,2.316c0.834,0,1.389-0.187,1.853-0.371l0.185,0.834
		c-0.463,0.186-1.203,0.463-2.223,0.463c-2.037,0-3.334-1.39-3.334-3.429c0-2.036,1.203-3.61,3.148-3.61
		c2.224,0,2.779,1.945,2.779,3.147c0,0.278,0,0.463,0,0.558h-4.726L185.248,223.363L185.248,223.363z M188.861,222.529
		c0-0.74-0.278-1.944-1.668-1.944c-1.203,0-1.76,1.11-1.853,1.944H188.861z"/>
	<path fill="#414042" d="M192.195,223.363c0,1.668,1.111,2.316,2.316,2.316c0.832,0,1.389-0.187,1.852-0.371l0.186,0.834
		c-0.463,0.186-1.203,0.463-2.223,0.463c-2.038,0-3.335-1.39-3.335-3.429c0-2.036,1.204-3.61,3.149-3.61
		c2.223,0,2.778,1.945,2.778,3.147c0,0.278,0,0.463,0,0.558h-4.726v0.092H192.195z M195.809,222.529c0-0.74-0.279-1.944-1.668-1.944
		c-1.203,0-1.76,1.11-1.853,1.944H195.809z"/>
	<path fill="#414042" d="M198.494,221.882c0-0.834,0-1.481-0.094-2.13h1.111v1.296h0.094c0.276-0.927,1.02-1.481,1.853-1.481
		c0.185,0,0.278,0,0.37,0v1.111c-0.092,0-0.277,0-0.37,0c-0.833,0-1.481,0.648-1.667,1.574c0,0.186-0.094,0.371-0.094,0.557v3.611
		h-1.203V221.882L198.494,221.882z"/>
	<path fill="#414042" d="M211.832,226.514c-0.277-0.279-0.557-0.557-0.834-0.928c-0.834,0.742-1.667,1.112-2.777,1.112
		c-1.854,0-2.873-1.204-2.873-2.595c0-1.297,0.742-2.129,1.854-2.777l0,0c-0.464-0.648-0.742-1.297-0.742-1.945
		c0-1.111,0.834-2.316,2.409-2.316c1.204,0,2.038,0.742,2.038,1.945c0,1.021-0.558,1.76-2.038,2.502l0,0
		c0.833,0.926,1.667,1.944,2.314,2.594c0.463-0.648,0.74-1.575,0.926-2.778h1.111c-0.277,1.481-0.647,2.594-1.389,3.427
		c0.463,0.557,1.02,1.02,1.574,1.667h-1.574V226.514L211.832,226.514z M210.35,224.938c-0.556-0.647-1.574-1.761-2.594-2.963
		c-0.463,0.276-1.203,0.926-1.203,1.944c0,1.11,0.834,1.853,1.945,1.853C209.238,225.771,209.979,225.4,210.35,224.938z
		 M207.57,219.195c0,0.647,0.279,1.203,0.742,1.668c0.926-0.557,1.574-1.021,1.574-1.854c0-0.555-0.277-1.202-1.111-1.202
		S207.57,218.455,207.57,219.195z"/>
	<path fill="#414042" d="M217.76,219.844l0.926,3.428c0.187,0.74,0.371,1.481,0.465,2.131l0,0c0.185-0.648,0.369-1.391,0.556-2.131
		l1.11-3.428h1.021l1.019,3.334c0.278,0.834,0.463,1.482,0.557,2.225l0,0c0.092-0.648,0.277-1.391,0.556-2.225l0.927-3.334h1.203
		l-2.13,6.762h-1.112l-1.018-3.242c-0.277-0.739-0.464-1.389-0.557-2.223l0,0c-0.186,0.834-0.37,1.482-0.648,2.223l-1.111,3.242
		h-0.926l-2.037-6.762H217.76z"/>
	<path fill="#414042" d="M228.875,217.898c0,0.463-0.277,0.74-0.741,0.74c-0.463,0-0.741-0.369-0.741-0.74
		c0-0.463,0.278-0.74,0.741-0.74C228.598,217.158,228.875,217.527,228.875,217.898z M227.578,226.514v-6.762h1.204v6.762H227.578z"
		/>
	<path fill="#414042" d="M230.82,221.604c0-0.739,0-1.297-0.094-1.852h1.111l0.094,1.111l0,0c0.369-0.648,1.11-1.297,2.223-1.297
		c0.926,0,2.408,0.555,2.408,2.871v3.981h-1.297v-3.89c0-1.112-0.371-1.945-1.574-1.945c-0.834,0-1.391,0.557-1.668,1.297
		c-0.092,0.186-0.092,0.37-0.092,0.557v4.074h-1.205v-4.908H230.82L230.82,221.604z"/>
	<path fill="#414042" d="M239.156,223.363c0,1.668,1.111,2.316,2.314,2.316c0.834,0,1.391-0.187,1.854-0.371l0.186,0.834
		c-0.463,0.186-1.205,0.463-2.223,0.463c-2.039,0-3.335-1.39-3.335-3.429c0-2.036,1.204-3.61,3.149-3.61
		c2.223,0,2.777,1.945,2.777,3.147c0,0.278,0,0.463,0,0.558h-4.725v0.092H239.156z M242.77,222.529c0-0.74-0.278-1.944-1.668-1.944
		c-1.205,0-1.76,1.11-1.854,1.944H242.77z"/>
	<path fill="#414042" d="M244.527,228.271c0.279-0.832,0.648-2.314,0.834-3.334l1.391-0.092c-0.277,1.203-0.927,2.686-1.297,3.334
		L244.527,228.271z"/>
	<path fill="#414042" d="M6.669,232.441v8.149c0,0.556,0,1.298,0.093,1.761H5.65l-0.092-1.205l0,0
		c-0.371,0.742-1.204,1.297-2.316,1.297c-1.667,0-2.871-1.389-2.871-3.426c0-2.225,1.389-3.613,3.057-3.613
		c1.019,0,1.76,0.464,2.038,1.02l0,0v-3.982H6.669L6.669,232.441z M5.465,238.275c0-0.186,0-0.369-0.093-0.555
		c-0.185-0.742-0.833-1.391-1.76-1.391c-1.297,0-2.038,1.111-2.038,2.593c0,1.392,0.648,2.502,1.945,2.502
		c0.834,0,1.575-0.557,1.76-1.481c0-0.187,0.092-0.371,0.092-0.557v-1.111H5.465z"/>
	<path fill="#414042" d="M9.448,239.109c0,1.668,1.111,2.315,2.315,2.315c0.833,0,1.39-0.187,1.853-0.37l0.185,0.834
		c-0.463,0.186-1.204,0.463-2.223,0.463c-2.038,0-3.334-1.39-3.334-3.429c0-2.037,1.204-3.61,3.149-3.61
		c2.223,0,2.779,1.944,2.779,3.147c0,0.278,0,0.463,0,0.558H9.448V239.109z M12.967,238.275c0-0.74-0.278-1.944-1.667-1.944
		c-1.204,0-1.76,1.11-1.853,1.944H12.967z"/>
	<path fill="#414042" d="M15.561,241.055c0.37,0.278,1.019,0.463,1.575,0.463c0.926,0,1.296-0.463,1.296-1.019
		s-0.371-0.927-1.296-1.204c-1.204-0.463-1.76-1.111-1.76-1.945c0-1.11,0.834-1.945,2.316-1.945c0.648,0,1.296,0.187,1.667,0.465
		l-0.278,0.926c-0.278-0.186-0.741-0.37-1.389-0.37c-0.741,0-1.112,0.464-1.112,0.927c0,0.557,0.371,0.834,1.297,1.11
		c1.204,0.463,1.76,1.021,1.76,2.038c0,1.204-0.926,2.038-2.5,2.038c-0.741,0-1.39-0.187-1.853-0.463L15.561,241.055z"/>
	<path fill="#414042" d="M21.026,241.055c0.37,0.278,1.019,0.463,1.575,0.463c0.926,0,1.296-0.463,1.296-1.019
		s-0.371-0.927-1.296-1.204c-1.205-0.463-1.76-1.111-1.76-1.945c0-1.11,0.834-1.945,2.316-1.945c0.648,0,1.296,0.187,1.667,0.465
		l-0.278,0.926c-0.278-0.186-0.741-0.37-1.389-0.37c-0.741,0-1.112,0.464-1.112,0.927c0,0.557,0.371,0.834,1.297,1.11
		c1.204,0.463,1.76,1.021,1.76,2.038c0,1.204-0.926,2.038-2.5,2.038c-0.741,0-1.39-0.187-1.853-0.463L21.026,241.055z"/>
	<path fill="#414042" d="M27.324,239.109c0,1.668,1.111,2.315,2.315,2.315c0.834,0,1.39-0.187,1.853-0.37l0.186,0.834
		c-0.463,0.186-1.204,0.463-2.223,0.463c-2.038,0-3.334-1.39-3.334-3.429c0-2.037,1.204-3.61,3.149-3.61
		c2.223,0,2.778,1.944,2.778,3.147c0,0.278,0,0.463,0,0.558h-4.724V239.109z M30.937,238.275c0-0.74-0.278-1.944-1.667-1.944
		c-1.204,0-1.76,1.11-1.853,1.944H30.937z"/>
	<path fill="#414042" d="M33.623,237.628c0-0.834,0-1.481-0.093-2.13h1.112v1.296h0.093c0.278-0.926,1.019-1.481,1.852-1.481
		c0.093,0,0.278,0,0.371,0v1.111c-0.093,0-0.278,0-0.371,0c-0.833,0-1.482,0.648-1.667,1.574c0,0.186-0.093,0.371-0.093,0.557v3.611
		h-1.204V237.628L33.623,237.628z"/>
	<path fill="#414042" d="M40.014,233.645v1.945h1.76v0.926h-1.76v3.613c0,0.834,0.278,1.297,0.926,1.297
		c0.278,0,0.556,0,0.741-0.093l0.092,0.926c-0.278,0.093-0.648,0.187-1.111,0.187c-0.556,0-1.019-0.187-1.297-0.557
		c-0.371-0.371-0.463-0.926-0.463-1.76v-3.705h-1.019v-0.926h1.019v-1.575L40.014,233.645z"/>
	<path fill="#414042" d="M51.87,232.441v8.149c0,0.556,0,1.298,0.093,1.761h-1.112l-0.092-1.205l0,0
		c-0.371,0.742-1.204,1.297-2.316,1.297c-1.667,0-2.871-1.389-2.871-3.426c0-2.225,1.389-3.613,3.057-3.613
		c1.019,0,1.76,0.464,2.038,1.02l0,0v-3.982H51.87L51.87,232.441z M50.666,238.275c0-0.186,0-0.369-0.093-0.555
		c-0.185-0.742-0.833-1.391-1.76-1.391c-1.297,0-2.038,1.111-2.038,2.593c0,1.392,0.648,2.502,1.945,2.502
		c0.834,0,1.575-0.557,1.76-1.481c0-0.187,0.092-0.371,0.092-0.557v-1.111H50.666z"/>
	<path fill="#414042" d="M57.612,242.259l-0.093-0.833l0,0c-0.37,0.555-1.111,1.02-2.038,1.02c-1.389,0-2.038-0.928-2.038-1.945
		c0-1.667,1.482-2.501,4.075-2.501v-0.092c0-0.558-0.185-1.575-1.482-1.575c-0.648,0-1.296,0.186-1.76,0.463L54,235.961
		c0.556-0.371,1.389-0.557,2.223-0.557c2.038,0,2.593,1.39,2.593,2.779v2.5c0,0.557,0,1.111,0.093,1.574L57.612,242.259
		L57.612,242.259z M57.427,238.832c-1.297,0-2.872,0.186-2.872,1.482c0,0.832,0.556,1.203,1.111,1.203
		c0.834,0,1.39-0.556,1.667-1.111c0-0.092,0.093-0.277,0.093-0.37L57.427,238.832L57.427,238.832z"/>
	<path fill="#414042" d="M60.391,241.055c0.371,0.278,1.019,0.463,1.575,0.463c0.926,0,1.296-0.463,1.296-1.019
		s-0.37-0.927-1.296-1.204c-1.204-0.463-1.76-1.111-1.76-1.945c0-1.11,0.833-1.945,2.315-1.945c0.648,0,1.297,0.187,1.667,0.465
		l-0.278,0.926c-0.278-0.186-0.741-0.37-1.389-0.37c-0.741,0-1.111,0.464-1.111,0.927c0,0.557,0.37,0.834,1.296,1.11
		c1.204,0.463,1.76,1.021,1.76,2.038c0,1.204-0.926,2.038-2.501,2.038c-0.741,0-1.39-0.187-1.853-0.463L60.391,241.055z"/>
	<path fill="#414042" d="M66.134,232.441h1.204v4.168l0,0c0.185-0.371,0.463-0.648,0.833-0.834c0.371-0.187,0.834-0.371,1.297-0.371
		c0.926,0,2.315,0.557,2.315,2.871v3.982H70.58v-3.89c0-1.111-0.37-2.038-1.574-2.038c-0.834,0-1.39,0.556-1.667,1.204
		c-0.093,0.186-0.093,0.37-0.093,0.556v4.075h-1.204v-9.726h0.092V232.441z"/>
	<path fill="#414042" d="M72.988,244.02c0.278-0.834,0.648-2.315,0.834-3.334l1.389-0.094c-0.278,1.204-0.926,2.686-1.297,3.334
		L72.988,244.02z"/>
	<path fill="#414042" d="M79.657,237.628c0-0.834,0-1.481-0.092-2.13h1.111v1.296h0.093c0.278-0.926,1.019-1.481,1.853-1.481
		c0.092,0,0.278,0,0.37,0v1.111c-0.092,0-0.278,0-0.37,0c-0.834,0-1.482,0.648-1.667,1.574c0,0.186-0.093,0.371-0.093,0.557v3.611
		h-1.204L79.657,237.628L79.657,237.628z"/>
	<path fill="#414042" d="M87.808,242.259l-0.093-0.833l0,0c-0.371,0.555-1.111,1.02-2.038,1.02c-1.39,0-2.038-0.928-2.038-1.945
		c0-1.667,1.482-2.501,4.076-2.501v-0.092c0-0.558-0.185-1.575-1.482-1.575c-0.648,0-1.297,0.186-1.76,0.463l-0.278-0.833
		c0.556-0.371,1.39-0.558,2.223-0.558c2.038,0,2.594,1.391,2.594,2.779v2.502c0,0.556,0,1.11,0.092,1.573H87.808L87.808,242.259z
		 M87.623,238.832c-1.297,0-2.871,0.186-2.871,1.482c0,0.832,0.556,1.203,1.111,1.203c0.833,0,1.389-0.556,1.667-1.111
		c0-0.092,0.093-0.277,0.093-0.37V238.832z"/>
	<path fill="#414042" d="M94.292,233.553c-0.278-0.094-0.556-0.186-0.833-0.186c-0.371,0-0.741,0.093-0.926,0.369
		c-0.371,0.371-0.463,0.928-0.463,1.576v0.276h2.871v-0.276c0-0.928,0.371-1.761,0.926-2.316c0.556-0.463,1.204-0.648,2.13-0.648
		c0.741,0,1.482,0.187,2.038,0.465v9.539H98.83v-8.893c-0.185-0.092-0.556-0.186-1.019-0.186c-1.297,0-1.667,0.928-1.667,2.039
		v0.369h1.575v0.928h-1.575v5.834H94.94v-5.834h-2.872v5.834h-1.204v-5.834h-0.926v-0.928h0.926v-0.185
		c0-0.834,0.186-1.761,0.741-2.315c0.463-0.464,1.019-0.648,1.853-0.648c0.463,0,0.926,0.186,1.111,0.277L94.292,233.553z"/>
	<path fill="#414042" d="M102.813,239.109c0,1.668,1.111,2.315,2.315,2.315c0.834,0,1.39-0.187,1.853-0.37l0.186,0.834
		c-0.463,0.186-1.204,0.463-2.223,0.463c-2.038,0-3.334-1.39-3.334-3.429c0-2.037,1.204-3.61,3.149-3.61
		c2.223,0,2.779,1.944,2.779,3.147c0,0.278,0,0.463,0,0.558h-4.724L102.813,239.109L102.813,239.109z M106.425,238.275
		c0-0.74-0.278-1.944-1.667-1.944c-1.204,0-1.76,1.11-1.853,1.944H106.425z"/>
	<path fill="#414042" d="M108.926,241.055c0.371,0.278,1.019,0.463,1.575,0.463c0.926,0,1.296-0.463,1.296-1.019
		s-0.37-0.927-1.296-1.204c-1.204-0.463-1.76-1.111-1.76-1.945c0-1.11,0.833-1.945,2.315-1.945c0.648,0,1.297,0.187,1.667,0.465
		l-0.278,0.926c-0.278-0.186-0.741-0.37-1.389-0.37c-0.741,0-1.111,0.464-1.111,0.927c0,0.557,0.37,0.834,1.296,1.11
		c1.204,0.463,1.76,1.021,1.76,2.038c0,1.204-0.926,2.038-2.501,2.038c-0.741,0-1.39-0.187-1.853-0.463L108.926,241.055z"/>
	<path fill="#414042" d="M121.245,242.259l-0.092-0.833l0,0c-0.371,0.555-1.112,1.02-2.038,1.02c-1.389,0-2.038-0.928-2.038-1.945
		c0-1.667,1.482-2.501,4.076-2.501v-0.092c0-0.558-0.186-1.575-1.482-1.575c-0.648,0-1.296,0.186-1.76,0.463l-0.278-0.833
		c0.556-0.371,1.39-0.558,2.223-0.558c2.038,0,2.593,1.391,2.593,2.779v2.502c0,0.556,0,1.11,0.093,1.573H121.245L121.245,242.259z
		 M121.06,238.832c-1.297,0-2.872,0.186-2.872,1.482c0,0.832,0.556,1.203,1.112,1.203c0.833,0,1.389-0.556,1.667-1.111
		c0-0.092,0.093-0.277,0.093-0.37V238.832L121.06,238.832z"/>
	<path fill="#414042" d="M124.209,237.35c0-0.74,0-1.297-0.093-1.852h1.111l0.093,1.111l0,0c0.371-0.648,1.111-1.297,2.223-1.297
		c0.926,0,2.408,0.556,2.408,2.871v3.981h-1.204v-3.89c0-1.112-0.371-1.945-1.575-1.945c-0.833,0-1.39,0.556-1.667,1.297
		c-0.092,0.186-0.092,0.37-0.092,0.557v4.074h-1.204V237.35L124.209,237.35z"/>
	<path fill="#414042" d="M137.732,232.441v8.149c0,0.556,0,1.298,0.093,1.761h-1.112l-0.092-1.205l0,0
		c-0.371,0.742-1.204,1.297-2.316,1.297c-1.667,0-2.871-1.389-2.871-3.426c0-2.225,1.389-3.613,3.057-3.613
		c1.019,0,1.759,0.464,2.038,1.02l0,0v-3.982H137.732L137.732,232.441z M136.527,238.275c0-0.186,0-0.369-0.092-0.555
		c-0.187-0.742-0.834-1.391-1.761-1.391c-1.297,0-2.038,1.111-2.038,2.593c0,1.392,0.648,2.502,1.945,2.502
		c0.834,0,1.575-0.557,1.761-1.481c0-0.187,0.093-0.371,0.093-0.557v-1.111H136.527z"/>
	<path fill="#414042" d="M144.123,233.645c0,0.463-0.277,0.741-0.74,0.741s-0.74-0.37-0.74-0.741c0-0.463,0.277-0.74,0.74-0.74
		C143.753,232.904,144.123,233.273,144.123,233.645z M142.734,242.259v-6.761h1.203v6.761H142.734z"/>
	<path fill="#414042" d="M145.977,237.35c0-0.74,0-1.297-0.094-1.852h1.111l0.094,1.111l0,0c0.37-0.648,1.111-1.297,2.223-1.297
		c0.926,0,2.408,0.556,2.408,2.871v3.981h-1.203v-3.89c0-1.112-0.371-1.945-1.576-1.945c-0.832,0-1.389,0.556-1.666,1.297
		c-0.094,0.186-0.094,0.37-0.094,0.557v4.074h-1.203V237.35L145.977,237.35z"/>
	<path fill="#414042" d="M153.479,241.055c0.371,0.278,1.021,0.463,1.574,0.463c0.928,0,1.297-0.463,1.297-1.019
		s-0.369-0.927-1.203-1.204c-1.205-0.463-1.76-1.111-1.76-1.945c0-1.11,0.834-1.945,2.314-1.945c0.648,0,1.297,0.187,1.668,0.465
		l-0.278,0.926c-0.278-0.186-0.741-0.37-1.39-0.37c-0.74,0-1.111,0.464-1.111,0.927c0,0.557,0.371,0.834,1.297,1.11
		c1.204,0.463,1.76,1.021,1.76,2.038c0,1.204-0.926,2.038-2.5,2.038c-0.742,0-1.391-0.187-1.854-0.463L153.479,241.055z"/>
	<path fill="#414042" d="M159.221,237.721c0-0.834,0-1.574-0.092-2.223h1.111l0.092,1.111l0,0c0.464-0.834,1.297-1.297,2.409-1.297
		c1.667,0,2.87,1.389,2.87,3.426c0,2.408-1.48,3.613-3.057,3.613c-0.927,0-1.666-0.371-2.037-1.02l0,0v3.611h-1.203v-7.225h-0.094
		V237.721z M160.426,239.572c0,0.186,0,0.371,0.092,0.464c0.187,0.833,0.928,1.39,1.854,1.39c1.296,0,2.037-1.02,2.037-2.594
		c0-1.391-0.741-2.501-2.037-2.501c-0.834,0-1.575,0.556-1.854,1.481c0,0.186-0.092,0.371-0.092,0.463V239.572z"/>
	<path fill="#414042" d="M168.484,233.645c0,0.463-0.278,0.741-0.742,0.741c-0.463,0-0.74-0.37-0.74-0.741
		c0-0.463,0.277-0.74,0.74-0.74C168.206,232.904,168.484,233.273,168.484,233.645z M167.094,242.259v-6.761h1.205v6.761H167.094z"/>
	<path fill="#414042" d="M170.336,237.628c0-0.834,0-1.481-0.092-2.13h1.111v1.296h0.092c0.277-0.926,1.02-1.481,1.854-1.481
		c0.092,0,0.277,0,0.37,0v1.111c-0.093,0-0.278,0-0.464,0c-0.833,0-1.48,0.648-1.667,1.574c0,0.186-0.093,0.371-0.093,0.557v3.611
		h-1.203v-4.538H170.336L170.336,237.628z"/>
	<path fill="#414042" d="M178.58,242.259l-0.094-0.833l0,0c-0.369,0.555-1.111,1.02-2.037,1.02c-1.389,0-2.037-0.928-2.037-1.945
		c0-1.667,1.48-2.501,4.074-2.501v-0.092c0-0.558-0.186-1.575-1.481-1.575c-0.647,0-1.296,0.186-1.76,0.463l-0.278-0.833
		c0.557-0.371,1.391-0.558,2.225-0.558c2.037,0,2.593,1.391,2.593,2.779v2.502c0,0.556,0,1.11,0.094,1.573H178.58L178.58,242.259z
		 M178.395,238.832c-1.297,0-2.871,0.186-2.871,1.482c0,0.832,0.557,1.203,1.111,1.203c0.834,0,1.389-0.556,1.667-1.111
		c0-0.092,0.093-0.277,0.093-0.37V238.832z"/>
	<path fill="#414042" d="M182.934,233.645v1.945h1.76v0.926h-1.76v3.613c0,0.834,0.277,1.297,0.926,1.297
		c0.277,0,0.557,0,0.742-0.093l0.092,0.926c-0.277,0.093-0.647,0.187-1.11,0.187c-0.558,0-1.021-0.187-1.297-0.557
		c-0.371-0.371-0.463-0.926-0.463-1.76v-3.705h-1.021v-0.926h1.021v-1.575L182.934,233.645z"/>
	<path fill="#414042" d="M187.379,233.645c0,0.463-0.277,0.741-0.74,0.741c-0.464,0-0.742-0.37-0.742-0.741
		c0-0.463,0.278-0.74,0.742-0.74C187.102,232.904,187.379,233.273,187.379,233.645z M186.082,242.259v-6.761h1.205v6.761H186.082z"
		/>
	<path fill="#414042" d="M195.438,238.832c0,2.501-1.76,3.611-3.334,3.611c-1.854,0-3.242-1.297-3.242-3.426
		c0-2.225,1.482-3.613,3.334-3.613C194.048,235.404,195.438,236.794,195.438,238.832z M190.064,238.924
		c0,1.482,0.834,2.594,2.039,2.594c1.203,0,2.037-1.11,2.037-2.594c0-1.111-0.557-2.593-2.037-2.593
		C190.621,236.331,190.064,237.628,190.064,238.924z"/>
	<path fill="#414042" d="M196.92,237.35c0-0.74,0-1.297-0.094-1.852h1.111l0.094,1.111l0,0c0.369-0.648,1.111-1.297,2.223-1.297
		c0.926,0,2.408,0.556,2.408,2.871v3.981h-1.204v-3.89c0-1.112-0.37-1.945-1.575-1.945c-0.833,0-1.389,0.556-1.666,1.297
		c-0.094,0.186-0.094,0.37-0.094,0.557v4.074h-1.203V237.35L196.92,237.35z"/>
	<path fill="#414042" d="M208.404,242.259l-0.092-0.833l0,0c-0.371,0.555-1.111,1.02-2.039,1.02c-1.39,0-2.037-0.928-2.037-1.945
		c0-1.667,1.481-2.501,4.076-2.501v-0.092c0-0.558-0.187-1.575-1.576-1.575c-0.646,0-1.295,0.186-1.76,0.463l-0.277-0.833
		c0.557-0.371,1.391-0.558,2.224-0.558c2.038,0,2.593,1.391,2.593,2.779v2.502c0,0.556,0,1.11,0.094,1.573H208.404L208.404,242.259z
		 M208.221,238.832c-1.298,0-2.873,0.186-2.873,1.482c0,0.832,0.557,1.203,1.111,1.203c0.834,0,1.391-0.556,1.668-1.111
		c0-0.092,0.094-0.277,0.094-0.37V238.832z"/>
	<path fill="#414042" d="M211.369,232.441h1.203v9.816h-1.203V232.441z"/>
	<path fill="#414042" d="M217.574,237.721c0-0.834,0-1.574-0.092-2.223h1.11l0.093,1.111l0,0c0.463-0.834,1.297-1.297,2.407-1.297
		c1.669,0,2.872,1.389,2.872,3.426c0,2.408-1.48,3.613-3.057,3.613c-0.928,0-1.667-0.371-2.038-1.02l0,0v3.611h-1.204v-7.225h-0.092
		V237.721z M218.779,239.572c0,0.186,0,0.371,0.092,0.464c0.186,0.833,0.926,1.39,1.854,1.39c1.297,0,2.037-1.02,2.037-2.594
		c0-1.391-0.74-2.501-2.037-2.501c-0.834,0-1.574,0.556-1.854,1.481c0,0.186-0.092,0.371-0.092,0.463V239.572z"/>
	<path fill="#414042" d="M225.447,237.628c0-0.834,0-1.481-0.092-2.13h1.11v1.296h0.093c0.277-0.926,1.02-1.481,1.854-1.481
		c0.092,0,0.277,0,0.37,0v1.111c-0.093,0-0.278,0-0.464,0c-0.834,0-1.481,0.648-1.666,1.574c0,0.186-0.094,0.371-0.094,0.557v3.611
		h-1.203v-4.538H225.447L225.447,237.628z"/>
	<path fill="#414042" d="M236.007,238.832c0,2.501-1.76,3.611-3.335,3.611c-1.852,0-3.24-1.297-3.24-3.426
		c0-2.225,1.48-3.613,3.334-3.613C234.617,235.404,236.007,236.794,236.007,238.832z M230.635,238.924
		c0,1.482,0.834,2.594,2.037,2.594c1.205,0,2.038-1.11,2.038-2.594c0-1.111-0.556-2.593-2.038-2.593
		C231.283,236.331,230.635,237.628,230.635,238.924z"/>
	<path fill="#414042" d="M243.324,235.59c0,0.463-0.094,1.02-0.094,1.854v3.891c0,1.574-0.277,2.501-0.926,3.057
		c-0.648,0.647-1.574,0.834-2.408,0.834s-1.666-0.187-2.224-0.557l0.278-0.926c0.463,0.277,1.111,0.556,1.943,0.556
		c1.297,0,2.131-0.647,2.131-2.315v-0.74l0,0c-0.371,0.648-1.11,1.111-2.131,1.111c-1.666,0-2.871-1.39-2.871-3.242
		c0-2.315,1.482-3.611,3.058-3.611c1.205,0,1.853,0.648,2.131,1.203l0,0l0.093-1.02h1.02V235.59L243.324,235.59z M242.027,238.184
		c0-0.186,0-0.371-0.094-0.556c-0.185-0.741-0.832-1.297-1.666-1.297c-1.205,0-2.037,1.019-2.037,2.501
		c0,1.297,0.647,2.408,1.943,2.408c0.741,0,1.391-0.463,1.667-1.204c0.093-0.187,0.093-0.464,0.093-0.647v-1.205H242.027z"/>
	<path fill="#414042" d="M245.177,237.628c0-0.834,0-1.481-0.093-2.13h1.111v1.296h0.093c0.278-0.926,1.019-1.481,1.853-1.481
		c0.094,0,0.277,0,0.371,0v1.111c-0.094,0-0.277,0-0.464,0c-0.833,0-1.481,0.648-1.667,1.574c0,0.186-0.093,0.371-0.093,0.557v3.611
		h-1.204v-4.538H245.177L245.177,237.628z"/>
	<path fill="#414042" d="M253.42,242.259l-0.092-0.833l0,0c-0.371,0.555-1.111,1.02-2.038,1.02c-1.39,0-2.038-0.928-2.038-1.945
		c0-1.667,1.482-2.501,4.076-2.501v-0.092c0-0.558-0.186-1.575-1.575-1.575c-0.647,0-1.297,0.186-1.76,0.463l-0.278-0.833
		c0.557-0.371,1.391-0.558,2.223-0.558c2.039,0,2.595,1.391,2.595,2.779v2.502c0,0.556,0,1.11,0.094,1.573H253.42L253.42,242.259z
		 M253.234,238.832c-1.297,0-2.871,0.186-2.871,1.482c0,0.832,0.557,1.203,1.111,1.203c0.834,0,1.389-0.556,1.668-1.111
		c0-0.092,0.092-0.277,0.092-0.37V238.832L253.234,238.832z"/>
	<path fill="#414042" d="M256.385,237.35c0-0.74,0-1.297-0.094-1.852h1.111l0.094,1.111l0,0c0.37-0.648,1.02-1.205,2.13-1.205
		c0.927,0,1.575,0.557,1.944,1.39l0,0c0.186-0.37,0.464-0.647,0.742-0.833c0.369-0.277,0.834-0.463,1.48-0.463
		c0.928,0,2.225,0.555,2.225,2.963v3.982h-1.205v-3.797c0-1.297-0.463-2.037-1.481-2.037c-0.741,0-1.204,0.555-1.481,1.11
		c-0.094,0.187-0.094,0.37-0.094,0.648v4.168h-1.203v-3.981c0-1.113-0.463-1.854-1.39-1.854c-0.741,0-1.297,0.647-1.481,1.204
		c-0.094,0.186-0.094,0.371-0.094,0.556v4.076h-1.203V237.35L256.385,237.35z"/>
	<path fill="#414042" d="M267.686,241.611c0-0.465,0.369-0.834,0.832-0.834s0.834,0.369,0.834,0.834
		c0,0.463-0.276,0.832-0.834,0.832C268.055,242.443,267.686,242.074,267.686,241.611z M268.055,239.572l-0.186-6.668h1.297
		l-0.186,6.668H268.055z"/>
</g>
<text transform="matrix(1 0 0 1 36.3721 198.0166)" fill="#6D6E71" font-family="'MyriadPro-Regular'" font-size="12">2</text>
<text transform="matrix(1 0 0 1 42.5283 198.0166)" fill="#6D6E71" font-family="'MyriadPro-Regular'" font-size="12">01</text>
<text transform="matrix(1 0 0 1 53.8789 198.0166)" fill="#6D6E71" font-family="'MyriadPro-Regular'" font-size="12">3</text>
<text transform="matrix(1 0 0 1 60.5151 198.0166)" fill="#6D6E71" font-family="'MyriadPro-Regular'" font-size="12"> S. Cedar Street  Tacoma WA 98405</text>
<g>
	<path fill="#414042" d="M97.601,146.721c0,4.967-3.012,7.979-7.439,7.979c-4.495,0-7.125-3.394-7.125-7.709
		c0-4.541,2.899-7.934,7.372-7.934C95.061,139.057,97.601,142.539,97.601,146.721z M86.655,146.923c0,2.967,1.394,5.057,3.686,5.057
		c2.315,0,3.641-2.202,3.641-5.146c0-2.72-1.304-5.058-3.664-5.058C88.003,141.775,86.655,143.979,86.655,146.923z"/>
	<path fill="#414042" d="M107.826,154.183c-0.606,0.27-1.753,0.494-3.057,0.494c-3.551,0-5.821-2.157-5.821-5.619
		c0-3.214,2.203-5.844,6.293-5.844c0.899,0,1.888,0.157,2.607,0.427l-0.539,2.54c-0.405-0.18-1.012-0.337-1.911-0.337
		c-1.798,0-2.967,1.281-2.944,3.079c0,2.023,1.349,3.079,3.012,3.079c0.809,0,1.438-0.135,1.956-0.337L107.826,154.183z"/>
	<path fill="#414042" d="M113.894,140.314v3.146h2.45v2.518h-2.45v3.979c0,1.326,0.315,1.933,1.349,1.933
		c0.427,0,0.764-0.045,1.011-0.09l0.023,2.585c-0.45,0.18-1.259,0.292-2.226,0.292c-1.101,0-2.022-0.382-2.562-0.943
		c-0.629-0.652-0.944-1.709-0.944-3.26v-4.495h-1.461v-2.518h1.461v-2.383L113.894,140.314z"/>
	<path fill="#414042" d="M129.064,148.833c0,4.023-2.854,5.866-5.799,5.866c-3.214,0-5.687-2.112-5.687-5.664
		c0-3.551,2.337-5.821,5.866-5.821C126.817,143.214,129.064,145.529,129.064,148.833z M121.108,148.945
		c0,1.888,0.787,3.304,2.248,3.304c1.326,0,2.18-1.325,2.18-3.304c0-1.641-0.629-3.304-2.18-3.304
		C121.715,145.642,121.108,147.327,121.108,148.945z"/>
	<path fill="#414042" d="M130.884,154.452c0.045-0.719,0.09-2.045,0.09-3.281v-12.677h3.417v6.271h0.045
		c0.652-0.943,1.798-1.551,3.326-1.551c2.63,0,4.562,2.181,4.541,5.552c0,3.956-2.518,5.934-5.035,5.934
		c-1.281,0-2.518-0.472-3.304-1.775h-0.045l-0.135,1.528H130.884z M134.391,149.777c0,0.225,0.022,0.427,0.067,0.606
		c0.225,0.922,1.011,1.618,2.001,1.618c1.461,0,2.359-1.123,2.359-3.102c0-1.708-0.764-3.057-2.359-3.057
		c-0.922,0-1.776,0.696-2.001,1.686c-0.045,0.202-0.067,0.404-0.067,0.63V149.777z"/>
	<path fill="#414042" d="M147.111,150.047c0.111,1.416,1.506,2.09,3.102,2.09c1.168,0,2.111-0.157,3.033-0.449l0.449,2.315
		c-1.123,0.449-2.494,0.674-3.977,0.674c-3.732,0-5.867-2.157-5.867-5.597c0-2.787,1.73-5.866,5.551-5.866
		c3.553,0,4.9,2.765,4.9,5.484c0,0.584-0.066,1.102-0.111,1.349H147.111z M151.135,147.709c0-0.831-0.361-2.225-1.934-2.225
		c-1.439,0-2.023,1.304-2.113,2.225H151.135z"/>
	<path fill="#414042" d="M156.348,147.08c0-1.618-0.045-2.675-0.09-3.619h2.943l0.113,2.023h0.09
		c0.561-1.596,1.91-2.271,2.967-2.271c0.314,0,0.471,0,0.719,0.045v3.214c-0.248-0.045-0.539-0.09-0.922-0.09
		c-1.258,0-2.111,0.675-2.338,1.731c-0.045,0.225-0.066,0.494-0.066,0.764v5.574h-3.416V147.08z"/>
	<path fill="#414042" d="M172.35,142.877h-0.045l-2.787,1.326l-0.562-2.562l3.867-1.798h2.832v14.609h-3.305V142.877z"/>
	<path fill="#414042" d="M178.598,151.104c0.607,0.314,2,0.898,3.393,0.898c1.777,0,2.676-0.854,2.676-1.955
		c0-1.438-1.439-2.091-2.945-2.091h-1.393v-2.449h1.326c1.146-0.022,2.607-0.45,2.607-1.686c0-0.877-0.719-1.528-2.158-1.528
		c-1.191,0-2.449,0.517-3.057,0.876l-0.697-2.472c0.877-0.562,2.631-1.102,4.518-1.102c3.125,0,4.855,1.641,4.855,3.641
		c0,1.551-0.877,2.765-2.674,3.395v0.045c1.752,0.314,3.168,1.641,3.168,3.551c0,2.585-2.27,4.473-5.979,4.473
		c-1.889,0-3.484-0.494-4.338-1.034L178.598,151.104z"/>
</g>
</svg>
